M48
;Layer_Color=9474304
;FILE_FORMAT=2:5
INCH,LZ
;TYPE=PLATED
T4F00S00C0.03937
;TYPE=NON_PLATED
%
G90
G05
T04
G00X081102Y0112279
M15
G01Y0102437
M16
G00X0834642Y0111295
M15
G01Y0103421
M16
G00X0818894Y0125862
M15
G01X0826768
M16
G00X0023626Y0141854
M15
G01X0015752
M16
G00X00315Y0021579
M15
G01Y0031421
M16
G00X0007878Y0022563
M15
G01Y0030437
M16
G00X0023626Y0007996
M15
G01X0015752
M16
G00X0007878Y0156421
M15
G01Y0164295
M16
G00X00315Y0155437
M15
G01Y0165279
M16
G00X081102Y0246138
M15
G01Y0236295
M16
G00X0834642Y0245153
M15
G01Y023728
M16
G00X0818894Y025972
M15
G01X0826768
M16
M17
M30
