G04*
G04 #@! TF.GenerationSoftware,Altium Limited,Altium Designer,21.6.4 (81)*
G04*
G04 Layer_Color=16711935*
%FSLAX25Y25*%
%MOIN*%
G70*
G04*
G04 #@! TF.SameCoordinates,3D6B76B5-807D-490A-A4E0-8169CAFFE717*
G04*
G04*
G04 #@! TF.FilePolarity,Negative*
G04*
G01*
G75*
%ADD77C,0.16548*%
%ADD78R,0.07887X0.07887*%
%ADD79C,0.07887*%
%ADD80O,0.22060X0.07887*%
%ADD81O,0.07887X0.22060*%
%ADD82O,0.07887X0.25603*%
%ADD83C,0.08800*%
%ADD84R,0.08800X0.08800*%
%ADD85C,0.12611*%
%ADD86C,0.09461*%
%ADD87C,0.09461*%
%ADD88C,0.10249*%
%ADD89R,0.10249X0.10249*%
%ADD90C,0.12611*%
%ADD91C,0.05800*%
G54D77*
X822835Y-13780D02*
D03*
X19685D02*
D03*
G54D78*
X606020Y124858D02*
D03*
Y258717D02*
D03*
X236500Y9000D02*
D03*
Y142858D02*
D03*
G54D79*
X646020Y124858D02*
D03*
X636020D02*
D03*
X626020D02*
D03*
X616020D02*
D03*
X646020Y258717D02*
D03*
X636020D02*
D03*
X626020D02*
D03*
X616020D02*
D03*
X196500Y9000D02*
D03*
X206500D02*
D03*
X216500D02*
D03*
X226500D02*
D03*
X196500Y142858D02*
D03*
X206500D02*
D03*
X216500D02*
D03*
X226500D02*
D03*
G54D80*
X822831Y125862D02*
D03*
Y259720D02*
D03*
X19689Y7996D02*
D03*
Y141854D02*
D03*
G54D81*
X834642Y107358D02*
D03*
Y241216D02*
D03*
X7878Y26500D02*
D03*
Y160358D02*
D03*
G54D82*
X811020Y107358D02*
D03*
Y241216D02*
D03*
X31500Y26500D02*
D03*
Y160358D02*
D03*
G54D83*
X773020Y121108D02*
D03*
Y254966D02*
D03*
X69500Y12750D02*
D03*
Y146608D02*
D03*
G54D84*
X773020Y107608D02*
D03*
Y241466D02*
D03*
X69500Y26250D02*
D03*
Y160108D02*
D03*
G54D85*
X737567Y34358D02*
D03*
X793472Y10736D02*
D03*
Y57980D02*
D03*
X737567Y168217D02*
D03*
X793472Y144595D02*
D03*
Y191839D02*
D03*
X104953Y99500D02*
D03*
X49047Y123122D02*
D03*
Y75878D02*
D03*
X104953Y233358D02*
D03*
X49047Y256980D02*
D03*
Y209736D02*
D03*
G54D86*
X745441Y10736D02*
D03*
Y144595D02*
D03*
X97079Y123122D02*
D03*
Y256980D02*
D03*
G54D87*
X745441Y57980D02*
D03*
Y191839D02*
D03*
X97079Y75878D02*
D03*
Y209736D02*
D03*
G54D88*
X825520Y34858D02*
D03*
Y54543D02*
D03*
Y168717D02*
D03*
Y188402D02*
D03*
X17000Y99000D02*
D03*
Y79315D02*
D03*
Y232858D02*
D03*
Y213173D02*
D03*
G54D89*
X825520Y15173D02*
D03*
Y149031D02*
D03*
X17000Y118685D02*
D03*
Y252543D02*
D03*
G54D90*
X519685Y11811D02*
D03*
X744095Y122047D02*
D03*
X519685Y145669D02*
D03*
X744095Y255906D02*
D03*
X322835Y122047D02*
D03*
X98425Y11811D02*
D03*
X322835Y255906D02*
D03*
X98425Y145669D02*
D03*
G54D91*
X597020Y82358D02*
D03*
X603520Y85858D02*
D03*
X458520Y117358D02*
D03*
X473520D02*
D03*
X637520Y64858D02*
D03*
X596520Y26858D02*
D03*
X644020Y86858D02*
D03*
X669520Y52358D02*
D03*
X627520Y44858D02*
D03*
X589020Y55858D02*
D03*
X556020Y50858D02*
D03*
Y41358D02*
D03*
X694520Y33858D02*
D03*
X703020Y110358D02*
D03*
Y80858D02*
D03*
X583520Y76358D02*
D03*
X613020Y60858D02*
D03*
X527520Y102358D02*
D03*
X548020Y101858D02*
D03*
X479020Y19858D02*
D03*
X597020Y216216D02*
D03*
X603520Y219717D02*
D03*
X458520Y251217D02*
D03*
X473520D02*
D03*
X637520Y198716D02*
D03*
X596520Y160716D02*
D03*
X644020Y220717D02*
D03*
X669520Y186216D02*
D03*
X627520Y178717D02*
D03*
X589020Y189716D02*
D03*
X556020Y184716D02*
D03*
Y175216D02*
D03*
X694520Y167717D02*
D03*
X703020Y244216D02*
D03*
Y214717D02*
D03*
X583520Y210216D02*
D03*
X613020Y194717D02*
D03*
X527520Y236216D02*
D03*
X548020Y235717D02*
D03*
X479020Y153717D02*
D03*
X245500Y51500D02*
D03*
X239000Y48000D02*
D03*
X384000Y16500D02*
D03*
X369000D02*
D03*
X205000Y69000D02*
D03*
X246000Y107000D02*
D03*
X198500Y47000D02*
D03*
X173000Y81500D02*
D03*
X215000Y89000D02*
D03*
X253500Y78000D02*
D03*
X286500Y83000D02*
D03*
Y92500D02*
D03*
X148000Y100000D02*
D03*
X139500Y23500D02*
D03*
Y53000D02*
D03*
X259000Y57500D02*
D03*
X229500Y73000D02*
D03*
X315000Y31500D02*
D03*
X294500Y32000D02*
D03*
X363500Y114000D02*
D03*
X245500Y185358D02*
D03*
X239000Y181858D02*
D03*
X384000Y150358D02*
D03*
X369000D02*
D03*
X205000Y202858D02*
D03*
X246000Y240858D02*
D03*
X198500Y180858D02*
D03*
X173000Y215358D02*
D03*
X215000Y222858D02*
D03*
X253500Y211858D02*
D03*
X286500Y216858D02*
D03*
Y226358D02*
D03*
X148000Y233858D02*
D03*
X139500Y157358D02*
D03*
Y186858D02*
D03*
X259000Y191358D02*
D03*
X229500Y206858D02*
D03*
X315000Y165358D02*
D03*
X294500Y165858D02*
D03*
X363500Y247858D02*
D03*
M02*
