M48
;Layer_Color=9474304
;FILE_FORMAT=2:5
INCH,LZ
;TYPE=PLATED
T1F00S00C0.02800
T2F00S00C0.03600
T3F00S00C0.03937
T5F00S00C0.05118
;TYPE=NON_PLATED
T6F00S00C0.11811
T7F00S00C0.15748
%
T01
X062752Y0044858
X063752Y0064858
X064402Y0086858
X066952Y0052358
X069452Y0033858
X070302Y0080858
Y0110358
X060352Y0085858
X059702Y0082358
X058352Y0076358
X058902Y0055858
X061302Y0060858
X059652Y0026858
X055602Y0041358
Y0050858
X054802Y0101858
X052752Y0102358
X047352Y0117358
X047902Y0019858
X0384Y00165
X0369
X0315Y00315
X03635Y0114
X045852Y0117358
X02865Y00925
Y0083
X02535Y0078
X0259Y00575
X02455Y00515
X0239Y0048
X02295Y0073
X0205Y0069
X01985Y0047
X0215Y0089
X0246Y0107
X0173Y00815
X02945Y0032
X01395Y00235
Y0053
X0148Y01
X01395Y0157358
Y0186858
X0148Y0233858
X0173Y0215358
X0205Y0202858
X01985Y0180858
X0239Y0181858
X02455Y0185358
X0259Y0191358
X02535Y0211858
X02295Y0206858
X0215Y0222858
X0246Y0240858
X02865Y0226358
Y0216858
X02945Y0165858
X0315Y0165358
X0369Y0150358
X0384
X03635Y0247858
X045852Y0251217
X047352
X052752Y0236216
X054802Y0235717
X055602Y0184716
Y0175216
X058902Y0189716
X058352Y0210216
X059702Y0216216
X060352Y0219717
X061302Y0194717
X059652Y0160716
X047902Y0153717
X062752Y0178717
X063752Y0198716
X064402Y0220717
X066952Y0186216
X069452Y0167717
X070302Y0214717
Y0244216
T02
X077302Y0107608
Y0121108
X00695Y0146608
Y002625
Y001275
Y0160108
X077302Y0241466
Y0254966
T03
X062602Y0124858
X063602
X064602
X061602
X060602
X02365Y0142858
X02265
X02165
X02065
X01965
Y0009
X02065
X02165
X02265
X02365
X060602Y0258717
X061602
X062602
X063602
X064602
T05
X0793472Y0010736
X082552Y0015173
Y0034858
Y0054543
X0793472Y005798
Y0144595
X0745441
Y005798
X0737567Y0034358
X0745441Y0010736
X0097079Y0075878
X0104953Y00995
X0097079Y0123122
X0049047
X0017Y0118685
Y0099
Y0079315
X0049047Y0075878
Y0209736
X0017Y0213173
Y0232858
Y0252543
X0049047Y025698
X0097079
X0104953Y0233358
X0097079Y0209736
X0745441Y0191839
X0737567Y0168217
X0793472Y0191839
X082552Y0188402
Y0168717
Y0149031
T06
X0744095Y0122047
X0519685Y0145669
Y0011811
X0322835Y0122047
X0098425Y0145669
Y0011811
X0322835Y0255906
X0744095
T07
X0019685Y-001378
X0822835
M30
