G04*
G04 #@! TF.GenerationSoftware,Altium Limited,Altium Designer,21.6.4 (81)*
G04*
G04 Layer_Physical_Order=2*
G04 Layer_Color=16711680*
%FSLAX25Y25*%
%MOIN*%
G70*
G04*
G04 #@! TF.SameCoordinates,3D6B76B5-807D-490A-A4E0-8169CAFFE717*
G04*
G04*
G04 #@! TF.FilePolarity,Positive*
G04*
G01*
G75*
%ADD28C,0.00800*%
%ADD29C,0.01000*%
%ADD30C,0.02000*%
%ADD35R,0.07087X0.07087*%
%ADD36C,0.07087*%
%ADD37O,0.21260X0.07087*%
%ADD38O,0.07087X0.21260*%
%ADD39O,0.07087X0.24803*%
%ADD40C,0.08000*%
%ADD41R,0.08000X0.08000*%
%ADD42C,0.11811*%
%ADD43C,0.08661*%
%ADD44C,0.08661*%
%ADD45C,0.09449*%
%ADD46R,0.09449X0.09449*%
%ADD47C,0.11811*%
%ADD48C,0.05000*%
G36*
X787020Y219216D02*
X774020Y206217D01*
X765020D01*
Y136685D01*
X527070D01*
X526896Y137154D01*
X527600Y137755D01*
X528740Y139090D01*
X529658Y140588D01*
X530330Y142210D01*
X530740Y143918D01*
X530878Y145669D01*
X530740Y147420D01*
X530330Y149128D01*
X529658Y150751D01*
X528740Y152248D01*
X527600Y153584D01*
X526264Y154725D01*
X524766Y155642D01*
X523144Y156314D01*
X521436Y156724D01*
X519685Y156862D01*
X517934Y156724D01*
X516226Y156314D01*
X514604Y155642D01*
X513106Y154725D01*
X511770Y153584D01*
X510630Y152248D01*
X509712Y150751D01*
X509040Y149128D01*
X508630Y147420D01*
X508492Y145669D01*
X508630Y143918D01*
X509040Y142210D01*
X509712Y140588D01*
X510630Y139090D01*
X511770Y137755D01*
X512474Y137154D01*
X512300Y136685D01*
X451020D01*
Y172252D01*
X451087D01*
X451457Y172326D01*
X451771Y172536D01*
X451981Y172850D01*
X452055Y173221D01*
Y236213D01*
X451981Y236583D01*
X451771Y236897D01*
X451457Y237107D01*
X451087Y237181D01*
X451020D01*
Y264748D01*
X736944D01*
X737117Y264279D01*
X736364Y263636D01*
X735250Y262331D01*
X734354Y260869D01*
X733698Y259284D01*
X733297Y257616D01*
X733162Y255906D01*
X733297Y254195D01*
X733698Y252527D01*
X734354Y250942D01*
X735250Y249480D01*
X736364Y248175D01*
X737669Y247061D01*
X739131Y246165D01*
X740716Y245509D01*
X742384Y245108D01*
X744095Y244973D01*
X745805Y245108D01*
X747473Y245509D01*
X749057Y246165D01*
X750520Y247061D01*
X751825Y248175D01*
X752939Y249480D01*
X753835Y250942D01*
X754491Y252527D01*
X754892Y254195D01*
X755026Y255906D01*
X754892Y257616D01*
X754491Y259284D01*
X753835Y260869D01*
X752939Y262331D01*
X751825Y263636D01*
X751072Y264279D01*
X751244Y264748D01*
X787020D01*
Y219216D01*
D02*
G37*
G36*
X391500Y229323D02*
X391433D01*
X391062Y229249D01*
X390748Y229039D01*
X390538Y228725D01*
X390464Y228354D01*
Y165362D01*
X390538Y164991D01*
X390748Y164677D01*
X391062Y164467D01*
X391433Y164394D01*
X391500D01*
Y136827D01*
X105575D01*
X105402Y137296D01*
X106155Y137939D01*
X107269Y139244D01*
X108166Y140706D01*
X108822Y142291D01*
X109223Y143959D01*
X109357Y145669D01*
X109223Y147379D01*
X108822Y149048D01*
X108166Y150632D01*
X107269Y152095D01*
X106155Y153399D01*
X104851Y154514D01*
X103388Y155410D01*
X101803Y156066D01*
X100135Y156467D01*
X98425Y156601D01*
X96715Y156467D01*
X95047Y156066D01*
X93462Y155410D01*
X92000Y154514D01*
X90695Y153399D01*
X89581Y152095D01*
X88685Y150632D01*
X88028Y149048D01*
X87628Y147379D01*
X87493Y145669D01*
X87628Y143959D01*
X88028Y142291D01*
X88685Y140706D01*
X89581Y139244D01*
X90695Y137939D01*
X91448Y137296D01*
X91275Y136827D01*
X55500D01*
Y182358D01*
X68500Y195358D01*
X77500D01*
Y264890D01*
X315450D01*
X315623Y264421D01*
X314920Y263820D01*
X313779Y262485D01*
X312862Y260987D01*
X312190Y259364D01*
X311780Y257657D01*
X311642Y255906D01*
X311780Y254155D01*
X312190Y252447D01*
X312862Y250824D01*
X313779Y249326D01*
X314920Y247991D01*
X316256Y246850D01*
X317753Y245933D01*
X319376Y245261D01*
X321084Y244850D01*
X322835Y244713D01*
X324586Y244850D01*
X326293Y245261D01*
X327916Y245933D01*
X329414Y246850D01*
X330749Y247991D01*
X331890Y249326D01*
X332808Y250824D01*
X333480Y252447D01*
X333890Y254155D01*
X334028Y255906D01*
X333890Y257657D01*
X333480Y259364D01*
X332808Y260987D01*
X331890Y262485D01*
X330749Y263820D01*
X330046Y264421D01*
X330219Y264890D01*
X391500D01*
Y229323D01*
D02*
G37*
G36*
X787020Y85358D02*
X774020Y72358D01*
X765020D01*
Y2827D01*
X527070D01*
X526896Y3296D01*
X527600Y3897D01*
X528740Y5232D01*
X529658Y6730D01*
X530330Y8352D01*
X530740Y10060D01*
X530878Y11811D01*
X530740Y13562D01*
X530330Y15270D01*
X529658Y16893D01*
X528740Y18390D01*
X527600Y19726D01*
X526264Y20866D01*
X524766Y21784D01*
X523144Y22456D01*
X521436Y22866D01*
X519685Y23004D01*
X517934Y22866D01*
X516226Y22456D01*
X514604Y21784D01*
X513106Y20866D01*
X511770Y19726D01*
X510630Y18390D01*
X509712Y16893D01*
X509040Y15270D01*
X508630Y13562D01*
X508492Y11811D01*
X508630Y10060D01*
X509040Y8352D01*
X509712Y6730D01*
X510630Y5232D01*
X511770Y3897D01*
X512474Y3296D01*
X512300Y2827D01*
X451020D01*
Y38394D01*
X451087D01*
X451457Y38467D01*
X451771Y38677D01*
X451981Y38991D01*
X452055Y39362D01*
Y102354D01*
X451981Y102725D01*
X451771Y103039D01*
X451457Y103249D01*
X451087Y103323D01*
X451020D01*
Y130890D01*
X736944D01*
X737117Y130421D01*
X736364Y129777D01*
X735250Y128473D01*
X734354Y127010D01*
X733698Y125425D01*
X733297Y123757D01*
X733162Y122047D01*
X733297Y120337D01*
X733698Y118669D01*
X734354Y117084D01*
X735250Y115622D01*
X736364Y114317D01*
X737669Y113203D01*
X739131Y112307D01*
X740716Y111650D01*
X742384Y111250D01*
X744095Y111115D01*
X745805Y111250D01*
X747473Y111650D01*
X749057Y112307D01*
X750520Y113203D01*
X751825Y114317D01*
X752939Y115622D01*
X753835Y117084D01*
X754491Y118669D01*
X754892Y120337D01*
X755026Y122047D01*
X754892Y123757D01*
X754491Y125425D01*
X753835Y127010D01*
X752939Y128473D01*
X751825Y129777D01*
X751072Y130421D01*
X751244Y130890D01*
X787020D01*
Y85358D01*
D02*
G37*
G36*
X391500Y95465D02*
X391433D01*
X391062Y95391D01*
X390748Y95181D01*
X390538Y94867D01*
X390464Y94496D01*
Y31504D01*
X390538Y31133D01*
X390748Y30819D01*
X391062Y30609D01*
X391433Y30535D01*
X391500D01*
Y2969D01*
X105575D01*
X105402Y3438D01*
X106155Y4081D01*
X107269Y5385D01*
X108166Y6848D01*
X108822Y8433D01*
X109223Y10101D01*
X109357Y11811D01*
X109223Y13521D01*
X108822Y15189D01*
X108166Y16774D01*
X107269Y18237D01*
X106155Y19541D01*
X104851Y20655D01*
X103388Y21552D01*
X101803Y22208D01*
X100135Y22608D01*
X98425Y22743D01*
X96715Y22608D01*
X95047Y22208D01*
X93462Y21552D01*
X92000Y20655D01*
X90695Y19541D01*
X89581Y18237D01*
X88685Y16774D01*
X88028Y15189D01*
X87628Y13521D01*
X87493Y11811D01*
X87628Y10101D01*
X88028Y8433D01*
X88685Y6848D01*
X89581Y5385D01*
X90695Y4081D01*
X91448Y3438D01*
X91275Y2969D01*
X55500D01*
Y48500D01*
X68500Y61500D01*
X77500D01*
Y131031D01*
X315450D01*
X315623Y130562D01*
X314920Y129962D01*
X313779Y128626D01*
X312862Y127129D01*
X312190Y125506D01*
X311780Y123798D01*
X311642Y122047D01*
X311780Y120296D01*
X312190Y118588D01*
X312862Y116966D01*
X313779Y115468D01*
X314920Y114133D01*
X316256Y112992D01*
X317753Y112074D01*
X319376Y111402D01*
X321084Y110992D01*
X322835Y110854D01*
X324586Y110992D01*
X326293Y111402D01*
X327916Y112074D01*
X329414Y112992D01*
X330749Y114133D01*
X331890Y115468D01*
X332808Y116966D01*
X333480Y118588D01*
X333890Y120296D01*
X334028Y122047D01*
X333890Y123798D01*
X333480Y125506D01*
X332808Y127129D01*
X331890Y128626D01*
X330749Y129962D01*
X330046Y130562D01*
X330219Y131031D01*
X391500D01*
Y95465D01*
D02*
G37*
%LPC*%
G36*
X645520Y263260D02*
X645422D01*
X644266Y262950D01*
X643230Y262352D01*
X642384Y261506D01*
X641786Y260470D01*
X641476Y259315D01*
Y259216D01*
X645520D01*
Y263260D01*
D02*
G37*
G36*
X773678Y259966D02*
X773520D01*
Y255467D01*
X778020D01*
Y255625D01*
X777679Y256896D01*
X777021Y258037D01*
X776090Y258967D01*
X774950Y259626D01*
X773678Y259966D01*
D02*
G37*
G36*
X626578Y262960D02*
X625461D01*
X624382Y262671D01*
X623414Y262112D01*
X622624Y261322D01*
X622065Y260354D01*
X621776Y259275D01*
Y258158D01*
X622065Y257079D01*
X622624Y256111D01*
X623414Y255321D01*
X624382Y254762D01*
X625461Y254473D01*
X626578D01*
X627658Y254762D01*
X628625Y255321D01*
X629415Y256111D01*
X629974Y257079D01*
X630263Y258158D01*
Y259275D01*
X629974Y260354D01*
X629415Y261322D01*
X628625Y262112D01*
X627658Y262671D01*
X626578Y262960D01*
D02*
G37*
G36*
X610263D02*
X601776D01*
Y254473D01*
X610263D01*
Y262960D01*
D02*
G37*
G36*
X645520Y258217D02*
X641476D01*
Y258118D01*
X641786Y256963D01*
X642384Y255927D01*
X643230Y255081D01*
X644266Y254483D01*
X645422Y254173D01*
X645520D01*
Y258217D01*
D02*
G37*
G36*
X778020Y254467D02*
X773520D01*
Y249967D01*
X773678D01*
X774950Y250307D01*
X776090Y250965D01*
X777021Y251897D01*
X777679Y253037D01*
X778020Y254308D01*
Y254467D01*
D02*
G37*
G36*
X772520Y259966D02*
X772361D01*
X771090Y259626D01*
X769950Y258967D01*
X769019Y258037D01*
X768360Y256896D01*
X768020Y255625D01*
Y255509D01*
X767637Y255433D01*
X767240Y255168D01*
X753513Y241440D01*
X707526D01*
X706601Y242366D01*
X706540Y242455D01*
X706477Y242575D01*
X706416Y242723D01*
X706362Y242899D01*
X706329Y243043D01*
X706509Y243717D01*
X705533D01*
X705570Y243239D01*
X705615Y242965D01*
X705672Y242713D01*
X705744Y242482D01*
X705829Y242273D01*
X705928Y242086D01*
X706040Y241921D01*
X706166Y241777D01*
X705459Y241070D01*
X705315Y241196D01*
X705150Y241309D01*
X704963Y241407D01*
X704754Y241492D01*
X704523Y241564D01*
X704271Y241622D01*
X704082Y241652D01*
X703970Y241497D01*
X703832Y241278D01*
X703720Y241064D01*
X703632Y240856D01*
X703570Y240654D01*
X703532Y240458D01*
X703520Y240267D01*
X702520D01*
X702507Y240458D01*
X702470Y240654D01*
X702407Y240856D01*
X702320Y241064D01*
X702207Y241278D01*
X702070Y241497D01*
X701907Y241722D01*
X701720Y241952D01*
X701270Y242431D01*
X703759D01*
X705045Y243717D01*
X699530D01*
X699758Y242866D01*
X700219Y242068D01*
X700871Y241416D01*
X701509Y241047D01*
X701588Y240921D01*
X701674Y240759D01*
X701736Y240612D01*
X701776Y240481D01*
X701796Y240376D01*
Y218557D01*
X701776Y218452D01*
X701736Y218321D01*
X701674Y218175D01*
X701588Y218012D01*
X701509Y217886D01*
X700871Y217517D01*
X700219Y216866D01*
X699758Y216068D01*
X699530Y215216D01*
X706509D01*
X706281Y216068D01*
X705820Y216866D01*
X705169Y217517D01*
X704530Y217886D01*
X704451Y218012D01*
X704365Y218175D01*
X704304Y218321D01*
X704263Y218452D01*
X704243Y218557D01*
Y240376D01*
X704246Y240390D01*
X704286Y240454D01*
X704431Y240572D01*
X704599Y240642D01*
X704785Y240661D01*
X704859Y240644D01*
X704870Y240636D01*
X706154Y239351D01*
X706552Y239086D01*
X707020Y238993D01*
X754020D01*
X754488Y239086D01*
X754885Y239351D01*
X768147Y252613D01*
X768643Y252548D01*
X769019Y251897D01*
X769950Y250965D01*
X771090Y250307D01*
X772361Y249967D01*
X772520D01*
Y254966D01*
Y259966D01*
D02*
G37*
G36*
X646618Y263260D02*
X646520D01*
Y258717D01*
Y254173D01*
X646618D01*
X647773Y254483D01*
X648809Y255081D01*
X649655Y255927D01*
X650099Y256695D01*
X650100Y256696D01*
X650398Y256926D01*
X650680Y257119D01*
X650936Y257270D01*
X651164Y257380D01*
X651361Y257452D01*
X651524Y257490D01*
X651564Y257493D01*
X688013D01*
X699439Y246067D01*
X699499Y245978D01*
X699563Y245858D01*
X699623Y245710D01*
X699677Y245535D01*
X699711Y245390D01*
X699530Y244717D01*
X700506D01*
X700469Y245194D01*
X700425Y245468D01*
X700367Y245720D01*
X700295Y245951D01*
X700210Y246160D01*
X700112Y246347D01*
X699999Y246512D01*
X699873Y246656D01*
X700581Y247363D01*
X700724Y247237D01*
X700889Y247125D01*
X701077Y247026D01*
X701286Y246941D01*
X701516Y246869D01*
X701768Y246811D01*
X702042Y246767D01*
X702338Y246737D01*
X702520Y246731D01*
Y247706D01*
X701847Y247526D01*
X701702Y247559D01*
X701526Y247613D01*
X701378Y247674D01*
X701258Y247737D01*
X701169Y247797D01*
X689385Y259582D01*
X688988Y259847D01*
X688520Y259940D01*
X651564D01*
X651524Y259943D01*
X651361Y259981D01*
X651164Y260053D01*
X650936Y260163D01*
X650680Y260314D01*
X650398Y260507D01*
X650100Y260737D01*
X650099Y260738D01*
X649655Y261506D01*
X648809Y262352D01*
X647773Y262950D01*
X646618Y263260D01*
D02*
G37*
G36*
X703520Y247706D02*
Y244717D01*
X706509D01*
X706281Y245567D01*
X705820Y246366D01*
X705169Y247017D01*
X704371Y247478D01*
X703520Y247706D01*
D02*
G37*
G36*
X702520Y246241D02*
X700995Y244717D01*
X702520D01*
Y246241D01*
D02*
G37*
G36*
X777720Y246166D02*
X768320D01*
Y236767D01*
X777720D01*
Y246166D01*
D02*
G37*
G36*
X527020Y239706D02*
X526169Y239478D01*
X525371Y239017D01*
X524719Y238366D01*
X524258Y237567D01*
X524030Y236717D01*
X527020D01*
Y239706D01*
D02*
G37*
G36*
X548520Y239206D02*
Y236216D01*
X551509D01*
X551281Y237068D01*
X550820Y237866D01*
X550169Y238517D01*
X549371Y238978D01*
X548520Y239206D01*
D02*
G37*
G36*
X527020Y235717D02*
X524030D01*
X524258Y234866D01*
X524719Y234068D01*
X525371Y233416D01*
X526169Y232955D01*
X527020Y232727D01*
Y235717D01*
D02*
G37*
G36*
X551509Y235216D02*
X548520D01*
Y232227D01*
X549371Y232455D01*
X550169Y232916D01*
X550820Y233568D01*
X551281Y234366D01*
X551509Y235216D01*
D02*
G37*
G36*
X528020Y239706D02*
Y236216D01*
Y232727D01*
X528871Y232955D01*
X529669Y233416D01*
X530320Y234068D01*
X530391Y234190D01*
X530609Y234300D01*
X530796Y234378D01*
X530967Y234437D01*
X531111Y234476D01*
X531209Y234493D01*
X544179D01*
X544284Y234473D01*
X544415Y234433D01*
X544562Y234371D01*
X544724Y234285D01*
X544850Y234206D01*
X545219Y233568D01*
X545871Y232916D01*
X546669Y232455D01*
X547520Y232227D01*
Y235717D01*
Y239206D01*
X546669Y238978D01*
X545871Y238517D01*
X545219Y237866D01*
X544850Y237227D01*
X544724Y237148D01*
X544562Y237062D01*
X544415Y237000D01*
X544284Y236960D01*
X544179Y236940D01*
X531407D01*
X531304Y236961D01*
X531193Y236999D01*
X531074Y237057D01*
X530948Y237138D01*
X530882Y237190D01*
X530781Y237567D01*
X530320Y238366D01*
X529669Y239017D01*
X528871Y239478D01*
X528020Y239706D01*
D02*
G37*
G36*
X636578Y262960D02*
X635461D01*
X634382Y262671D01*
X633414Y262112D01*
X632624Y261322D01*
X632065Y260354D01*
X631776Y259275D01*
Y258158D01*
X632065Y257079D01*
X632624Y256111D01*
X632995Y255740D01*
X633032Y255684D01*
X633394Y255318D01*
X633999Y254636D01*
X634229Y254338D01*
X634422Y254057D01*
X634573Y253800D01*
X634683Y253572D01*
X634755Y253375D01*
X634793Y253212D01*
X634796Y253172D01*
Y252716D01*
X634889Y252248D01*
X635154Y251851D01*
X643796Y243210D01*
Y223917D01*
X643598D01*
X642785Y223698D01*
X642055Y223277D01*
X641459Y222681D01*
X641038Y221952D01*
X640820Y221138D01*
Y220295D01*
X641038Y219481D01*
X641459Y218752D01*
X642055Y218156D01*
X642785Y217735D01*
X643598Y217516D01*
X644441D01*
X645255Y217735D01*
X645985Y218156D01*
X646580Y218752D01*
X647002Y219481D01*
X647220Y220295D01*
Y221138D01*
X647002Y221952D01*
X646580Y222681D01*
X646196Y223066D01*
X646243Y223302D01*
Y243717D01*
X646150Y244185D01*
X645885Y244582D01*
X637248Y253219D01*
X637284Y253375D01*
X637356Y253572D01*
X637466Y253800D01*
X637617Y254057D01*
X637810Y254338D01*
X638040Y254636D01*
X638645Y255318D01*
X639007Y255684D01*
X639045Y255740D01*
X639415Y256111D01*
X639974Y257079D01*
X640263Y258158D01*
Y259275D01*
X639974Y260354D01*
X639415Y261322D01*
X638625Y262112D01*
X637657Y262671D01*
X636578Y262960D01*
D02*
G37*
G36*
X582270Y261950D02*
X467520D01*
X466856Y261818D01*
X466294Y261442D01*
X459732Y254880D01*
X459692Y254847D01*
X459546Y254743D01*
X459403Y254655D01*
X459261Y254583D01*
X459121Y254526D01*
X458981Y254483D01*
X458840Y254453D01*
X458698Y254436D01*
X458521Y254430D01*
X458464Y254416D01*
X458098D01*
X457284Y254199D01*
X456555Y253777D01*
X455959Y253181D01*
X455538Y252452D01*
X455320Y251638D01*
Y250795D01*
X455538Y249981D01*
X455959Y249252D01*
X456555Y248656D01*
X457284Y248235D01*
X458098Y248017D01*
X458941D01*
X459755Y248235D01*
X460485Y248656D01*
X461080Y249252D01*
X461502Y249981D01*
X461720Y250795D01*
Y251161D01*
X461733Y251218D01*
X461739Y251395D01*
X461756Y251537D01*
X461786Y251678D01*
X461830Y251818D01*
X461886Y251958D01*
X461958Y252100D01*
X462046Y252243D01*
X462150Y252389D01*
X462184Y252429D01*
X468238Y258483D01*
X581552D01*
X601786Y238249D01*
Y223165D01*
X601782Y223113D01*
X601752Y222936D01*
X601713Y222772D01*
X601663Y222621D01*
X601604Y222482D01*
X601536Y222353D01*
X601458Y222232D01*
X601369Y222119D01*
X601248Y221989D01*
X601218Y221940D01*
X600959Y221681D01*
X600538Y220952D01*
X600320Y220138D01*
Y219295D01*
X600538Y218481D01*
X600959Y217752D01*
X601555Y217156D01*
X602284Y216735D01*
X603098Y216516D01*
X603941D01*
X604755Y216735D01*
X605484Y217156D01*
X606080Y217752D01*
X606502Y218481D01*
X606720Y219295D01*
Y220138D01*
X606502Y220952D01*
X606080Y221681D01*
X605822Y221940D01*
X605791Y221989D01*
X605670Y222119D01*
X605582Y222232D01*
X605504Y222353D01*
X605435Y222482D01*
X605376Y222621D01*
X605327Y222772D01*
X605287Y222936D01*
X605258Y223113D01*
X605253Y223165D01*
Y238966D01*
X605121Y239630D01*
X604745Y240192D01*
X583495Y261442D01*
X582933Y261818D01*
X582270Y261950D01*
D02*
G37*
G36*
X559020Y255950D02*
X559020Y255950D01*
X476520D01*
X475856Y255818D01*
X475294Y255442D01*
X474732Y254880D01*
X474692Y254847D01*
X474546Y254743D01*
X474403Y254655D01*
X474261Y254583D01*
X474121Y254526D01*
X473981Y254483D01*
X473840Y254453D01*
X473698Y254436D01*
X473521Y254430D01*
X473464Y254416D01*
X473098D01*
X472285Y254199D01*
X471555Y253777D01*
X470959Y253181D01*
X470538Y252452D01*
X470320Y251638D01*
Y250795D01*
X470538Y249981D01*
X470959Y249252D01*
X471555Y248656D01*
X472285Y248235D01*
X473098Y248017D01*
X473941D01*
X474755Y248235D01*
X475485Y248656D01*
X476080Y249252D01*
X476502Y249981D01*
X476720Y250795D01*
Y251161D01*
X476733Y251218D01*
X476739Y251395D01*
X476756Y251537D01*
X476786Y251678D01*
X476829Y251818D01*
X476886Y251958D01*
X476958Y252100D01*
X477046Y252243D01*
X477150Y252389D01*
X477183Y252429D01*
X477238Y252483D01*
X558302D01*
X593356Y217429D01*
X593389Y217389D01*
X593494Y217243D01*
X593581Y217100D01*
X593653Y216958D01*
X593710Y216818D01*
X593753Y216678D01*
X593783Y216537D01*
X593801Y216394D01*
X593807Y216218D01*
X593820Y216161D01*
Y215795D01*
X594038Y214981D01*
X594459Y214252D01*
X595055Y213656D01*
X595785Y213235D01*
X596598Y213017D01*
X597441D01*
X598255Y213235D01*
X598984Y213656D01*
X599580Y214252D01*
X600002Y214981D01*
X600220Y215795D01*
Y216638D01*
X600002Y217452D01*
X599580Y218181D01*
X598984Y218777D01*
X598255Y219198D01*
X597441Y219416D01*
X597075D01*
X597019Y219430D01*
X596842Y219436D01*
X596699Y219453D01*
X596559Y219483D01*
X596419Y219526D01*
X596278Y219583D01*
X596137Y219655D01*
X595993Y219743D01*
X595847Y219847D01*
X595807Y219880D01*
X560245Y255442D01*
X560245Y255442D01*
X559683Y255818D01*
X559020Y255950D01*
D02*
G37*
G36*
X702520Y214216D02*
X700995D01*
X702520Y212692D01*
Y214216D01*
D02*
G37*
G36*
X706509D02*
X703520D01*
Y211227D01*
X704371Y211455D01*
X705169Y211916D01*
X705820Y212567D01*
X706281Y213366D01*
X706509Y214216D01*
D02*
G37*
G36*
X700505D02*
X699530D01*
X699711Y213544D01*
X699677Y213399D01*
X699623Y213223D01*
X699563Y213075D01*
X699499Y212954D01*
X699439Y212866D01*
X693654Y207082D01*
X693654Y207082D01*
X684013Y197440D01*
X641212D01*
X640907Y197837D01*
X641009Y198216D01*
X638020D01*
Y195227D01*
X638871Y195455D01*
X638976Y195516D01*
X638978Y195515D01*
X639038Y195468D01*
X639154Y195351D01*
X639551Y195086D01*
X640020Y194993D01*
X684520D01*
X684988Y195086D01*
X685385Y195351D01*
X692834Y202801D01*
X693296Y202609D01*
Y171557D01*
X693276Y171452D01*
X693236Y171321D01*
X693174Y171175D01*
X693088Y171012D01*
X693009Y170886D01*
X692371Y170517D01*
X691719Y169866D01*
X691258Y169068D01*
X691030Y168217D01*
X698009D01*
X697781Y169068D01*
X697320Y169866D01*
X696669Y170517D01*
X696030Y170886D01*
X695951Y171012D01*
X695865Y171175D01*
X695804Y171321D01*
X695763Y171452D01*
X695743Y171557D01*
Y205192D01*
X695754Y205291D01*
X695779Y205421D01*
X695813Y205544D01*
X695856Y205663D01*
X695909Y205777D01*
X695973Y205889D01*
X696047Y205998D01*
X696110Y206076D01*
X701169Y211136D01*
X701258Y211196D01*
X701379Y211260D01*
X701526Y211320D01*
X701702Y211374D01*
X701847Y211407D01*
X702520Y211227D01*
Y212203D01*
X702042Y212166D01*
X701768Y212122D01*
X701516Y212064D01*
X701286Y211992D01*
X701077Y211907D01*
X700889Y211809D01*
X700724Y211696D01*
X700581Y211570D01*
X699873Y212277D01*
X699999Y212421D01*
X700112Y212586D01*
X700210Y212773D01*
X700295Y212982D01*
X700367Y213213D01*
X700425Y213465D01*
X700469Y213739D01*
X700499Y214035D01*
X700505Y214216D01*
D02*
G37*
G36*
X584020Y213706D02*
Y210717D01*
X587009D01*
X586781Y211567D01*
X586320Y212366D01*
X585669Y213017D01*
X584871Y213478D01*
X584020Y213706D01*
D02*
G37*
G36*
X638020Y202206D02*
Y199216D01*
X641009D01*
X640781Y200067D01*
X640320Y200866D01*
X639669Y201517D01*
X638871Y201978D01*
X638020Y202206D01*
D02*
G37*
G36*
X637020D02*
X636169Y201978D01*
X635371Y201517D01*
X634719Y200866D01*
X634258Y200067D01*
X634030Y199216D01*
X637020D01*
Y202206D01*
D02*
G37*
G36*
Y198216D02*
X635495D01*
X637020Y196692D01*
Y198216D01*
D02*
G37*
G36*
X635005D02*
X634030D01*
X634210Y197544D01*
X634177Y197398D01*
X634123Y197223D01*
X634063Y197075D01*
X633999Y196955D01*
X633939Y196866D01*
X628013Y190940D01*
X592860D01*
X592755Y190960D01*
X592625Y191000D01*
X592478Y191062D01*
X592315Y191148D01*
X592189Y191227D01*
X591820Y191866D01*
X591169Y192517D01*
X590371Y192978D01*
X589520Y193206D01*
Y189716D01*
Y187692D01*
X590805Y188977D01*
Y191466D01*
X591047Y191229D01*
X591514Y190829D01*
X591739Y190666D01*
X591959Y190529D01*
X592172Y190417D01*
X592380Y190329D01*
X592582Y190267D01*
X592778Y190229D01*
X592969Y190217D01*
Y189216D01*
X592778Y189204D01*
X592582Y189166D01*
X592380Y189104D01*
X592172Y189016D01*
X591959Y188904D01*
X591739Y188767D01*
X591584Y188654D01*
X591615Y188465D01*
X591672Y188213D01*
X591744Y187982D01*
X591829Y187774D01*
X591928Y187586D01*
X592040Y187421D01*
X592166Y187277D01*
X591459Y186570D01*
X591315Y186696D01*
X591150Y186809D01*
X590963Y186907D01*
X590754Y186992D01*
X590523Y187064D01*
X590271Y187122D01*
X589997Y187166D01*
X589701Y187196D01*
X589520Y187202D01*
Y186227D01*
X590193Y186407D01*
X590338Y186374D01*
X590513Y186320D01*
X590661Y186260D01*
X590782Y186196D01*
X590870Y186136D01*
X595296Y181710D01*
Y164557D01*
X595276Y164452D01*
X595236Y164321D01*
X595174Y164174D01*
X595088Y164012D01*
X595009Y163886D01*
X594371Y163517D01*
X593719Y162866D01*
X593258Y162067D01*
X593030Y161216D01*
X600009D01*
X599781Y162067D01*
X599320Y162866D01*
X598669Y163517D01*
X598030Y163886D01*
X597951Y164012D01*
X597865Y164174D01*
X597804Y164321D01*
X597763Y164452D01*
X597743Y164557D01*
Y182217D01*
X597650Y182685D01*
X597385Y183082D01*
X592600Y187866D01*
X592593Y187878D01*
X592575Y187952D01*
X592594Y188137D01*
X592664Y188305D01*
X592782Y188450D01*
X592847Y188490D01*
X592860Y188493D01*
X628520D01*
X628988Y188586D01*
X629385Y188851D01*
X635669Y195136D01*
X635758Y195196D01*
X635879Y195260D01*
X636026Y195320D01*
X636202Y195374D01*
X636347Y195407D01*
X637020Y195227D01*
Y196203D01*
X636542Y196166D01*
X636268Y196122D01*
X636016Y196064D01*
X635785Y195992D01*
X635577Y195907D01*
X635390Y195809D01*
X635224Y195696D01*
X635080Y195570D01*
X634373Y196277D01*
X634499Y196421D01*
X634612Y196586D01*
X634710Y196774D01*
X634796Y196982D01*
X634867Y197213D01*
X634925Y197465D01*
X634969Y197739D01*
X635000Y198035D01*
X635005Y198216D01*
D02*
G37*
G36*
X583020Y213706D02*
X582169Y213478D01*
X581371Y213017D01*
X580719Y212366D01*
X580258Y211567D01*
X580020Y210677D01*
Y210403D01*
X579889Y210316D01*
X557870Y188297D01*
X557782Y188237D01*
X557661Y188173D01*
X557513Y188113D01*
X557338Y188059D01*
X557193Y188026D01*
X556520Y188206D01*
Y187230D01*
X556997Y187267D01*
X557271Y187311D01*
X557523Y187369D01*
X557754Y187441D01*
X557963Y187526D01*
X558150Y187625D01*
X558315Y187737D01*
X558459Y187863D01*
X559166Y187156D01*
X559040Y187012D01*
X558928Y186847D01*
X558829Y186660D01*
X558744Y186451D01*
X558672Y186220D01*
X558615Y185968D01*
X558570Y185694D01*
X558540Y185398D01*
X558534Y185216D01*
X559509D01*
X559329Y185890D01*
X559362Y186035D01*
X559416Y186210D01*
X559477Y186358D01*
X559540Y186478D01*
X559600Y186567D01*
X580910Y207876D01*
X581371Y207416D01*
X582009Y207047D01*
X582088Y206921D01*
X582174Y206759D01*
X582236Y206612D01*
X582276Y206481D01*
X582296Y206376D01*
Y195217D01*
X582389Y194748D01*
X582654Y194351D01*
X585439Y191567D01*
X585499Y191479D01*
X585563Y191358D01*
X585623Y191210D01*
X585677Y191035D01*
X585710Y190890D01*
X585530Y190217D01*
X586506D01*
X586469Y190694D01*
X586425Y190968D01*
X586367Y191220D01*
X586296Y191451D01*
X586210Y191660D01*
X586112Y191847D01*
X585999Y192012D01*
X585873Y192156D01*
X586581Y192863D01*
X586724Y192737D01*
X586890Y192624D01*
X587077Y192526D01*
X587286Y192441D01*
X587516Y192369D01*
X587768Y192311D01*
X588042Y192267D01*
X588338Y192237D01*
X588520Y192231D01*
Y193206D01*
X587847Y193026D01*
X587702Y193059D01*
X587526Y193113D01*
X587379Y193174D01*
X587258Y193237D01*
X587169Y193297D01*
X584743Y195723D01*
Y206376D01*
X584763Y206481D01*
X584804Y206612D01*
X584866Y206759D01*
X584951Y206921D01*
X585030Y207047D01*
X585669Y207416D01*
X586320Y208067D01*
X586781Y208866D01*
X587009Y209717D01*
X583520D01*
Y210216D01*
X583020D01*
Y213706D01*
D02*
G37*
G36*
X616578Y262960D02*
X615461D01*
X614382Y262671D01*
X613414Y262112D01*
X612624Y261322D01*
X612066Y260354D01*
X611776Y259275D01*
Y258158D01*
X612066Y257079D01*
X612624Y256111D01*
X612995Y255740D01*
X613033Y255683D01*
X613420Y255293D01*
X613753Y254937D01*
X614305Y254273D01*
X614505Y253992D01*
X614665Y253733D01*
X614782Y253508D01*
X614856Y253319D01*
X614893Y253173D01*
X614898Y253122D01*
Y198211D01*
X614783Y198154D01*
X614633Y198100D01*
X614450Y198049D01*
X614232Y198005D01*
X613991Y197972D01*
X613384Y197932D01*
X613040Y197930D01*
X612974Y197916D01*
X612598D01*
X611785Y197698D01*
X611055Y197277D01*
X610459Y196681D01*
X610038Y195952D01*
X609820Y195138D01*
Y194295D01*
X610038Y193481D01*
X610459Y192752D01*
X611055Y192156D01*
X611785Y191735D01*
X612598Y191516D01*
X613441D01*
X614255Y191735D01*
X614985Y192156D01*
X615580Y192752D01*
X616002Y193481D01*
X616220Y194295D01*
Y194671D01*
X616233Y194737D01*
X616236Y195081D01*
X616275Y195688D01*
X616309Y195929D01*
X616352Y196146D01*
X616403Y196330D01*
X616458Y196480D01*
X616514Y196595D01*
X616566Y196677D01*
X616813Y196923D01*
X617056Y197287D01*
X617141Y197716D01*
X617141Y197717D01*
Y253122D01*
X617146Y253173D01*
X617183Y253319D01*
X617258Y253508D01*
X617374Y253733D01*
X617534Y253992D01*
X617730Y254267D01*
X618628Y255302D01*
X619006Y255683D01*
X619044Y255740D01*
X619415Y256111D01*
X619974Y257079D01*
X620263Y258158D01*
Y259275D01*
X619974Y260354D01*
X619415Y261322D01*
X618625Y262112D01*
X617658Y262671D01*
X616578Y262960D01*
D02*
G37*
G36*
X588520Y191741D02*
X586995Y190217D01*
X588520D01*
Y191741D01*
D02*
G37*
G36*
X746103Y196869D02*
X744779D01*
X743499Y196527D01*
X742352Y195864D01*
X741415Y194928D01*
X740753Y193780D01*
X740410Y192501D01*
Y191176D01*
X740753Y189897D01*
X741415Y188750D01*
X742352Y187813D01*
X743499Y187151D01*
X744779Y186808D01*
X746103D01*
X747383Y187151D01*
X748530Y187813D01*
X749467Y188750D01*
X750129Y189897D01*
X750472Y191176D01*
Y192501D01*
X750129Y193780D01*
X749467Y194928D01*
X748530Y195864D01*
X747383Y196527D01*
X746103Y196869D01*
D02*
G37*
G36*
X588520Y189216D02*
X585530D01*
X585758Y188366D01*
X586219Y187567D01*
X586871Y186916D01*
X587669Y186455D01*
X588520Y186227D01*
Y189216D01*
D02*
G37*
G36*
X556520Y186741D02*
Y185216D01*
X558044D01*
X556520Y186741D01*
D02*
G37*
G36*
X555520Y188206D02*
X554669Y187978D01*
X553871Y187517D01*
X553219Y186866D01*
X552758Y186067D01*
X552530Y185216D01*
X555520D01*
Y188206D01*
D02*
G37*
G36*
X559509Y184216D02*
X556520D01*
Y181227D01*
X557371Y181455D01*
X558169Y181916D01*
X558820Y182568D01*
X559281Y183366D01*
X559509Y184216D01*
D02*
G37*
G36*
X555520D02*
X552530D01*
X552758Y183366D01*
X553219Y182568D01*
X553871Y181916D01*
X554669Y181455D01*
X555520Y181227D01*
Y184216D01*
D02*
G37*
G36*
X669941Y189417D02*
X669098D01*
X668285Y189199D01*
X667555Y188777D01*
X666959Y188181D01*
X666538Y187452D01*
X666320Y186638D01*
Y186271D01*
X666306Y186214D01*
X666287Y185583D01*
X666261Y185333D01*
X666224Y185102D01*
X666177Y184898D01*
X666123Y184723D01*
X666063Y184575D01*
X665999Y184455D01*
X665939Y184366D01*
X661513Y179940D01*
X631360D01*
X631255Y179960D01*
X631125Y180000D01*
X630978Y180062D01*
X630815Y180148D01*
X630638Y180259D01*
X630456Y180390D01*
X630030Y180755D01*
X629805Y180976D01*
X629749Y181012D01*
X629485Y181277D01*
X628755Y181699D01*
X627941Y181916D01*
X627098D01*
X626285Y181699D01*
X625555Y181277D01*
X624959Y180681D01*
X624538Y179952D01*
X624320Y179138D01*
Y178295D01*
X624538Y177481D01*
X624959Y176752D01*
X625555Y176156D01*
X626285Y175735D01*
X627098Y175516D01*
X627941D01*
X628755Y175735D01*
X629485Y176156D01*
X629744Y176415D01*
X629794Y176447D01*
X630254Y176879D01*
X630449Y177037D01*
X630638Y177174D01*
X630815Y177285D01*
X630978Y177371D01*
X631124Y177433D01*
X631255Y177473D01*
X631360Y177493D01*
X662020D01*
X662488Y177586D01*
X662885Y177851D01*
X667669Y182636D01*
X667758Y182696D01*
X667879Y182760D01*
X668026Y182820D01*
X668202Y182874D01*
X668405Y182921D01*
X668627Y182957D01*
X669187Y183000D01*
X669502Y183003D01*
X669566Y183017D01*
X669941D01*
X670755Y183235D01*
X671485Y183656D01*
X672080Y184252D01*
X672502Y184981D01*
X672720Y185795D01*
Y186638D01*
X672502Y187452D01*
X672080Y188181D01*
X671485Y188777D01*
X670755Y189199D01*
X669941Y189417D01*
D02*
G37*
G36*
X556520Y178706D02*
Y175716D01*
X559509D01*
X559281Y176567D01*
X558820Y177366D01*
X558169Y178017D01*
X557371Y178478D01*
X556520Y178706D01*
D02*
G37*
G36*
X559509Y174716D02*
X556520D01*
Y171727D01*
X557371Y171955D01*
X558169Y172416D01*
X558820Y173067D01*
X559281Y173866D01*
X559509Y174716D01*
D02*
G37*
G36*
X555520Y178706D02*
X554669Y178478D01*
X553871Y178017D01*
X553219Y177366D01*
X552850Y176727D01*
X552724Y176648D01*
X552562Y176562D01*
X552415Y176500D01*
X552284Y176460D01*
X552179Y176440D01*
X500520D01*
X500051Y176347D01*
X499654Y176082D01*
X480870Y157297D01*
X480782Y157237D01*
X480661Y157174D01*
X480513Y157113D01*
X480338Y157059D01*
X480193Y157026D01*
X479520Y157206D01*
Y156230D01*
X479997Y156267D01*
X480271Y156311D01*
X480523Y156369D01*
X480754Y156441D01*
X480963Y156526D01*
X481150Y156624D01*
X481315Y156737D01*
X481459Y156863D01*
X482166Y156156D01*
X482040Y156012D01*
X481928Y155847D01*
X481829Y155660D01*
X481744Y155451D01*
X481672Y155220D01*
X481615Y154968D01*
X481570Y154694D01*
X481540Y154398D01*
X481534Y154217D01*
X482509D01*
X482329Y154890D01*
X482362Y155035D01*
X482416Y155210D01*
X482477Y155358D01*
X482540Y155479D01*
X482600Y155567D01*
X501026Y173993D01*
X552179D01*
X552284Y173973D01*
X552415Y173933D01*
X552562Y173871D01*
X552724Y173785D01*
X552850Y173706D01*
X553219Y173067D01*
X553871Y172416D01*
X554669Y171955D01*
X555520Y171727D01*
Y175216D01*
Y178706D01*
D02*
G37*
G36*
X698009Y167217D02*
X695020D01*
Y164227D01*
X695871Y164455D01*
X696669Y164916D01*
X697320Y165568D01*
X697781Y166366D01*
X698009Y167217D01*
D02*
G37*
G36*
X694020D02*
X691030D01*
X691258Y166366D01*
X691719Y165568D01*
X692371Y164916D01*
X693169Y164455D01*
X694020Y164227D01*
Y167217D01*
D02*
G37*
G36*
X738218Y174822D02*
X736916D01*
X735640Y174568D01*
X734438Y174070D01*
X733356Y173347D01*
X732436Y172427D01*
X731713Y171345D01*
X731215Y170143D01*
X730962Y168867D01*
Y167566D01*
X731215Y166290D01*
X731713Y165088D01*
X732436Y164006D01*
X733356Y163086D01*
X734438Y162363D01*
X735640Y161865D01*
X736916Y161611D01*
X738218D01*
X739494Y161865D01*
X740696Y162363D01*
X741778Y163086D01*
X742698Y164006D01*
X743421Y165088D01*
X743919Y166290D01*
X744172Y167566D01*
Y168867D01*
X743919Y170143D01*
X743421Y171345D01*
X742698Y172427D01*
X741778Y173347D01*
X740696Y174070D01*
X739494Y174568D01*
X738218Y174822D01*
D02*
G37*
G36*
X600009Y160216D02*
X597020D01*
Y157227D01*
X597871Y157455D01*
X598669Y157916D01*
X599320Y158568D01*
X599781Y159366D01*
X600009Y160216D01*
D02*
G37*
G36*
X596020D02*
X593030D01*
X593258Y159366D01*
X593719Y158568D01*
X594371Y157916D01*
X595169Y157455D01*
X596020Y157227D01*
Y160216D01*
D02*
G37*
G36*
X479520Y155741D02*
Y154217D01*
X481044D01*
X479520Y155741D01*
D02*
G37*
G36*
X478520Y157206D02*
X477669Y156978D01*
X476871Y156517D01*
X476219Y155866D01*
X475758Y155068D01*
X475530Y154217D01*
X478520D01*
Y157206D01*
D02*
G37*
G36*
X482509Y153217D02*
X479520D01*
Y150227D01*
X480371Y150455D01*
X481169Y150916D01*
X481820Y151567D01*
X482281Y152366D01*
X482509Y153217D01*
D02*
G37*
G36*
X478520D02*
X475530D01*
X475758Y152366D01*
X476219Y151567D01*
X476871Y150916D01*
X477669Y150455D01*
X478520Y150227D01*
Y153217D01*
D02*
G37*
G36*
X746103Y149625D02*
X744779D01*
X743499Y149282D01*
X742352Y148620D01*
X741415Y147683D01*
X740753Y146536D01*
X740410Y145257D01*
Y143932D01*
X740753Y142653D01*
X741415Y141506D01*
X742352Y140569D01*
X743499Y139907D01*
X744779Y139564D01*
X746103D01*
X747383Y139907D01*
X748530Y140569D01*
X749467Y141506D01*
X750129Y142653D01*
X750472Y143932D01*
Y145257D01*
X750129Y146536D01*
X749467Y147683D01*
X748530Y148620D01*
X747383Y149282D01*
X746103Y149625D01*
D02*
G37*
%LPD*%
G36*
X769424Y253214D02*
X769359Y253326D01*
X769280Y253426D01*
X769185Y253514D01*
X769075Y253590D01*
X768951Y253655D01*
X768812Y253708D01*
X768657Y253749D01*
X768488Y253779D01*
X768304Y253796D01*
X768106Y253802D01*
Y254802D01*
X768271Y254809D01*
X768420Y254828D01*
X768554Y254860D01*
X768672Y254905D01*
X768774Y254963D01*
X768860Y255034D01*
X768931Y255117D01*
X768986Y255214D01*
X769025Y255323D01*
X769048Y255445D01*
X769424Y253214D01*
D02*
G37*
G36*
X703532Y218475D02*
X703570Y218279D01*
X703632Y218077D01*
X703720Y217869D01*
X703832Y217655D01*
X703970Y217436D01*
X704132Y217211D01*
X704320Y216981D01*
X704770Y216502D01*
X701270D01*
X701507Y216744D01*
X701907Y217211D01*
X702070Y217436D01*
X702207Y217655D01*
X702320Y217869D01*
X702407Y218077D01*
X702470Y218279D01*
X702507Y218475D01*
X702520Y218666D01*
X703520D01*
X703532Y218475D01*
D02*
G37*
G36*
X648931Y260821D02*
X649645Y260187D01*
X649978Y259929D01*
X650296Y259712D01*
X650599Y259533D01*
X650886Y259395D01*
X651157Y259296D01*
X651413Y259236D01*
X651653Y259216D01*
Y258217D01*
X651413Y258197D01*
X651157Y258137D01*
X650886Y258038D01*
X650599Y257900D01*
X650296Y257721D01*
X649978Y257504D01*
X649645Y257246D01*
X648931Y256612D01*
X648550Y256236D01*
Y261197D01*
X648931Y260821D01*
D02*
G37*
G36*
X529796Y237316D02*
X529976Y237085D01*
X530159Y236882D01*
X530344Y236705D01*
X530533Y236556D01*
X530725Y236434D01*
X530919Y236339D01*
X531116Y236271D01*
X531317Y236230D01*
X531520Y236216D01*
X531311Y235216D01*
X531142Y235206D01*
X530958Y235174D01*
X530758Y235120D01*
X530542Y235045D01*
X530310Y234949D01*
X529801Y234691D01*
X529522Y234531D01*
X528919Y234145D01*
X529619Y237574D01*
X529796Y237316D01*
D02*
G37*
G36*
X546234Y233966D02*
X545992Y234204D01*
X545525Y234604D01*
X545300Y234767D01*
X545081Y234904D01*
X544867Y235016D01*
X544659Y235104D01*
X544457Y235167D01*
X544261Y235204D01*
X544070Y235216D01*
Y236216D01*
X544261Y236229D01*
X544457Y236266D01*
X544659Y236329D01*
X544867Y236417D01*
X545081Y236529D01*
X545300Y236666D01*
X545525Y236829D01*
X545756Y237017D01*
X546234Y237467D01*
Y233966D01*
D02*
G37*
G36*
X638124Y255806D02*
X637490Y255092D01*
X637233Y254758D01*
X637015Y254440D01*
X636836Y254137D01*
X636698Y253850D01*
X636599Y253579D01*
X636540Y253323D01*
X636520Y253083D01*
X635520D01*
X635500Y253323D01*
X635440Y253579D01*
X635341Y253850D01*
X635203Y254137D01*
X635025Y254440D01*
X634807Y254758D01*
X634549Y255092D01*
X633916Y255806D01*
X633539Y256186D01*
X638500D01*
X638124Y255806D01*
D02*
G37*
G36*
X461908Y253190D02*
X461737Y253009D01*
X461585Y252825D01*
X461450Y252638D01*
X461334Y252447D01*
X461236Y252254D01*
X461157Y252057D01*
X461095Y251858D01*
X461052Y251656D01*
X461027Y251450D01*
X461020Y251241D01*
X458545Y253716D01*
X458753Y253723D01*
X458959Y253749D01*
X459161Y253792D01*
X459361Y253854D01*
X459557Y253933D01*
X459750Y254031D01*
X459941Y254147D01*
X460128Y254281D01*
X460312Y254434D01*
X460493Y254605D01*
X461908Y253190D01*
D02*
G37*
G36*
X604527Y223259D02*
X604550Y223021D01*
X604587Y222794D01*
X604640Y222577D01*
X604707Y222371D01*
X604790Y222176D01*
X604887Y221991D01*
X605000Y221817D01*
X605127Y221654D01*
X605270Y221502D01*
X601770D01*
X601912Y221654D01*
X602040Y221817D01*
X602152Y221991D01*
X602250Y222176D01*
X602332Y222371D01*
X602400Y222577D01*
X602452Y222794D01*
X602490Y223021D01*
X602512Y223259D01*
X602520Y223508D01*
X604520D01*
X604527Y223259D01*
D02*
G37*
G36*
X476908Y253190D02*
X476737Y253009D01*
X476585Y252825D01*
X476450Y252638D01*
X476334Y252447D01*
X476236Y252254D01*
X476157Y252057D01*
X476095Y251858D01*
X476052Y251656D01*
X476027Y251450D01*
X476019Y251241D01*
X473545Y253716D01*
X473753Y253723D01*
X473959Y253749D01*
X474161Y253792D01*
X474361Y253854D01*
X474557Y253933D01*
X474750Y254031D01*
X474941Y254147D01*
X475128Y254281D01*
X475312Y254434D01*
X475493Y254605D01*
X476908Y253190D01*
D02*
G37*
G36*
X595227Y219434D02*
X595411Y219281D01*
X595599Y219147D01*
X595789Y219031D01*
X595982Y218933D01*
X596179Y218853D01*
X596378Y218792D01*
X596581Y218749D01*
X596786Y218723D01*
X596995Y218716D01*
X594520Y216242D01*
X594513Y216450D01*
X594488Y216655D01*
X594444Y216858D01*
X594383Y217057D01*
X594303Y217254D01*
X594205Y217447D01*
X594089Y217637D01*
X593955Y217825D01*
X593802Y218009D01*
X593632Y218190D01*
X595046Y219604D01*
X595227Y219434D01*
D02*
G37*
G36*
X695592Y206572D02*
X695472Y206422D01*
X695366Y206266D01*
X695274Y206104D01*
X695196Y205936D01*
X695133Y205763D01*
X695083Y205583D01*
X695048Y205398D01*
X695027Y205206D01*
X695020Y205009D01*
X694020Y204009D01*
X694013Y204192D01*
X693991Y204341D01*
X693956Y204456D01*
X693906Y204536D01*
X693843Y204583D01*
X693765Y204595D01*
X693673Y204573D01*
X693567Y204517D01*
X693447Y204427D01*
X693313Y204302D01*
X693459Y205863D01*
X694166Y206570D01*
X695727Y206716D01*
X695592Y206572D01*
D02*
G37*
G36*
X639886Y197869D02*
X639868Y197716D01*
X639868Y197566D01*
X639886Y197418D01*
X639922Y197271D01*
X639977Y197127D01*
X640049Y196985D01*
X640139Y196844D01*
X640247Y196706D01*
X640373Y196570D01*
X639666Y195863D01*
X639530Y195989D01*
X639392Y196097D01*
X639252Y196187D01*
X639109Y196260D01*
X638965Y196314D01*
X638819Y196350D01*
X638670Y196368D01*
X638520Y196368D01*
X638368Y196351D01*
X638213Y196315D01*
X639922Y198023D01*
X639886Y197869D01*
D02*
G37*
G36*
X695032Y171475D02*
X695070Y171279D01*
X695132Y171077D01*
X695220Y170869D01*
X695332Y170656D01*
X695470Y170436D01*
X695632Y170211D01*
X695820Y169981D01*
X696270Y169502D01*
X692770D01*
X693007Y169744D01*
X693407Y170211D01*
X693570Y170436D01*
X693707Y170656D01*
X693820Y170869D01*
X693907Y171077D01*
X693970Y171279D01*
X694007Y171475D01*
X694020Y171666D01*
X695020D01*
X695032Y171475D01*
D02*
G37*
G36*
X597032Y164475D02*
X597070Y164279D01*
X597132Y164077D01*
X597220Y163869D01*
X597332Y163655D01*
X597470Y163436D01*
X597632Y163211D01*
X597820Y162980D01*
X598270Y162502D01*
X594770D01*
X595007Y162744D01*
X595407Y163211D01*
X595570Y163436D01*
X595707Y163655D01*
X595820Y163869D01*
X595907Y164077D01*
X595970Y164279D01*
X596007Y164475D01*
X596020Y164666D01*
X597020D01*
X597032Y164475D01*
D02*
G37*
G36*
X585032Y208189D02*
X584632Y207722D01*
X584470Y207497D01*
X584332Y207277D01*
X584220Y207064D01*
X584132Y206856D01*
X584070Y206654D01*
X584032Y206458D01*
X584020Y206267D01*
X583020D01*
X583007Y206458D01*
X582970Y206654D01*
X582907Y206856D01*
X582820Y207064D01*
X582707Y207277D01*
X582570Y207497D01*
X582407Y207722D01*
X582220Y207952D01*
X581770Y208431D01*
X585270D01*
X585032Y208189D01*
D02*
G37*
G36*
X618105Y255788D02*
X617169Y254709D01*
X616940Y254387D01*
X616752Y254085D01*
X616607Y253803D01*
X616503Y253539D01*
X616440Y253295D01*
X616420Y253070D01*
X615620D01*
X615599Y253295D01*
X615536Y253539D01*
X615432Y253803D01*
X615287Y254085D01*
X615100Y254387D01*
X614871Y254709D01*
X614288Y255409D01*
X613935Y255788D01*
X613539Y256186D01*
X618500D01*
X618105Y255788D01*
D02*
G37*
G36*
X616108Y197239D02*
X615993Y197105D01*
X615890Y196945D01*
X615800Y196759D01*
X615722Y196548D01*
X615657Y196311D01*
X615605Y196048D01*
X615565Y195760D01*
X615522Y195107D01*
X615520Y194741D01*
X613045Y197216D01*
X613410Y197219D01*
X614063Y197261D01*
X614352Y197301D01*
X614614Y197354D01*
X614851Y197419D01*
X615063Y197497D01*
X615248Y197587D01*
X615408Y197690D01*
X615543Y197805D01*
X616108Y197239D01*
D02*
G37*
G36*
X669495Y183717D02*
X669156Y183713D01*
X668542Y183666D01*
X668268Y183622D01*
X668016Y183564D01*
X667786Y183492D01*
X667577Y183407D01*
X667389Y183309D01*
X667224Y183196D01*
X667080Y183070D01*
X666373Y183777D01*
X666499Y183921D01*
X666612Y184086D01*
X666710Y184274D01*
X666795Y184482D01*
X666867Y184713D01*
X666925Y184965D01*
X666969Y185239D01*
X666999Y185535D01*
X667020Y186191D01*
X669495Y183717D01*
D02*
G37*
G36*
X629547Y180229D02*
X630014Y179829D01*
X630239Y179666D01*
X630459Y179529D01*
X630672Y179417D01*
X630880Y179329D01*
X631082Y179267D01*
X631279Y179229D01*
X631469Y179217D01*
Y178217D01*
X631279Y178204D01*
X631082Y178166D01*
X630880Y178104D01*
X630672Y178016D01*
X630459Y177904D01*
X630239Y177767D01*
X630014Y177604D01*
X629784Y177417D01*
X629305Y176967D01*
Y180466D01*
X629547Y180229D01*
D02*
G37*
G36*
X554234Y173467D02*
X553992Y173704D01*
X553525Y174104D01*
X553300Y174267D01*
X553081Y174404D01*
X552867Y174516D01*
X552659Y174604D01*
X552457Y174667D01*
X552261Y174704D01*
X552070Y174716D01*
Y175716D01*
X552261Y175729D01*
X552457Y175767D01*
X552659Y175829D01*
X552867Y175917D01*
X553081Y176029D01*
X553300Y176166D01*
X553525Y176329D01*
X553756Y176516D01*
X554234Y176967D01*
Y173467D01*
D02*
G37*
%LPC*%
G36*
X97741Y262011D02*
X96416D01*
X95137Y261668D01*
X93990Y261006D01*
X93053Y260069D01*
X92391Y258922D01*
X92048Y257643D01*
Y256318D01*
X92391Y255039D01*
X93053Y253891D01*
X93990Y252955D01*
X95137Y252292D01*
X96416Y251950D01*
X97741D01*
X99020Y252292D01*
X100168Y252955D01*
X101104Y253891D01*
X101767Y255039D01*
X102109Y256318D01*
Y257643D01*
X101767Y258922D01*
X101104Y260069D01*
X100168Y261006D01*
X99020Y261668D01*
X97741Y262011D01*
D02*
G37*
G36*
X364000Y251348D02*
Y248358D01*
X366989D01*
X366761Y249209D01*
X366301Y250007D01*
X365649Y250659D01*
X364851Y251120D01*
X364000Y251348D01*
D02*
G37*
G36*
X363000D02*
X362149Y251120D01*
X361351Y250659D01*
X360699Y250007D01*
X360239Y249209D01*
X360011Y248358D01*
X363000D01*
Y251348D01*
D02*
G37*
G36*
Y247358D02*
X361475D01*
X363000Y245833D01*
Y247358D01*
D02*
G37*
G36*
X366989D02*
X364000D01*
Y244369D01*
X364851Y244597D01*
X365649Y245058D01*
X366301Y245709D01*
X366761Y246507D01*
X366989Y247358D01*
D02*
G37*
G36*
X360985D02*
X360011D01*
X360191Y246685D01*
X360158Y246540D01*
X360103Y246365D01*
X360043Y246217D01*
X359979Y246096D01*
X359919Y246008D01*
X341493Y227582D01*
X290340D01*
X290235Y227602D01*
X290105Y227642D01*
X289958Y227704D01*
X289795Y227790D01*
X289669Y227869D01*
X289301Y228507D01*
X288649Y229159D01*
X287851Y229620D01*
X287000Y229848D01*
Y226358D01*
Y222869D01*
X287851Y223097D01*
X288649Y223558D01*
X289301Y224209D01*
X289669Y224848D01*
X289795Y224927D01*
X289958Y225012D01*
X290105Y225074D01*
X290235Y225115D01*
X290340Y225135D01*
X342000D01*
X342468Y225228D01*
X342865Y225493D01*
X361649Y244278D01*
X361738Y244338D01*
X361859Y244401D01*
X362006Y244461D01*
X362182Y244516D01*
X362327Y244549D01*
X363000Y244369D01*
Y245345D01*
X362523Y245308D01*
X362249Y245263D01*
X361996Y245205D01*
X361766Y245134D01*
X361557Y245049D01*
X361370Y244950D01*
X361205Y244838D01*
X361061Y244712D01*
X360354Y245419D01*
X360480Y245563D01*
X360592Y245728D01*
X360691Y245915D01*
X360776Y246124D01*
X360847Y246355D01*
X360905Y246607D01*
X360949Y246881D01*
X360980Y247177D01*
X360985Y247358D01*
D02*
G37*
G36*
X246500Y244348D02*
Y241358D01*
X249489D01*
X249261Y242209D01*
X248801Y243007D01*
X248149Y243659D01*
X247351Y244120D01*
X246500Y244348D01*
D02*
G37*
G36*
X245500D02*
X244649Y244120D01*
X243851Y243659D01*
X243199Y243007D01*
X242739Y242209D01*
X242511Y241358D01*
X245500D01*
Y244348D01*
D02*
G37*
G36*
X148500Y237348D02*
Y234358D01*
X151489D01*
X151261Y235209D01*
X150801Y236007D01*
X150149Y236659D01*
X149351Y237120D01*
X148500Y237348D01*
D02*
G37*
G36*
X147500D02*
X146649Y237120D01*
X145851Y236659D01*
X145199Y236007D01*
X144738Y235209D01*
X144510Y234358D01*
X147500D01*
Y237348D01*
D02*
G37*
G36*
X286000Y229848D02*
X285149Y229620D01*
X284351Y229159D01*
X283699Y228507D01*
X283239Y227709D01*
X283011Y226858D01*
X286000D01*
Y229848D01*
D02*
G37*
G36*
X105603Y239964D02*
X104302D01*
X103026Y239710D01*
X101824Y239212D01*
X100742Y238489D01*
X99822Y237569D01*
X99099Y236487D01*
X98601Y235285D01*
X98347Y234009D01*
Y232708D01*
X98601Y231431D01*
X99099Y230229D01*
X99822Y229147D01*
X100742Y228227D01*
X101824Y227504D01*
X103026Y227007D01*
X104302Y226753D01*
X105603D01*
X106879Y227007D01*
X108082Y227504D01*
X109163Y228227D01*
X110083Y229147D01*
X110806Y230229D01*
X111304Y231431D01*
X111558Y232708D01*
Y234009D01*
X111304Y235285D01*
X110806Y236487D01*
X110083Y237569D01*
X109163Y238489D01*
X108082Y239212D01*
X106879Y239710D01*
X105603Y239964D01*
D02*
G37*
G36*
X286000Y225858D02*
X283011D01*
X283239Y225007D01*
X283699Y224209D01*
X284351Y223558D01*
X285149Y223097D01*
X286000Y222869D01*
Y225858D01*
D02*
G37*
G36*
X215421Y226058D02*
X214579D01*
X213765Y225840D01*
X213035Y225419D01*
X212776Y225159D01*
X212726Y225128D01*
X212266Y224696D01*
X212071Y224537D01*
X211881Y224400D01*
X211705Y224290D01*
X211542Y224204D01*
X211395Y224142D01*
X211265Y224102D01*
X211159Y224082D01*
X180500D01*
X180032Y223989D01*
X179635Y223723D01*
X174850Y218939D01*
X174762Y218879D01*
X174641Y218815D01*
X174494Y218755D01*
X174318Y218701D01*
X174115Y218654D01*
X173893Y218618D01*
X173333Y218575D01*
X173018Y218572D01*
X172953Y218558D01*
X172579D01*
X171765Y218340D01*
X171035Y217919D01*
X170439Y217323D01*
X170018Y216593D01*
X169800Y215780D01*
Y214937D01*
X170018Y214123D01*
X170439Y213393D01*
X171035Y212798D01*
X171765Y212376D01*
X172579Y212158D01*
X173421D01*
X174235Y212376D01*
X174965Y212798D01*
X175561Y213393D01*
X175982Y214123D01*
X176200Y214937D01*
Y215304D01*
X176213Y215361D01*
X176233Y215992D01*
X176259Y216242D01*
X176296Y216473D01*
X176342Y216676D01*
X176397Y216852D01*
X176457Y216999D01*
X176521Y217120D01*
X176581Y217209D01*
X181007Y221635D01*
X211159D01*
X211265Y221615D01*
X211395Y221574D01*
X211542Y221512D01*
X211705Y221427D01*
X211881Y221316D01*
X212064Y221184D01*
X212490Y220819D01*
X212715Y220599D01*
X212770Y220562D01*
X213035Y220298D01*
X213765Y219876D01*
X214579Y219658D01*
X215421D01*
X216235Y219876D01*
X216965Y220298D01*
X217561Y220893D01*
X217982Y221623D01*
X218200Y222437D01*
Y223280D01*
X217982Y224093D01*
X217561Y224823D01*
X216965Y225419D01*
X216235Y225840D01*
X215421Y226058D01*
D02*
G37*
G36*
X287000Y220348D02*
Y217358D01*
X289989D01*
X289761Y218209D01*
X289301Y219007D01*
X288649Y219659D01*
X287851Y220120D01*
X287000Y220348D01*
D02*
G37*
G36*
X286000D02*
X285149Y220120D01*
X284351Y219659D01*
X283699Y219007D01*
X283239Y218209D01*
X283011Y217358D01*
X286000D01*
Y220348D01*
D02*
G37*
G36*
Y216358D02*
X284475D01*
X286000Y214833D01*
Y216358D01*
D02*
G37*
G36*
X249489Y240358D02*
X242511D01*
X242739Y239507D01*
X243199Y238709D01*
X243851Y238058D01*
X244490Y237689D01*
X244569Y237563D01*
X244654Y237400D01*
X244716Y237253D01*
X244756Y237123D01*
X244777Y237018D01*
Y219358D01*
X244870Y218890D01*
X245135Y218493D01*
X249919Y213709D01*
X249927Y213697D01*
X249944Y213623D01*
X249925Y213437D01*
X249856Y213269D01*
X249738Y213124D01*
X249673Y213084D01*
X249659Y213082D01*
X214000D01*
X213532Y212989D01*
X213135Y212723D01*
X206851Y206439D01*
X206762Y206379D01*
X206641Y206315D01*
X206493Y206255D01*
X206318Y206201D01*
X206173Y206167D01*
X205500Y206348D01*
Y205372D01*
X205977Y205409D01*
X206251Y205453D01*
X206504Y205511D01*
X206734Y205582D01*
X206943Y205667D01*
X207130Y205766D01*
X207295Y205879D01*
X207439Y206005D01*
X208146Y205297D01*
X208020Y205154D01*
X207908Y204988D01*
X207809Y204801D01*
X207724Y204592D01*
X207653Y204362D01*
X207595Y204110D01*
X207551Y203836D01*
X207520Y203540D01*
X207515Y203358D01*
X208489D01*
X208309Y204031D01*
X208342Y204176D01*
X208397Y204352D01*
X208457Y204499D01*
X208521Y204620D01*
X208581Y204709D01*
X214507Y210635D01*
X249659D01*
X249765Y210615D01*
X249895Y210574D01*
X250042Y210512D01*
X250205Y210427D01*
X250331Y210348D01*
X250699Y209709D01*
X251351Y209058D01*
X252149Y208597D01*
X253000Y208369D01*
Y211858D01*
Y213883D01*
X251715Y212598D01*
Y210108D01*
X251472Y210346D01*
X251005Y210746D01*
X250780Y210908D01*
X250561Y211046D01*
X250347Y211158D01*
X250140Y211246D01*
X249938Y211308D01*
X249741Y211346D01*
X249551Y211358D01*
Y212358D01*
X249741Y212371D01*
X249938Y212408D01*
X250140Y212471D01*
X250347Y212558D01*
X250561Y212671D01*
X250780Y212808D01*
X250936Y212920D01*
X250905Y213110D01*
X250847Y213362D01*
X250776Y213593D01*
X250691Y213801D01*
X250592Y213988D01*
X250480Y214154D01*
X250354Y214297D01*
X251061Y215004D01*
X251204Y214879D01*
X251370Y214766D01*
X251557Y214668D01*
X251766Y214582D01*
X251996Y214511D01*
X252249Y214453D01*
X252523Y214409D01*
X252818Y214378D01*
X253000Y214373D01*
Y215348D01*
X252327Y215167D01*
X252182Y215201D01*
X252007Y215255D01*
X251859Y215315D01*
X251738Y215379D01*
X251649Y215439D01*
X247223Y219865D01*
Y237018D01*
X247244Y237123D01*
X247284Y237253D01*
X247346Y237400D01*
X247431Y237563D01*
X247511Y237689D01*
X248149Y238058D01*
X248801Y238709D01*
X249261Y239507D01*
X249489Y240358D01*
D02*
G37*
G36*
X289989Y216358D02*
X287000D01*
Y213369D01*
X287851Y213597D01*
X288649Y214058D01*
X289301Y214709D01*
X289761Y215507D01*
X289989Y216358D01*
D02*
G37*
G36*
X283985D02*
X283011D01*
X283191Y215685D01*
X283158Y215540D01*
X283103Y215365D01*
X283043Y215217D01*
X282979Y215096D01*
X282919Y215008D01*
X261610Y193698D01*
X261149Y194159D01*
X260510Y194528D01*
X260431Y194654D01*
X260346Y194816D01*
X260284Y194963D01*
X260244Y195094D01*
X260224Y195199D01*
Y206358D01*
X260130Y206826D01*
X259865Y207223D01*
X257081Y210008D01*
X257021Y210096D01*
X256957Y210217D01*
X256897Y210365D01*
X256842Y210540D01*
X256809Y210685D01*
X256990Y211358D01*
X256014D01*
X256051Y210881D01*
X256095Y210607D01*
X256153Y210355D01*
X256224Y210124D01*
X256309Y209915D01*
X256408Y209728D01*
X256520Y209563D01*
X256646Y209419D01*
X255939Y208712D01*
X255796Y208838D01*
X255630Y208950D01*
X255443Y209049D01*
X255234Y209134D01*
X255004Y209206D01*
X254751Y209263D01*
X254477Y209308D01*
X254182Y209338D01*
X254000Y209344D01*
Y208369D01*
X254673Y208549D01*
X254818Y208516D01*
X254993Y208461D01*
X255141Y208401D01*
X255262Y208338D01*
X255350Y208278D01*
X257776Y205852D01*
Y195199D01*
X257756Y195094D01*
X257716Y194963D01*
X257654Y194816D01*
X257569Y194654D01*
X257489Y194528D01*
X256851Y194159D01*
X256199Y193507D01*
X255738Y192709D01*
X255510Y191858D01*
X259000D01*
Y191358D01*
X259500D01*
Y187869D01*
X260351Y188097D01*
X261149Y188558D01*
X261801Y189209D01*
X262262Y190007D01*
X262500Y190898D01*
Y191171D01*
X262631Y191259D01*
X284649Y213278D01*
X284738Y213338D01*
X284859Y213401D01*
X285006Y213461D01*
X285182Y213516D01*
X285327Y213549D01*
X286000Y213369D01*
Y214345D01*
X285523Y214308D01*
X285249Y214263D01*
X284996Y214206D01*
X284766Y214134D01*
X284557Y214049D01*
X284370Y213950D01*
X284205Y213838D01*
X284061Y213712D01*
X283354Y214419D01*
X283480Y214563D01*
X283592Y214728D01*
X283691Y214915D01*
X283776Y215124D01*
X283847Y215355D01*
X283905Y215607D01*
X283949Y215881D01*
X283980Y216177D01*
X283985Y216358D01*
D02*
G37*
G36*
X254000Y215348D02*
Y212358D01*
X256990D01*
X256762Y213209D01*
X256301Y214007D01*
X255649Y214659D01*
X254851Y215120D01*
X254000Y215348D01*
D02*
G37*
G36*
X255525Y211358D02*
X254000D01*
Y209833D01*
X255525Y211358D01*
D02*
G37*
G36*
X97741Y214767D02*
X96416D01*
X95137Y214424D01*
X93990Y213762D01*
X93053Y212825D01*
X92391Y211678D01*
X92048Y210399D01*
Y209074D01*
X92391Y207794D01*
X93053Y206647D01*
X93990Y205711D01*
X95137Y205048D01*
X96416Y204706D01*
X97741D01*
X99020Y205048D01*
X100168Y205711D01*
X101104Y206647D01*
X101767Y207794D01*
X102109Y209074D01*
Y210399D01*
X101767Y211678D01*
X101104Y212825D01*
X100168Y213762D01*
X99020Y214424D01*
X97741Y214767D01*
D02*
G37*
G36*
X205500Y204883D02*
Y203358D01*
X207025D01*
X205500Y204883D01*
D02*
G37*
G36*
X151489Y233358D02*
X144510D01*
X144738Y232507D01*
X145199Y231709D01*
X145851Y231058D01*
X146490Y230689D01*
X146569Y230563D01*
X146654Y230400D01*
X146716Y230253D01*
X146756Y230123D01*
X146776Y230018D01*
Y196383D01*
X146765Y196283D01*
X146741Y196154D01*
X146707Y196030D01*
X146663Y195912D01*
X146610Y195798D01*
X146547Y195686D01*
X146473Y195577D01*
X146410Y195499D01*
X141350Y190439D01*
X141262Y190379D01*
X141141Y190315D01*
X140993Y190255D01*
X140818Y190201D01*
X140673Y190167D01*
X140000Y190348D01*
Y189372D01*
X140477Y189409D01*
X140751Y189453D01*
X141004Y189511D01*
X141234Y189582D01*
X141443Y189667D01*
X141630Y189766D01*
X141796Y189879D01*
X141939Y190005D01*
X142646Y189297D01*
X142520Y189154D01*
X142408Y188988D01*
X142309Y188801D01*
X142224Y188593D01*
X142153Y188362D01*
X142095Y188110D01*
X142051Y187836D01*
X142020Y187540D01*
X142015Y187358D01*
X142990D01*
X142809Y188031D01*
X142842Y188176D01*
X142897Y188352D01*
X142957Y188499D01*
X143021Y188620D01*
X143081Y188709D01*
X148865Y194493D01*
X148865Y194493D01*
X158507Y204135D01*
X201308D01*
X201612Y203738D01*
X201511Y203358D01*
X204500D01*
Y206348D01*
X203649Y206120D01*
X203543Y206059D01*
X203542Y206060D01*
X203482Y206107D01*
X203365Y206223D01*
X202968Y206489D01*
X202500Y206582D01*
X158000D01*
X157532Y206489D01*
X157135Y206223D01*
X149685Y198774D01*
X149223Y198965D01*
Y230018D01*
X149244Y230123D01*
X149284Y230253D01*
X149346Y230400D01*
X149431Y230563D01*
X149511Y230689D01*
X150149Y231058D01*
X150801Y231709D01*
X151261Y232507D01*
X151489Y233358D01*
D02*
G37*
G36*
X208489Y202358D02*
X205500D01*
Y199369D01*
X206351Y199597D01*
X207149Y200058D01*
X207801Y200709D01*
X208261Y201507D01*
X208489Y202358D01*
D02*
G37*
G36*
X204500D02*
X201511D01*
X201739Y201507D01*
X202199Y200709D01*
X202851Y200058D01*
X203649Y199597D01*
X204500Y199369D01*
Y202358D01*
D02*
G37*
G36*
X258500Y190858D02*
X255510D01*
X255738Y190007D01*
X256199Y189209D01*
X256851Y188558D01*
X257649Y188097D01*
X258500Y187869D01*
Y190858D01*
D02*
G37*
G36*
X140000Y188883D02*
Y187358D01*
X141525D01*
X140000Y188883D01*
D02*
G37*
G36*
X139000Y190348D02*
X138149Y190120D01*
X137351Y189659D01*
X136699Y189007D01*
X136239Y188209D01*
X136011Y187358D01*
X139000D01*
Y190348D01*
D02*
G37*
G36*
X294000Y169348D02*
X293149Y169120D01*
X292351Y168659D01*
X291699Y168007D01*
X291238Y167209D01*
X291010Y166358D01*
X294000D01*
Y169348D01*
D02*
G37*
G36*
X315500Y168848D02*
Y165858D01*
X318490D01*
X318262Y166709D01*
X317801Y167507D01*
X317149Y168159D01*
X316351Y168620D01*
X315500Y168848D01*
D02*
G37*
G36*
X294000Y165358D02*
X291010D01*
X291238Y164507D01*
X291699Y163709D01*
X292351Y163058D01*
X293149Y162597D01*
X294000Y162369D01*
Y165358D01*
D02*
G37*
G36*
X318490Y164858D02*
X315500D01*
Y161869D01*
X316351Y162097D01*
X317149Y162558D01*
X317801Y163209D01*
X318262Y164007D01*
X318490Y164858D01*
D02*
G37*
G36*
X295000Y169348D02*
Y165858D01*
Y162369D01*
X295851Y162597D01*
X296649Y163058D01*
X297301Y163709D01*
X297669Y164348D01*
X297795Y164427D01*
X297958Y164512D01*
X298105Y164574D01*
X298235Y164615D01*
X298341Y164635D01*
X311113D01*
X311215Y164614D01*
X311327Y164576D01*
X311445Y164518D01*
X311572Y164437D01*
X311637Y164385D01*
X311738Y164007D01*
X312199Y163209D01*
X312851Y162558D01*
X313649Y162097D01*
X314500Y161869D01*
Y165358D01*
Y168848D01*
X313649Y168620D01*
X312851Y168159D01*
X312199Y167507D01*
X312129Y167385D01*
X311911Y167275D01*
X311723Y167197D01*
X311553Y167137D01*
X311408Y167099D01*
X311311Y167082D01*
X298341D01*
X298235Y167102D01*
X298105Y167142D01*
X297958Y167204D01*
X297795Y167290D01*
X297669Y167369D01*
X297301Y168007D01*
X296649Y168659D01*
X295851Y169120D01*
X295000Y169348D01*
D02*
G37*
G36*
X142990Y186358D02*
X136011D01*
X136239Y185507D01*
X136699Y184709D01*
X137351Y184058D01*
X137989Y183689D01*
X138069Y183563D01*
X138154Y183400D01*
X138216Y183253D01*
X138256Y183123D01*
X138277Y183018D01*
Y161199D01*
X138274Y161185D01*
X138234Y161121D01*
X138089Y161003D01*
X137921Y160933D01*
X137735Y160914D01*
X137661Y160931D01*
X137650Y160939D01*
X136365Y162223D01*
X135968Y162489D01*
X135500Y162582D01*
X88500D01*
X88032Y162489D01*
X87635Y162223D01*
X74373Y148961D01*
X73877Y149027D01*
X73501Y149678D01*
X72570Y150609D01*
X71430Y151268D01*
X70158Y151608D01*
X70000D01*
Y146608D01*
Y141608D01*
X70158D01*
X71430Y141949D01*
X72570Y142607D01*
X73501Y143538D01*
X74159Y144678D01*
X74500Y145950D01*
Y146066D01*
X74882Y146142D01*
X75279Y146407D01*
X89007Y160135D01*
X134993D01*
X135919Y159209D01*
X135979Y159120D01*
X136043Y158999D01*
X136103Y158852D01*
X136158Y158676D01*
X136191Y158531D01*
X136011Y157858D01*
X136986D01*
X136949Y158336D01*
X136905Y158610D01*
X136847Y158862D01*
X136776Y159092D01*
X136691Y159301D01*
X136592Y159488D01*
X136480Y159654D01*
X136354Y159797D01*
X137061Y160504D01*
X137205Y160379D01*
X137370Y160266D01*
X137557Y160168D01*
X137766Y160082D01*
X137996Y160011D01*
X138249Y159953D01*
X138438Y159923D01*
X138550Y160078D01*
X138688Y160297D01*
X138800Y160511D01*
X138888Y160719D01*
X138950Y160921D01*
X138988Y161117D01*
X139000Y161308D01*
X140000D01*
X140013Y161117D01*
X140050Y160921D01*
X140112Y160719D01*
X140200Y160511D01*
X140313Y160297D01*
X140450Y160078D01*
X140612Y159853D01*
X140800Y159622D01*
X141250Y159144D01*
X138760D01*
X137475Y157858D01*
X142990D01*
X142762Y158709D01*
X142301Y159507D01*
X141649Y160159D01*
X141010Y160528D01*
X140931Y160654D01*
X140846Y160816D01*
X140784Y160963D01*
X140744Y161094D01*
X140724Y161199D01*
Y183018D01*
X140744Y183123D01*
X140784Y183253D01*
X140846Y183400D01*
X140931Y183563D01*
X141010Y183689D01*
X141649Y184058D01*
X142301Y184709D01*
X142762Y185507D01*
X142990Y186358D01*
D02*
G37*
G36*
X74200Y164808D02*
X64800D01*
Y155408D01*
X74200D01*
Y164808D01*
D02*
G37*
G36*
X141525Y156858D02*
X140000D01*
Y155333D01*
X141525Y156858D01*
D02*
G37*
G36*
X142990D02*
X142014D01*
X142051Y156381D01*
X142095Y156107D01*
X142153Y155855D01*
X142224Y155624D01*
X142309Y155415D01*
X142408Y155228D01*
X142520Y155063D01*
X142646Y154919D01*
X141939Y154212D01*
X141796Y154338D01*
X141630Y154450D01*
X141443Y154549D01*
X141234Y154634D01*
X141004Y154706D01*
X140751Y154763D01*
X140477Y154808D01*
X140182Y154838D01*
X140000Y154844D01*
Y153869D01*
X140673Y154049D01*
X140818Y154016D01*
X140993Y153962D01*
X141141Y153901D01*
X141262Y153838D01*
X141350Y153778D01*
X153135Y141993D01*
X153532Y141728D01*
X154000Y141635D01*
X190956D01*
X190996Y141631D01*
X191158Y141594D01*
X191355Y141522D01*
X191584Y141411D01*
X191840Y141261D01*
X192121Y141068D01*
X192420Y140838D01*
X192421Y140837D01*
X192865Y140069D01*
X193710Y139223D01*
X194746Y138625D01*
X195902Y138315D01*
X196000D01*
Y142858D01*
Y147402D01*
X195902D01*
X194746Y147092D01*
X193710Y146494D01*
X192865Y145648D01*
X192421Y144880D01*
X192420Y144879D01*
X192121Y144649D01*
X191840Y144456D01*
X191584Y144305D01*
X191355Y144195D01*
X191158Y144123D01*
X190996Y144085D01*
X190956Y144082D01*
X154507D01*
X143081Y155508D01*
X143021Y155596D01*
X142957Y155717D01*
X142897Y155865D01*
X142842Y156040D01*
X142809Y156185D01*
X142990Y156858D01*
D02*
G37*
G36*
X139000D02*
X136011D01*
X136239Y156007D01*
X136699Y155209D01*
X137351Y154558D01*
X138149Y154097D01*
X139000Y153869D01*
Y156858D01*
D02*
G37*
G36*
X69000Y151608D02*
X68842D01*
X67570Y151268D01*
X66430Y150609D01*
X65499Y149678D01*
X64841Y148538D01*
X64500Y147266D01*
Y147108D01*
X69000D01*
Y151608D01*
D02*
G37*
G36*
X245921Y188558D02*
X245079D01*
X244265Y188340D01*
X243535Y187919D01*
X242939Y187323D01*
X242518Y186593D01*
X242300Y185780D01*
Y184937D01*
X242518Y184123D01*
X242939Y183393D01*
X243535Y182798D01*
X244265Y182376D01*
X245079Y182158D01*
X245445D01*
X245501Y182145D01*
X245678Y182139D01*
X245821Y182122D01*
X245961Y182092D01*
X246101Y182048D01*
X246241Y181992D01*
X246383Y181920D01*
X246527Y181832D01*
X246672Y181728D01*
X246713Y181694D01*
X282274Y146133D01*
X282274Y146133D01*
X282837Y145757D01*
X283500Y145625D01*
X283500Y145625D01*
X366000D01*
X366663Y145757D01*
X367226Y146133D01*
X367787Y146694D01*
X367828Y146728D01*
X367973Y146832D01*
X368117Y146920D01*
X368259Y146992D01*
X368399Y147048D01*
X368539Y147092D01*
X368679Y147122D01*
X368822Y147139D01*
X368999Y147145D01*
X369055Y147158D01*
X369421D01*
X370235Y147376D01*
X370965Y147798D01*
X371561Y148393D01*
X371982Y149123D01*
X372200Y149937D01*
Y150780D01*
X371982Y151593D01*
X371561Y152323D01*
X370965Y152919D01*
X370235Y153340D01*
X369421Y153558D01*
X368579D01*
X367765Y153340D01*
X367035Y152919D01*
X366439Y152323D01*
X366018Y151593D01*
X365800Y150780D01*
Y150414D01*
X365787Y150357D01*
X365781Y150180D01*
X365763Y150038D01*
X365733Y149897D01*
X365690Y149757D01*
X365633Y149617D01*
X365561Y149475D01*
X365474Y149331D01*
X365370Y149186D01*
X365336Y149146D01*
X365282Y149092D01*
X284218D01*
X249164Y184146D01*
X249131Y184186D01*
X249026Y184332D01*
X248939Y184475D01*
X248867Y184617D01*
X248810Y184757D01*
X248767Y184897D01*
X248737Y185038D01*
X248719Y185180D01*
X248713Y185357D01*
X248700Y185414D01*
Y185780D01*
X248482Y186593D01*
X248061Y187323D01*
X247465Y187919D01*
X246735Y188340D01*
X245921Y188558D01*
D02*
G37*
G36*
X197098Y147402D02*
X197000D01*
Y143358D01*
X201043D01*
Y143456D01*
X200734Y144612D01*
X200135Y145648D01*
X199290Y146494D01*
X198254Y147092D01*
X197098Y147402D01*
D02*
G37*
G36*
X69000Y146108D02*
X64500D01*
Y145950D01*
X64841Y144678D01*
X65499Y143538D01*
X66430Y142607D01*
X67570Y141949D01*
X68842Y141608D01*
X69000D01*
Y146108D01*
D02*
G37*
G36*
X239421Y185058D02*
X238579D01*
X237765Y184840D01*
X237035Y184419D01*
X236439Y183823D01*
X236018Y183093D01*
X235800Y182280D01*
Y181437D01*
X236018Y180623D01*
X236439Y179893D01*
X236698Y179635D01*
X236729Y179585D01*
X236850Y179456D01*
X236938Y179343D01*
X237016Y179222D01*
X237085Y179093D01*
X237143Y178953D01*
X237193Y178803D01*
X237233Y178639D01*
X237262Y178462D01*
X237267Y178410D01*
Y162608D01*
X237399Y161945D01*
X237774Y161383D01*
X259024Y140133D01*
X259587Y139757D01*
X260250Y139625D01*
X375000D01*
X375663Y139757D01*
X376226Y140133D01*
X382787Y146694D01*
X382828Y146728D01*
X382973Y146832D01*
X383117Y146920D01*
X383259Y146992D01*
X383399Y147048D01*
X383539Y147092D01*
X383679Y147122D01*
X383822Y147139D01*
X383999Y147145D01*
X384055Y147158D01*
X384421D01*
X385235Y147376D01*
X385965Y147798D01*
X386561Y148393D01*
X386982Y149123D01*
X387200Y149937D01*
Y150780D01*
X386982Y151593D01*
X386561Y152323D01*
X385965Y152919D01*
X385235Y153340D01*
X384421Y153558D01*
X383579D01*
X382765Y153340D01*
X382035Y152919D01*
X381439Y152323D01*
X381018Y151593D01*
X380800Y150780D01*
Y150414D01*
X380787Y150357D01*
X380781Y150180D01*
X380763Y150038D01*
X380733Y149897D01*
X380690Y149757D01*
X380633Y149617D01*
X380561Y149475D01*
X380474Y149331D01*
X380369Y149186D01*
X380336Y149146D01*
X374282Y143092D01*
X260968D01*
X240733Y163326D01*
Y178410D01*
X240738Y178462D01*
X240767Y178639D01*
X240807Y178803D01*
X240856Y178953D01*
X240915Y179093D01*
X240984Y179222D01*
X241062Y179343D01*
X241150Y179456D01*
X241271Y179585D01*
X241302Y179635D01*
X241561Y179893D01*
X241982Y180623D01*
X242200Y181437D01*
Y182280D01*
X241982Y183093D01*
X241561Y183823D01*
X240965Y184419D01*
X240235Y184840D01*
X239421Y185058D01*
D02*
G37*
G36*
X240743Y147102D02*
X232257D01*
Y138615D01*
X240743D01*
Y147102D01*
D02*
G37*
G36*
X229921Y210058D02*
X229079D01*
X228265Y209840D01*
X227535Y209419D01*
X226939Y208823D01*
X226518Y208093D01*
X226300Y207280D01*
Y206904D01*
X226286Y206838D01*
X226284Y206494D01*
X226245Y205887D01*
X226211Y205646D01*
X226167Y205429D01*
X226117Y205245D01*
X226062Y205095D01*
X226006Y204980D01*
X225953Y204898D01*
X225707Y204651D01*
X225464Y204288D01*
X225378Y203858D01*
X225378Y203858D01*
Y148453D01*
X225374Y148402D01*
X225336Y148256D01*
X225262Y148067D01*
X225146Y147841D01*
X224985Y147583D01*
X224790Y147308D01*
X223891Y146273D01*
X223513Y145891D01*
X223476Y145835D01*
X223105Y145464D01*
X222546Y144496D01*
X222257Y143417D01*
Y142300D01*
X222546Y141220D01*
X223105Y140253D01*
X223895Y139463D01*
X224862Y138904D01*
X225941Y138615D01*
X227059D01*
X228138Y138904D01*
X229105Y139463D01*
X229895Y140253D01*
X230454Y141220D01*
X230743Y142300D01*
Y143417D01*
X230454Y144496D01*
X229895Y145464D01*
X229524Y145835D01*
X229487Y145891D01*
X229099Y146282D01*
X228767Y146638D01*
X228215Y147302D01*
X228015Y147583D01*
X227854Y147841D01*
X227738Y148067D01*
X227664Y148256D01*
X227626Y148402D01*
X227622Y148453D01*
Y203364D01*
X227737Y203420D01*
X227887Y203475D01*
X228070Y203526D01*
X228287Y203569D01*
X228529Y203603D01*
X229135Y203642D01*
X229480Y203645D01*
X229546Y203658D01*
X229921D01*
X230735Y203876D01*
X231465Y204298D01*
X232061Y204893D01*
X232482Y205623D01*
X232700Y206437D01*
Y207280D01*
X232482Y208093D01*
X232061Y208823D01*
X231465Y209419D01*
X230735Y209840D01*
X229921Y210058D01*
D02*
G37*
G36*
X217059Y147102D02*
X215941D01*
X214862Y146812D01*
X213895Y146254D01*
X213105Y145464D01*
X212546Y144496D01*
X212257Y143417D01*
Y142300D01*
X212546Y141220D01*
X213105Y140253D01*
X213895Y139463D01*
X214862Y138904D01*
X215941Y138615D01*
X217059D01*
X218138Y138904D01*
X219106Y139463D01*
X219896Y140253D01*
X220454Y141220D01*
X220743Y142300D01*
Y143417D01*
X220454Y144496D01*
X219896Y145464D01*
X219106Y146254D01*
X218138Y146812D01*
X217059Y147102D01*
D02*
G37*
G36*
X198921Y184058D02*
X198079D01*
X197265Y183840D01*
X196535Y183419D01*
X195939Y182823D01*
X195518Y182093D01*
X195300Y181280D01*
Y180437D01*
X195518Y179623D01*
X195939Y178893D01*
X196324Y178509D01*
X196276Y178272D01*
Y157858D01*
X196370Y157390D01*
X196635Y156993D01*
X205272Y148356D01*
X205235Y148200D01*
X205164Y148003D01*
X205053Y147775D01*
X204902Y147518D01*
X204710Y147237D01*
X204480Y146939D01*
X203875Y146257D01*
X203512Y145891D01*
X203475Y145834D01*
X203104Y145464D01*
X202546Y144496D01*
X202257Y143417D01*
Y142300D01*
X202546Y141220D01*
X203104Y140253D01*
X203895Y139463D01*
X204862Y138904D01*
X205941Y138615D01*
X207059D01*
X208138Y138904D01*
X209105Y139463D01*
X209895Y140253D01*
X210454Y141220D01*
X210743Y142300D01*
Y143417D01*
X210454Y144496D01*
X209895Y145464D01*
X209525Y145834D01*
X209488Y145891D01*
X209125Y146257D01*
X208520Y146939D01*
X208290Y147237D01*
X208098Y147518D01*
X207947Y147775D01*
X207837Y148003D01*
X207765Y148200D01*
X207727Y148363D01*
X207723Y148403D01*
Y148858D01*
X207630Y149327D01*
X207365Y149723D01*
X198723Y158365D01*
Y177658D01*
X198921D01*
X199735Y177876D01*
X200465Y178298D01*
X201061Y178893D01*
X201482Y179623D01*
X201700Y180437D01*
Y181280D01*
X201482Y182093D01*
X201061Y182823D01*
X200465Y183419D01*
X199735Y183840D01*
X198921Y184058D01*
D02*
G37*
G36*
X201043Y142358D02*
X197000D01*
Y138315D01*
X197098D01*
X198254Y138625D01*
X199290Y139223D01*
X200135Y140069D01*
X200734Y141105D01*
X201043Y142260D01*
Y142358D01*
D02*
G37*
%LPD*%
G36*
X288527Y227871D02*
X288995Y227471D01*
X289220Y227308D01*
X289439Y227171D01*
X289653Y227058D01*
X289860Y226971D01*
X290062Y226908D01*
X290259Y226871D01*
X290450Y226858D01*
Y225858D01*
X290259Y225846D01*
X290062Y225808D01*
X289860Y225746D01*
X289653Y225658D01*
X289439Y225546D01*
X289220Y225408D01*
X288995Y225246D01*
X288764Y225058D01*
X288285Y224608D01*
Y228108D01*
X288527Y227871D01*
D02*
G37*
G36*
X213215Y221108D02*
X212972Y221346D01*
X212505Y221746D01*
X212280Y221908D01*
X212061Y222046D01*
X211847Y222158D01*
X211640Y222246D01*
X211438Y222308D01*
X211241Y222346D01*
X211051Y222358D01*
Y223358D01*
X211241Y223371D01*
X211438Y223408D01*
X211640Y223471D01*
X211847Y223558D01*
X212061Y223671D01*
X212280Y223808D01*
X212505Y223971D01*
X212736Y224158D01*
X213215Y224608D01*
Y221108D01*
D02*
G37*
G36*
X176146Y217797D02*
X176020Y217654D01*
X175908Y217488D01*
X175809Y217301D01*
X175724Y217092D01*
X175653Y216862D01*
X175595Y216610D01*
X175551Y216336D01*
X175520Y216040D01*
X175500Y215383D01*
X173025Y217858D01*
X173364Y217862D01*
X173977Y217909D01*
X174251Y217953D01*
X174504Y218011D01*
X174734Y218082D01*
X174943Y218167D01*
X175130Y218266D01*
X175295Y218379D01*
X175439Y218505D01*
X176146Y217797D01*
D02*
G37*
G36*
X247513Y238831D02*
X247112Y238364D01*
X246950Y238139D01*
X246813Y237919D01*
X246700Y237706D01*
X246613Y237498D01*
X246550Y237296D01*
X246513Y237099D01*
X246500Y236909D01*
X245500D01*
X245487Y237099D01*
X245450Y237296D01*
X245388Y237498D01*
X245300Y237706D01*
X245187Y237919D01*
X245050Y238139D01*
X244887Y238364D01*
X244700Y238594D01*
X244250Y239073D01*
X247750D01*
X247513Y238831D01*
D02*
G37*
G36*
X259512Y195117D02*
X259550Y194921D01*
X259612Y194719D01*
X259700Y194511D01*
X259812Y194297D01*
X259950Y194078D01*
X260113Y193853D01*
X260300Y193622D01*
X260750Y193144D01*
X257250D01*
X257488Y193386D01*
X257888Y193853D01*
X258050Y194078D01*
X258188Y194297D01*
X258300Y194511D01*
X258387Y194719D01*
X258450Y194921D01*
X258488Y195117D01*
X258500Y195308D01*
X259500D01*
X259512Y195117D01*
D02*
G37*
G36*
X149513Y231831D02*
X149112Y231364D01*
X148950Y231138D01*
X148812Y230919D01*
X148700Y230706D01*
X148612Y230498D01*
X148550Y230296D01*
X148512Y230099D01*
X148500Y229909D01*
X147500D01*
X147487Y230099D01*
X147450Y230296D01*
X147388Y230498D01*
X147300Y230706D01*
X147187Y230919D01*
X147050Y231138D01*
X146888Y231364D01*
X146700Y231594D01*
X146250Y232073D01*
X149750D01*
X149513Y231831D01*
D02*
G37*
G36*
X202990Y205586D02*
X203128Y205477D01*
X203268Y205387D01*
X203411Y205315D01*
X203555Y205261D01*
X203701Y205225D01*
X203850Y205207D01*
X204000Y205206D01*
X204152Y205224D01*
X204307Y205260D01*
X202598Y203552D01*
X202634Y203706D01*
X202652Y203858D01*
X202652Y204009D01*
X202634Y204157D01*
X202597Y204304D01*
X202543Y204448D01*
X202471Y204590D01*
X202381Y204730D01*
X202273Y204869D01*
X202147Y205005D01*
X202853Y205712D01*
X202990Y205586D01*
D02*
G37*
G36*
X148507Y197382D02*
X148528Y197234D01*
X148564Y197119D01*
X148613Y197038D01*
X148677Y196992D01*
X148755Y196980D01*
X148846Y197002D01*
X148952Y197058D01*
X149073Y197148D01*
X149207Y197273D01*
X149061Y195712D01*
X148354Y195005D01*
X146793Y194858D01*
X146927Y195003D01*
X147047Y195153D01*
X147153Y195309D01*
X147245Y195471D01*
X147323Y195639D01*
X147387Y195812D01*
X147436Y195992D01*
X147472Y196177D01*
X147493Y196368D01*
X147500Y196565D01*
X148500Y197565D01*
X148507Y197382D01*
D02*
G37*
G36*
X296528Y167371D02*
X296995Y166971D01*
X297220Y166808D01*
X297439Y166671D01*
X297653Y166558D01*
X297860Y166471D01*
X298062Y166408D01*
X298259Y166371D01*
X298449Y166358D01*
Y165358D01*
X298259Y165346D01*
X298062Y165308D01*
X297860Y165246D01*
X297653Y165158D01*
X297439Y165046D01*
X297220Y164908D01*
X296995Y164746D01*
X296764Y164558D01*
X296285Y164108D01*
Y167608D01*
X296528Y167371D01*
D02*
G37*
G36*
X312901Y164001D02*
X312724Y164259D01*
X312544Y164489D01*
X312361Y164693D01*
X312175Y164869D01*
X311987Y165019D01*
X311795Y165141D01*
X311601Y165236D01*
X311403Y165304D01*
X311203Y165345D01*
X311000Y165358D01*
X311209Y166358D01*
X311378Y166369D01*
X311562Y166401D01*
X311762Y166455D01*
X311978Y166530D01*
X312209Y166626D01*
X312719Y166883D01*
X312997Y167044D01*
X313601Y167430D01*
X312901Y164001D01*
D02*
G37*
G36*
X141013Y184831D02*
X140612Y184363D01*
X140450Y184139D01*
X140313Y183919D01*
X140200Y183706D01*
X140112Y183498D01*
X140050Y183296D01*
X140013Y183099D01*
X140000Y182909D01*
X139000D01*
X138988Y183099D01*
X138950Y183296D01*
X138888Y183498D01*
X138800Y183706D01*
X138688Y183919D01*
X138550Y184139D01*
X138388Y184363D01*
X138200Y184594D01*
X137750Y185073D01*
X141250D01*
X141013Y184831D01*
D02*
G37*
G36*
X73160Y148249D02*
X73240Y148149D01*
X73335Y148061D01*
X73444Y147984D01*
X73569Y147920D01*
X73708Y147867D01*
X73862Y147826D01*
X74031Y147796D01*
X74215Y147778D01*
X74414Y147773D01*
Y146773D01*
X74249Y146766D01*
X74099Y146747D01*
X73966Y146715D01*
X73848Y146670D01*
X73746Y146612D01*
X73659Y146541D01*
X73589Y146458D01*
X73534Y146361D01*
X73495Y146252D01*
X73471Y146130D01*
X73096Y148361D01*
X73160Y148249D01*
D02*
G37*
G36*
X193970Y140378D02*
X193589Y140754D01*
X192875Y141388D01*
X192541Y141645D01*
X192223Y141863D01*
X191921Y142041D01*
X191634Y142180D01*
X191362Y142279D01*
X191106Y142339D01*
X190866Y142358D01*
Y143358D01*
X191106Y143378D01*
X191362Y143438D01*
X191634Y143536D01*
X191921Y143675D01*
X192223Y143853D01*
X192541Y144071D01*
X192875Y144329D01*
X193589Y144962D01*
X193970Y145339D01*
Y140378D01*
D02*
G37*
G36*
X248007Y185125D02*
X248032Y184919D01*
X248075Y184717D01*
X248137Y184517D01*
X248217Y184321D01*
X248314Y184128D01*
X248431Y183937D01*
X248565Y183750D01*
X248717Y183566D01*
X248888Y183385D01*
X247474Y181970D01*
X247292Y182141D01*
X247108Y182293D01*
X246921Y182428D01*
X246731Y182544D01*
X246537Y182642D01*
X246341Y182721D01*
X246141Y182783D01*
X245939Y182826D01*
X245733Y182851D01*
X245525Y182858D01*
X248000Y185333D01*
X248007Y185125D01*
D02*
G37*
G36*
X368975Y147858D02*
X368766Y147851D01*
X368561Y147826D01*
X368359Y147783D01*
X368159Y147721D01*
X367963Y147642D01*
X367769Y147544D01*
X367579Y147428D01*
X367392Y147293D01*
X367208Y147141D01*
X367026Y146970D01*
X365612Y148384D01*
X365783Y148566D01*
X365935Y148750D01*
X366069Y148937D01*
X366185Y149128D01*
X366283Y149321D01*
X366363Y149517D01*
X366425Y149717D01*
X366468Y149919D01*
X366493Y150125D01*
X366500Y150333D01*
X368975Y147858D01*
D02*
G37*
G36*
X240608Y179920D02*
X240480Y179757D01*
X240368Y179584D01*
X240270Y179399D01*
X240188Y179204D01*
X240120Y178998D01*
X240068Y178781D01*
X240030Y178554D01*
X240007Y178316D01*
X240000Y178067D01*
X238000D01*
X237993Y178316D01*
X237970Y178554D01*
X237932Y178781D01*
X237880Y178998D01*
X237812Y179204D01*
X237730Y179399D01*
X237632Y179584D01*
X237520Y179757D01*
X237392Y179920D01*
X237250Y180073D01*
X240750D01*
X240608Y179920D01*
D02*
G37*
G36*
X383975Y147858D02*
X383767Y147851D01*
X383561Y147826D01*
X383359Y147783D01*
X383159Y147721D01*
X382963Y147642D01*
X382769Y147544D01*
X382579Y147428D01*
X382392Y147293D01*
X382207Y147141D01*
X382026Y146970D01*
X380612Y148384D01*
X380783Y148566D01*
X380935Y148750D01*
X381069Y148937D01*
X381186Y149128D01*
X381283Y149321D01*
X381363Y149517D01*
X381425Y149717D01*
X381468Y149919D01*
X381493Y150125D01*
X381500Y150333D01*
X383975Y147858D01*
D02*
G37*
G36*
X229475Y204358D02*
X229110Y204356D01*
X228456Y204313D01*
X228168Y204273D01*
X227905Y204221D01*
X227668Y204156D01*
X227457Y204078D01*
X227272Y203988D01*
X227112Y203885D01*
X226977Y203770D01*
X226412Y204335D01*
X226527Y204470D01*
X226629Y204630D01*
X226720Y204815D01*
X226797Y205027D01*
X226862Y205264D01*
X226915Y205526D01*
X226955Y205815D01*
X226998Y206468D01*
X227000Y206833D01*
X229475Y204358D01*
D02*
G37*
G36*
X226921Y148280D02*
X226983Y148036D01*
X227087Y147772D01*
X227233Y147489D01*
X227420Y147187D01*
X227649Y146866D01*
X228231Y146166D01*
X228585Y145787D01*
X228980Y145389D01*
X224020D01*
X224415Y145787D01*
X225351Y146866D01*
X225580Y147187D01*
X225767Y147489D01*
X225913Y147772D01*
X226017Y148036D01*
X226079Y148280D01*
X226100Y148505D01*
X226900D01*
X226921Y148280D01*
D02*
G37*
G36*
X207020Y148252D02*
X207079Y147996D01*
X207178Y147725D01*
X207317Y147438D01*
X207495Y147135D01*
X207713Y146817D01*
X207970Y146483D01*
X208604Y145769D01*
X208980Y145389D01*
X204020D01*
X204396Y145769D01*
X205030Y146483D01*
X205287Y146817D01*
X205505Y147135D01*
X205683Y147438D01*
X205822Y147725D01*
X205921Y147996D01*
X205980Y148252D01*
X206000Y148492D01*
X207000D01*
X207020Y148252D01*
D02*
G37*
%LPC*%
G36*
X645520Y129402D02*
X645422D01*
X644266Y129092D01*
X643230Y128494D01*
X642384Y127648D01*
X641786Y126612D01*
X641476Y125456D01*
Y125358D01*
X645520D01*
Y129402D01*
D02*
G37*
G36*
X773678Y126108D02*
X773520D01*
Y121608D01*
X778020D01*
Y121766D01*
X777679Y123038D01*
X777021Y124178D01*
X776090Y125109D01*
X774950Y125768D01*
X773678Y126108D01*
D02*
G37*
G36*
X626578Y129102D02*
X625461D01*
X624382Y128812D01*
X623414Y128254D01*
X622624Y127464D01*
X622065Y126496D01*
X621776Y125417D01*
Y124300D01*
X622065Y123220D01*
X622624Y122253D01*
X623414Y121463D01*
X624382Y120904D01*
X625461Y120615D01*
X626578D01*
X627658Y120904D01*
X628625Y121463D01*
X629415Y122253D01*
X629974Y123220D01*
X630263Y124300D01*
Y125417D01*
X629974Y126496D01*
X629415Y127464D01*
X628625Y128254D01*
X627658Y128812D01*
X626578Y129102D01*
D02*
G37*
G36*
X610263D02*
X601776D01*
Y120615D01*
X610263D01*
Y129102D01*
D02*
G37*
G36*
X645520Y124358D02*
X641476D01*
Y124260D01*
X641786Y123105D01*
X642384Y122069D01*
X643230Y121223D01*
X644266Y120625D01*
X645422Y120315D01*
X645520D01*
Y124358D01*
D02*
G37*
G36*
X778020Y120608D02*
X773520D01*
Y116108D01*
X773678D01*
X774950Y116449D01*
X776090Y117107D01*
X777021Y118038D01*
X777679Y119178D01*
X778020Y120450D01*
Y120608D01*
D02*
G37*
G36*
X772520Y126108D02*
X772361D01*
X771090Y125768D01*
X769950Y125109D01*
X769019Y124178D01*
X768360Y123038D01*
X768020Y121766D01*
Y121651D01*
X767637Y121574D01*
X767240Y121309D01*
X753513Y107582D01*
X707526D01*
X706601Y108508D01*
X706540Y108596D01*
X706477Y108717D01*
X706416Y108865D01*
X706362Y109040D01*
X706329Y109185D01*
X706509Y109858D01*
X705533D01*
X705570Y109381D01*
X705615Y109107D01*
X705672Y108855D01*
X705744Y108624D01*
X705829Y108415D01*
X705928Y108228D01*
X706040Y108063D01*
X706166Y107919D01*
X705459Y107212D01*
X705315Y107338D01*
X705150Y107450D01*
X704963Y107549D01*
X704754Y107634D01*
X704523Y107705D01*
X704271Y107763D01*
X704082Y107794D01*
X703970Y107639D01*
X703832Y107419D01*
X703720Y107206D01*
X703632Y106998D01*
X703570Y106796D01*
X703532Y106599D01*
X703520Y106409D01*
X702520D01*
X702507Y106599D01*
X702470Y106796D01*
X702407Y106998D01*
X702320Y107206D01*
X702207Y107419D01*
X702070Y107639D01*
X701907Y107863D01*
X701720Y108094D01*
X701270Y108573D01*
X703759D01*
X705045Y109858D01*
X699530D01*
X699758Y109007D01*
X700219Y108209D01*
X700871Y107558D01*
X701509Y107189D01*
X701588Y107063D01*
X701674Y106900D01*
X701736Y106753D01*
X701776Y106623D01*
X701796Y106518D01*
Y84699D01*
X701776Y84594D01*
X701736Y84463D01*
X701674Y84316D01*
X701588Y84154D01*
X701509Y84028D01*
X700871Y83659D01*
X700219Y83007D01*
X699758Y82209D01*
X699530Y81358D01*
X706509D01*
X706281Y82209D01*
X705820Y83007D01*
X705169Y83659D01*
X704530Y84028D01*
X704451Y84154D01*
X704365Y84316D01*
X704304Y84463D01*
X704263Y84594D01*
X704243Y84699D01*
Y106518D01*
X704246Y106531D01*
X704286Y106596D01*
X704431Y106714D01*
X704599Y106783D01*
X704785Y106802D01*
X704859Y106785D01*
X704870Y106778D01*
X706154Y105493D01*
X706552Y105228D01*
X707020Y105135D01*
X754020D01*
X754488Y105228D01*
X754885Y105493D01*
X768147Y118755D01*
X768643Y118690D01*
X769019Y118038D01*
X769950Y117107D01*
X771090Y116449D01*
X772361Y116108D01*
X772520D01*
Y121108D01*
Y126108D01*
D02*
G37*
G36*
X646618Y129402D02*
X646520D01*
Y124858D01*
Y120315D01*
X646618D01*
X647773Y120625D01*
X648809Y121223D01*
X649655Y122069D01*
X650099Y122836D01*
X650100Y122838D01*
X650398Y123068D01*
X650680Y123260D01*
X650936Y123412D01*
X651164Y123522D01*
X651361Y123594D01*
X651524Y123631D01*
X651564Y123635D01*
X688013D01*
X699439Y112209D01*
X699499Y112120D01*
X699563Y111999D01*
X699623Y111852D01*
X699677Y111676D01*
X699711Y111531D01*
X699530Y110858D01*
X700506D01*
X700469Y111336D01*
X700425Y111610D01*
X700367Y111862D01*
X700295Y112092D01*
X700210Y112301D01*
X700112Y112488D01*
X699999Y112654D01*
X699873Y112797D01*
X700581Y113505D01*
X700724Y113379D01*
X700889Y113266D01*
X701077Y113168D01*
X701286Y113082D01*
X701516Y113011D01*
X701768Y112953D01*
X702042Y112909D01*
X702338Y112878D01*
X702520Y112873D01*
Y113848D01*
X701847Y113667D01*
X701702Y113701D01*
X701526Y113755D01*
X701378Y113815D01*
X701258Y113879D01*
X701169Y113939D01*
X689385Y125723D01*
X688988Y125989D01*
X688520Y126082D01*
X651564D01*
X651524Y126085D01*
X651361Y126123D01*
X651164Y126195D01*
X650936Y126305D01*
X650680Y126456D01*
X650398Y126649D01*
X650100Y126879D01*
X650099Y126880D01*
X649655Y127648D01*
X648809Y128494D01*
X647773Y129092D01*
X646618Y129402D01*
D02*
G37*
G36*
X703520Y113848D02*
Y110858D01*
X706509D01*
X706281Y111709D01*
X705820Y112507D01*
X705169Y113159D01*
X704371Y113620D01*
X703520Y113848D01*
D02*
G37*
G36*
X702520Y112383D02*
X700995Y110858D01*
X702520D01*
Y112383D01*
D02*
G37*
G36*
X777720Y112308D02*
X768320D01*
Y102908D01*
X777720D01*
Y112308D01*
D02*
G37*
G36*
X527020Y105848D02*
X526169Y105620D01*
X525371Y105159D01*
X524719Y104507D01*
X524258Y103709D01*
X524030Y102858D01*
X527020D01*
Y105848D01*
D02*
G37*
G36*
X548520Y105348D02*
Y102358D01*
X551509D01*
X551281Y103209D01*
X550820Y104007D01*
X550169Y104659D01*
X549371Y105120D01*
X548520Y105348D01*
D02*
G37*
G36*
X527020Y101858D02*
X524030D01*
X524258Y101007D01*
X524719Y100209D01*
X525371Y99558D01*
X526169Y99097D01*
X527020Y98869D01*
Y101858D01*
D02*
G37*
G36*
X551509Y101358D02*
X548520D01*
Y98369D01*
X549371Y98597D01*
X550169Y99058D01*
X550820Y99709D01*
X551281Y100507D01*
X551509Y101358D01*
D02*
G37*
G36*
X528020Y105848D02*
Y102358D01*
Y98869D01*
X528871Y99097D01*
X529669Y99558D01*
X530320Y100209D01*
X530391Y100332D01*
X530609Y100442D01*
X530796Y100520D01*
X530967Y100579D01*
X531111Y100618D01*
X531209Y100635D01*
X544179D01*
X544284Y100615D01*
X544415Y100574D01*
X544562Y100513D01*
X544724Y100427D01*
X544850Y100348D01*
X545219Y99709D01*
X545871Y99058D01*
X546669Y98597D01*
X547520Y98369D01*
Y101858D01*
Y105348D01*
X546669Y105120D01*
X545871Y104659D01*
X545219Y104007D01*
X544850Y103369D01*
X544724Y103290D01*
X544562Y103204D01*
X544415Y103142D01*
X544284Y103102D01*
X544179Y103082D01*
X531407D01*
X531304Y103103D01*
X531193Y103141D01*
X531074Y103199D01*
X530948Y103280D01*
X530882Y103331D01*
X530781Y103709D01*
X530320Y104507D01*
X529669Y105159D01*
X528871Y105620D01*
X528020Y105848D01*
D02*
G37*
G36*
X636578Y129102D02*
X635461D01*
X634382Y128812D01*
X633414Y128254D01*
X632624Y127464D01*
X632065Y126496D01*
X631776Y125417D01*
Y124300D01*
X632065Y123220D01*
X632624Y122253D01*
X632995Y121882D01*
X633032Y121826D01*
X633394Y121459D01*
X633999Y120778D01*
X634229Y120480D01*
X634422Y120198D01*
X634573Y119942D01*
X634683Y119714D01*
X634755Y119517D01*
X634793Y119354D01*
X634796Y119314D01*
Y118858D01*
X634889Y118390D01*
X635154Y117993D01*
X643796Y109352D01*
Y90058D01*
X643598D01*
X642785Y89840D01*
X642055Y89419D01*
X641459Y88823D01*
X641038Y88093D01*
X640820Y87280D01*
Y86437D01*
X641038Y85623D01*
X641459Y84893D01*
X642055Y84298D01*
X642785Y83876D01*
X643598Y83658D01*
X644441D01*
X645255Y83876D01*
X645985Y84298D01*
X646580Y84893D01*
X647002Y85623D01*
X647220Y86437D01*
Y87280D01*
X647002Y88093D01*
X646580Y88823D01*
X646196Y89207D01*
X646243Y89444D01*
Y109858D01*
X646150Y110327D01*
X645885Y110723D01*
X637248Y119360D01*
X637284Y119517D01*
X637356Y119714D01*
X637466Y119942D01*
X637617Y120198D01*
X637810Y120480D01*
X638040Y120778D01*
X638645Y121459D01*
X639007Y121826D01*
X639045Y121882D01*
X639415Y122253D01*
X639974Y123220D01*
X640263Y124300D01*
Y125417D01*
X639974Y126496D01*
X639415Y127464D01*
X638625Y128254D01*
X637657Y128812D01*
X636578Y129102D01*
D02*
G37*
G36*
X582270Y128092D02*
X467520D01*
X466856Y127960D01*
X466294Y127584D01*
X459732Y121022D01*
X459692Y120989D01*
X459546Y120884D01*
X459403Y120797D01*
X459261Y120725D01*
X459121Y120668D01*
X458981Y120625D01*
X458840Y120595D01*
X458698Y120577D01*
X458521Y120571D01*
X458464Y120558D01*
X458098D01*
X457284Y120340D01*
X456555Y119919D01*
X455959Y119323D01*
X455538Y118593D01*
X455320Y117780D01*
Y116937D01*
X455538Y116123D01*
X455959Y115393D01*
X456555Y114798D01*
X457284Y114376D01*
X458098Y114158D01*
X458941D01*
X459755Y114376D01*
X460485Y114798D01*
X461080Y115393D01*
X461502Y116123D01*
X461720Y116937D01*
Y117303D01*
X461733Y117359D01*
X461739Y117536D01*
X461756Y117679D01*
X461786Y117819D01*
X461830Y117959D01*
X461886Y118099D01*
X461958Y118241D01*
X462046Y118385D01*
X462150Y118531D01*
X462184Y118571D01*
X468238Y124625D01*
X581552D01*
X601786Y104390D01*
Y89306D01*
X601782Y89254D01*
X601752Y89078D01*
X601713Y88914D01*
X601663Y88763D01*
X601604Y88624D01*
X601536Y88494D01*
X601458Y88374D01*
X601369Y88260D01*
X601248Y88131D01*
X601218Y88082D01*
X600959Y87823D01*
X600538Y87093D01*
X600320Y86280D01*
Y85437D01*
X600538Y84623D01*
X600959Y83893D01*
X601555Y83298D01*
X602284Y82876D01*
X603098Y82658D01*
X603941D01*
X604755Y82876D01*
X605484Y83298D01*
X606080Y83893D01*
X606502Y84623D01*
X606720Y85437D01*
Y86280D01*
X606502Y87093D01*
X606080Y87823D01*
X605822Y88082D01*
X605791Y88131D01*
X605670Y88261D01*
X605582Y88374D01*
X605504Y88494D01*
X605435Y88624D01*
X605376Y88763D01*
X605327Y88914D01*
X605287Y89078D01*
X605258Y89254D01*
X605253Y89306D01*
Y105108D01*
X605121Y105772D01*
X604745Y106334D01*
X583495Y127584D01*
X582933Y127960D01*
X582270Y128092D01*
D02*
G37*
G36*
X559020Y122092D02*
X559020Y122092D01*
X476520D01*
X475856Y121960D01*
X475294Y121584D01*
X474732Y121022D01*
X474692Y120989D01*
X474546Y120884D01*
X474403Y120797D01*
X474261Y120725D01*
X474121Y120668D01*
X473981Y120625D01*
X473840Y120595D01*
X473698Y120577D01*
X473521Y120571D01*
X473464Y120558D01*
X473098D01*
X472285Y120340D01*
X471555Y119919D01*
X470959Y119323D01*
X470538Y118593D01*
X470320Y117780D01*
Y116937D01*
X470538Y116123D01*
X470959Y115393D01*
X471555Y114798D01*
X472285Y114376D01*
X473098Y114158D01*
X473941D01*
X474755Y114376D01*
X475485Y114798D01*
X476080Y115393D01*
X476502Y116123D01*
X476720Y116937D01*
Y117303D01*
X476733Y117359D01*
X476739Y117536D01*
X476756Y117679D01*
X476786Y117819D01*
X476829Y117959D01*
X476886Y118099D01*
X476958Y118241D01*
X477046Y118385D01*
X477150Y118531D01*
X477183Y118571D01*
X477238Y118625D01*
X558302D01*
X593356Y83571D01*
X593389Y83531D01*
X593494Y83385D01*
X593581Y83241D01*
X593653Y83100D01*
X593710Y82959D01*
X593753Y82819D01*
X593783Y82679D01*
X593801Y82536D01*
X593807Y82359D01*
X593820Y82303D01*
Y81937D01*
X594038Y81123D01*
X594459Y80393D01*
X595055Y79798D01*
X595785Y79376D01*
X596598Y79158D01*
X597441D01*
X598255Y79376D01*
X598984Y79798D01*
X599580Y80393D01*
X600002Y81123D01*
X600220Y81937D01*
Y82780D01*
X600002Y83593D01*
X599580Y84323D01*
X598984Y84919D01*
X598255Y85340D01*
X597441Y85558D01*
X597075D01*
X597019Y85571D01*
X596842Y85577D01*
X596699Y85595D01*
X596559Y85625D01*
X596419Y85668D01*
X596278Y85725D01*
X596137Y85797D01*
X595993Y85884D01*
X595847Y85989D01*
X595807Y86022D01*
X560245Y121584D01*
X560245Y121584D01*
X559683Y121960D01*
X559020Y122092D01*
D02*
G37*
G36*
X702520Y80358D02*
X700995D01*
X702520Y78833D01*
Y80358D01*
D02*
G37*
G36*
X706509D02*
X703520D01*
Y77369D01*
X704371Y77597D01*
X705169Y78058D01*
X705820Y78709D01*
X706281Y79507D01*
X706509Y80358D01*
D02*
G37*
G36*
X700505D02*
X699530D01*
X699711Y79685D01*
X699677Y79540D01*
X699623Y79365D01*
X699563Y79217D01*
X699499Y79096D01*
X699439Y79008D01*
X693654Y73223D01*
X693654Y73223D01*
X684013Y63582D01*
X641212D01*
X640907Y63978D01*
X641009Y64358D01*
X638020D01*
Y61369D01*
X638871Y61597D01*
X638976Y61658D01*
X638978Y61657D01*
X639038Y61609D01*
X639154Y61493D01*
X639551Y61228D01*
X640020Y61135D01*
X684520D01*
X684988Y61228D01*
X685385Y61493D01*
X692834Y68942D01*
X693296Y68751D01*
Y37699D01*
X693276Y37594D01*
X693236Y37463D01*
X693174Y37316D01*
X693088Y37154D01*
X693009Y37028D01*
X692371Y36659D01*
X691719Y36007D01*
X691258Y35209D01*
X691030Y34358D01*
X698009D01*
X697781Y35209D01*
X697320Y36007D01*
X696669Y36659D01*
X696030Y37028D01*
X695951Y37154D01*
X695865Y37316D01*
X695804Y37463D01*
X695763Y37594D01*
X695743Y37699D01*
Y71333D01*
X695754Y71433D01*
X695779Y71563D01*
X695813Y71686D01*
X695856Y71804D01*
X695909Y71919D01*
X695973Y72030D01*
X696047Y72140D01*
X696110Y72218D01*
X701169Y77277D01*
X701258Y77338D01*
X701379Y77401D01*
X701526Y77461D01*
X701702Y77516D01*
X701847Y77549D01*
X702520Y77369D01*
Y78345D01*
X702042Y78308D01*
X701768Y78263D01*
X701516Y78206D01*
X701286Y78134D01*
X701077Y78049D01*
X700889Y77950D01*
X700724Y77838D01*
X700581Y77712D01*
X699873Y78419D01*
X699999Y78563D01*
X700112Y78728D01*
X700210Y78915D01*
X700295Y79124D01*
X700367Y79355D01*
X700425Y79607D01*
X700469Y79881D01*
X700499Y80177D01*
X700505Y80358D01*
D02*
G37*
G36*
X584020Y79848D02*
Y76858D01*
X587009D01*
X586781Y77709D01*
X586320Y78507D01*
X585669Y79159D01*
X584871Y79620D01*
X584020Y79848D01*
D02*
G37*
G36*
X638020Y68348D02*
Y65358D01*
X641009D01*
X640781Y66209D01*
X640320Y67007D01*
X639669Y67659D01*
X638871Y68120D01*
X638020Y68348D01*
D02*
G37*
G36*
X637020D02*
X636169Y68120D01*
X635371Y67659D01*
X634719Y67007D01*
X634258Y66209D01*
X634030Y65358D01*
X637020D01*
Y68348D01*
D02*
G37*
G36*
Y64358D02*
X635495D01*
X637020Y62833D01*
Y64358D01*
D02*
G37*
G36*
X635005D02*
X634030D01*
X634210Y63685D01*
X634177Y63540D01*
X634123Y63365D01*
X634063Y63217D01*
X633999Y63096D01*
X633939Y63008D01*
X628013Y57082D01*
X592860D01*
X592755Y57102D01*
X592625Y57142D01*
X592478Y57204D01*
X592315Y57290D01*
X592189Y57369D01*
X591820Y58007D01*
X591169Y58659D01*
X590371Y59120D01*
X589520Y59348D01*
Y55858D01*
Y53833D01*
X590805Y55119D01*
Y57608D01*
X591047Y57371D01*
X591514Y56971D01*
X591739Y56808D01*
X591959Y56671D01*
X592172Y56558D01*
X592380Y56471D01*
X592582Y56408D01*
X592778Y56371D01*
X592969Y56358D01*
Y55358D01*
X592778Y55346D01*
X592582Y55308D01*
X592380Y55246D01*
X592172Y55158D01*
X591959Y55046D01*
X591739Y54908D01*
X591584Y54796D01*
X591615Y54607D01*
X591672Y54355D01*
X591744Y54124D01*
X591829Y53915D01*
X591928Y53728D01*
X592040Y53563D01*
X592166Y53419D01*
X591459Y52712D01*
X591315Y52838D01*
X591150Y52950D01*
X590963Y53049D01*
X590754Y53134D01*
X590523Y53206D01*
X590271Y53263D01*
X589997Y53308D01*
X589701Y53338D01*
X589520Y53344D01*
Y52369D01*
X590193Y52549D01*
X590338Y52516D01*
X590513Y52461D01*
X590661Y52401D01*
X590782Y52338D01*
X590870Y52277D01*
X595296Y47851D01*
Y30699D01*
X595276Y30594D01*
X595236Y30463D01*
X595174Y30316D01*
X595088Y30154D01*
X595009Y30028D01*
X594371Y29659D01*
X593719Y29007D01*
X593258Y28209D01*
X593030Y27358D01*
X600009D01*
X599781Y28209D01*
X599320Y29007D01*
X598669Y29659D01*
X598030Y30028D01*
X597951Y30154D01*
X597865Y30316D01*
X597804Y30463D01*
X597763Y30594D01*
X597743Y30699D01*
Y48358D01*
X597650Y48827D01*
X597385Y49223D01*
X592600Y54008D01*
X592593Y54019D01*
X592575Y54093D01*
X592594Y54279D01*
X592664Y54447D01*
X592782Y54592D01*
X592847Y54632D01*
X592860Y54635D01*
X628520D01*
X628988Y54728D01*
X629385Y54993D01*
X635669Y61278D01*
X635758Y61338D01*
X635879Y61401D01*
X636026Y61462D01*
X636202Y61516D01*
X636347Y61549D01*
X637020Y61369D01*
Y62345D01*
X636542Y62308D01*
X636268Y62263D01*
X636016Y62206D01*
X635785Y62134D01*
X635577Y62049D01*
X635390Y61950D01*
X635224Y61838D01*
X635080Y61712D01*
X634373Y62419D01*
X634499Y62563D01*
X634612Y62728D01*
X634710Y62915D01*
X634796Y63124D01*
X634867Y63355D01*
X634925Y63607D01*
X634969Y63881D01*
X635000Y64177D01*
X635005Y64358D01*
D02*
G37*
G36*
X583020Y79848D02*
X582169Y79620D01*
X581371Y79159D01*
X580719Y78507D01*
X580258Y77709D01*
X580020Y76819D01*
Y76545D01*
X579889Y76458D01*
X557870Y54439D01*
X557782Y54379D01*
X557661Y54315D01*
X557513Y54255D01*
X557338Y54201D01*
X557193Y54167D01*
X556520Y54348D01*
Y53372D01*
X556997Y53409D01*
X557271Y53453D01*
X557523Y53511D01*
X557754Y53582D01*
X557963Y53667D01*
X558150Y53766D01*
X558315Y53879D01*
X558459Y54005D01*
X559166Y53297D01*
X559040Y53154D01*
X558928Y52988D01*
X558829Y52801D01*
X558744Y52592D01*
X558672Y52362D01*
X558615Y52110D01*
X558570Y51836D01*
X558540Y51540D01*
X558534Y51358D01*
X559509D01*
X559329Y52031D01*
X559362Y52176D01*
X559416Y52352D01*
X559477Y52499D01*
X559540Y52620D01*
X559600Y52709D01*
X580910Y74018D01*
X581371Y73558D01*
X582009Y73189D01*
X582088Y73063D01*
X582174Y72900D01*
X582236Y72753D01*
X582276Y72623D01*
X582296Y72518D01*
Y61358D01*
X582389Y60890D01*
X582654Y60493D01*
X585439Y57709D01*
X585499Y57620D01*
X585563Y57499D01*
X585623Y57352D01*
X585677Y57176D01*
X585710Y57031D01*
X585530Y56358D01*
X586506D01*
X586469Y56836D01*
X586425Y57110D01*
X586367Y57362D01*
X586296Y57592D01*
X586210Y57801D01*
X586112Y57988D01*
X585999Y58154D01*
X585873Y58297D01*
X586581Y59004D01*
X586724Y58879D01*
X586890Y58766D01*
X587077Y58667D01*
X587286Y58582D01*
X587516Y58511D01*
X587768Y58453D01*
X588042Y58409D01*
X588338Y58378D01*
X588520Y58373D01*
Y59348D01*
X587847Y59167D01*
X587702Y59201D01*
X587526Y59255D01*
X587379Y59315D01*
X587258Y59379D01*
X587169Y59439D01*
X584743Y61865D01*
Y72518D01*
X584763Y72623D01*
X584804Y72753D01*
X584866Y72900D01*
X584951Y73063D01*
X585030Y73189D01*
X585669Y73558D01*
X586320Y74209D01*
X586781Y75007D01*
X587009Y75858D01*
X583520D01*
Y76358D01*
X583020D01*
Y79848D01*
D02*
G37*
G36*
X616578Y129102D02*
X615461D01*
X614382Y128812D01*
X613414Y128254D01*
X612624Y127464D01*
X612066Y126496D01*
X611776Y125417D01*
Y124300D01*
X612066Y123220D01*
X612624Y122253D01*
X612995Y121882D01*
X613033Y121825D01*
X613420Y121435D01*
X613753Y121079D01*
X614305Y120415D01*
X614505Y120134D01*
X614665Y119875D01*
X614782Y119649D01*
X614856Y119461D01*
X614893Y119315D01*
X614898Y119264D01*
Y64352D01*
X614783Y64296D01*
X614633Y64241D01*
X614450Y64191D01*
X614232Y64147D01*
X613991Y64114D01*
X613384Y64074D01*
X613040Y64072D01*
X612974Y64058D01*
X612598D01*
X611785Y63840D01*
X611055Y63419D01*
X610459Y62823D01*
X610038Y62093D01*
X609820Y61280D01*
Y60437D01*
X610038Y59623D01*
X610459Y58893D01*
X611055Y58298D01*
X611785Y57876D01*
X612598Y57658D01*
X613441D01*
X614255Y57876D01*
X614985Y58298D01*
X615580Y58893D01*
X616002Y59623D01*
X616220Y60437D01*
Y60813D01*
X616233Y60878D01*
X616236Y61223D01*
X616275Y61830D01*
X616309Y62071D01*
X616352Y62288D01*
X616403Y62472D01*
X616458Y62621D01*
X616514Y62737D01*
X616566Y62819D01*
X616813Y63065D01*
X617056Y63429D01*
X617141Y63858D01*
X617141Y63858D01*
Y119264D01*
X617146Y119315D01*
X617183Y119461D01*
X617258Y119649D01*
X617374Y119875D01*
X617534Y120134D01*
X617730Y120409D01*
X618628Y121444D01*
X619006Y121825D01*
X619044Y121882D01*
X619415Y122253D01*
X619974Y123220D01*
X620263Y124300D01*
Y125417D01*
X619974Y126496D01*
X619415Y127464D01*
X618625Y128254D01*
X617658Y128812D01*
X616578Y129102D01*
D02*
G37*
G36*
X588520Y57883D02*
X586995Y56358D01*
X588520D01*
Y57883D01*
D02*
G37*
G36*
X746103Y63011D02*
X744779D01*
X743499Y62668D01*
X742352Y62006D01*
X741415Y61069D01*
X740753Y59922D01*
X740410Y58643D01*
Y57318D01*
X740753Y56039D01*
X741415Y54892D01*
X742352Y53955D01*
X743499Y53293D01*
X744779Y52950D01*
X746103D01*
X747383Y53293D01*
X748530Y53955D01*
X749467Y54892D01*
X750129Y56039D01*
X750472Y57318D01*
Y58643D01*
X750129Y59922D01*
X749467Y61069D01*
X748530Y62006D01*
X747383Y62668D01*
X746103Y63011D01*
D02*
G37*
G36*
X588520Y55358D02*
X585530D01*
X585758Y54507D01*
X586219Y53709D01*
X586871Y53058D01*
X587669Y52597D01*
X588520Y52369D01*
Y55358D01*
D02*
G37*
G36*
X556520Y52883D02*
Y51358D01*
X558044D01*
X556520Y52883D01*
D02*
G37*
G36*
X555520Y54348D02*
X554669Y54120D01*
X553871Y53659D01*
X553219Y53007D01*
X552758Y52209D01*
X552530Y51358D01*
X555520D01*
Y54348D01*
D02*
G37*
G36*
X559509Y50358D02*
X556520D01*
Y47369D01*
X557371Y47597D01*
X558169Y48058D01*
X558820Y48709D01*
X559281Y49507D01*
X559509Y50358D01*
D02*
G37*
G36*
X555520D02*
X552530D01*
X552758Y49507D01*
X553219Y48709D01*
X553871Y48058D01*
X554669Y47597D01*
X555520Y47369D01*
Y50358D01*
D02*
G37*
G36*
X669941Y55558D02*
X669098D01*
X668285Y55340D01*
X667555Y54919D01*
X666959Y54323D01*
X666538Y53593D01*
X666320Y52780D01*
Y52412D01*
X666306Y52355D01*
X666287Y51724D01*
X666261Y51474D01*
X666224Y51244D01*
X666177Y51040D01*
X666123Y50865D01*
X666063Y50717D01*
X665999Y50596D01*
X665939Y50508D01*
X661513Y46082D01*
X631360D01*
X631255Y46102D01*
X631125Y46142D01*
X630978Y46204D01*
X630815Y46290D01*
X630638Y46400D01*
X630456Y46532D01*
X630030Y46897D01*
X629805Y47118D01*
X629749Y47154D01*
X629485Y47419D01*
X628755Y47840D01*
X627941Y48058D01*
X627098D01*
X626285Y47840D01*
X625555Y47419D01*
X624959Y46823D01*
X624538Y46093D01*
X624320Y45280D01*
Y44437D01*
X624538Y43623D01*
X624959Y42893D01*
X625555Y42298D01*
X626285Y41876D01*
X627098Y41658D01*
X627941D01*
X628755Y41876D01*
X629485Y42298D01*
X629744Y42557D01*
X629794Y42588D01*
X630254Y43021D01*
X630449Y43179D01*
X630638Y43316D01*
X630815Y43427D01*
X630978Y43512D01*
X631124Y43574D01*
X631255Y43615D01*
X631360Y43635D01*
X662020D01*
X662488Y43728D01*
X662885Y43993D01*
X667669Y48777D01*
X667758Y48838D01*
X667879Y48901D01*
X668026Y48961D01*
X668202Y49016D01*
X668405Y49062D01*
X668627Y49098D01*
X669187Y49142D01*
X669502Y49145D01*
X669566Y49158D01*
X669941D01*
X670755Y49376D01*
X671485Y49798D01*
X672080Y50393D01*
X672502Y51123D01*
X672720Y51937D01*
Y52780D01*
X672502Y53593D01*
X672080Y54323D01*
X671485Y54919D01*
X670755Y55340D01*
X669941Y55558D01*
D02*
G37*
G36*
X556520Y44848D02*
Y41858D01*
X559509D01*
X559281Y42709D01*
X558820Y43507D01*
X558169Y44159D01*
X557371Y44620D01*
X556520Y44848D01*
D02*
G37*
G36*
X559509Y40858D02*
X556520D01*
Y37869D01*
X557371Y38097D01*
X558169Y38558D01*
X558820Y39209D01*
X559281Y40007D01*
X559509Y40858D01*
D02*
G37*
G36*
X555520Y44848D02*
X554669Y44620D01*
X553871Y44159D01*
X553219Y43507D01*
X552850Y42869D01*
X552724Y42790D01*
X552562Y42704D01*
X552415Y42642D01*
X552284Y42602D01*
X552179Y42582D01*
X500520D01*
X500051Y42489D01*
X499654Y42223D01*
X480870Y23439D01*
X480782Y23379D01*
X480661Y23315D01*
X480513Y23255D01*
X480338Y23201D01*
X480193Y23167D01*
X479520Y23348D01*
Y22372D01*
X479997Y22409D01*
X480271Y22453D01*
X480523Y22511D01*
X480754Y22582D01*
X480963Y22668D01*
X481150Y22766D01*
X481315Y22879D01*
X481459Y23005D01*
X482166Y22297D01*
X482040Y22154D01*
X481928Y21988D01*
X481829Y21801D01*
X481744Y21592D01*
X481672Y21362D01*
X481615Y21110D01*
X481570Y20836D01*
X481540Y20540D01*
X481534Y20358D01*
X482509D01*
X482329Y21031D01*
X482362Y21176D01*
X482416Y21352D01*
X482477Y21499D01*
X482540Y21620D01*
X482600Y21709D01*
X501026Y40135D01*
X552179D01*
X552284Y40115D01*
X552415Y40074D01*
X552562Y40012D01*
X552724Y39927D01*
X552850Y39848D01*
X553219Y39209D01*
X553871Y38558D01*
X554669Y38097D01*
X555520Y37869D01*
Y41358D01*
Y44848D01*
D02*
G37*
G36*
X698009Y33358D02*
X695020D01*
Y30369D01*
X695871Y30597D01*
X696669Y31058D01*
X697320Y31709D01*
X697781Y32507D01*
X698009Y33358D01*
D02*
G37*
G36*
X694020D02*
X691030D01*
X691258Y32507D01*
X691719Y31709D01*
X692371Y31058D01*
X693169Y30597D01*
X694020Y30369D01*
Y33358D01*
D02*
G37*
G36*
X738218Y40964D02*
X736916D01*
X735640Y40710D01*
X734438Y40212D01*
X733356Y39489D01*
X732436Y38569D01*
X731713Y37487D01*
X731215Y36285D01*
X730962Y35009D01*
Y33708D01*
X731215Y32432D01*
X731713Y31229D01*
X732436Y30148D01*
X733356Y29228D01*
X734438Y28505D01*
X735640Y28007D01*
X736916Y27753D01*
X738218D01*
X739494Y28007D01*
X740696Y28505D01*
X741778Y29228D01*
X742698Y30148D01*
X743421Y31229D01*
X743919Y32432D01*
X744172Y33708D01*
Y35009D01*
X743919Y36285D01*
X743421Y37487D01*
X742698Y38569D01*
X741778Y39489D01*
X740696Y40212D01*
X739494Y40710D01*
X738218Y40964D01*
D02*
G37*
G36*
X600009Y26358D02*
X597020D01*
Y23369D01*
X597871Y23597D01*
X598669Y24058D01*
X599320Y24709D01*
X599781Y25507D01*
X600009Y26358D01*
D02*
G37*
G36*
X596020D02*
X593030D01*
X593258Y25507D01*
X593719Y24709D01*
X594371Y24058D01*
X595169Y23597D01*
X596020Y23369D01*
Y26358D01*
D02*
G37*
G36*
X479520Y21883D02*
Y20358D01*
X481044D01*
X479520Y21883D01*
D02*
G37*
G36*
X478520Y23348D02*
X477669Y23120D01*
X476871Y22659D01*
X476219Y22007D01*
X475758Y21209D01*
X475530Y20358D01*
X478520D01*
Y23348D01*
D02*
G37*
G36*
X482509Y19358D02*
X479520D01*
Y16369D01*
X480371Y16597D01*
X481169Y17058D01*
X481820Y17709D01*
X482281Y18507D01*
X482509Y19358D01*
D02*
G37*
G36*
X478520D02*
X475530D01*
X475758Y18507D01*
X476219Y17709D01*
X476871Y17058D01*
X477669Y16597D01*
X478520Y16369D01*
Y19358D01*
D02*
G37*
G36*
X746103Y15767D02*
X744779D01*
X743499Y15424D01*
X742352Y14762D01*
X741415Y13825D01*
X740753Y12678D01*
X740410Y11399D01*
Y10074D01*
X740753Y8794D01*
X741415Y7647D01*
X742352Y6711D01*
X743499Y6048D01*
X744779Y5706D01*
X746103D01*
X747383Y6048D01*
X748530Y6711D01*
X749467Y7647D01*
X750129Y8794D01*
X750472Y10074D01*
Y11399D01*
X750129Y12678D01*
X749467Y13825D01*
X748530Y14762D01*
X747383Y15424D01*
X746103Y15767D01*
D02*
G37*
%LPD*%
G36*
X769424Y119355D02*
X769359Y119467D01*
X769280Y119567D01*
X769185Y119656D01*
X769075Y119732D01*
X768951Y119797D01*
X768812Y119850D01*
X768657Y119891D01*
X768488Y119921D01*
X768304Y119938D01*
X768106Y119944D01*
Y120944D01*
X768271Y120950D01*
X768420Y120970D01*
X768554Y121002D01*
X768672Y121047D01*
X768774Y121105D01*
X768860Y121176D01*
X768931Y121259D01*
X768986Y121355D01*
X769025Y121465D01*
X769048Y121587D01*
X769424Y119355D01*
D02*
G37*
G36*
X703532Y84617D02*
X703570Y84421D01*
X703632Y84219D01*
X703720Y84011D01*
X703832Y83797D01*
X703970Y83578D01*
X704132Y83353D01*
X704320Y83122D01*
X704770Y82644D01*
X701270D01*
X701507Y82886D01*
X701907Y83353D01*
X702070Y83578D01*
X702207Y83797D01*
X702320Y84011D01*
X702407Y84219D01*
X702470Y84421D01*
X702507Y84617D01*
X702520Y84808D01*
X703520D01*
X703532Y84617D01*
D02*
G37*
G36*
X648931Y126962D02*
X649645Y126329D01*
X649978Y126071D01*
X650296Y125853D01*
X650599Y125675D01*
X650886Y125537D01*
X651157Y125437D01*
X651413Y125378D01*
X651653Y125358D01*
Y124358D01*
X651413Y124338D01*
X651157Y124279D01*
X650886Y124180D01*
X650599Y124041D01*
X650296Y123863D01*
X649978Y123645D01*
X649645Y123388D01*
X648931Y122754D01*
X648550Y122378D01*
Y127339D01*
X648931Y126962D01*
D02*
G37*
G36*
X529796Y103458D02*
X529976Y103227D01*
X530159Y103024D01*
X530344Y102847D01*
X530533Y102698D01*
X530725Y102576D01*
X530919Y102480D01*
X531116Y102413D01*
X531317Y102372D01*
X531520Y102358D01*
X531311Y101358D01*
X531142Y101348D01*
X530958Y101315D01*
X530758Y101262D01*
X530542Y101187D01*
X530310Y101090D01*
X529801Y100833D01*
X529522Y100672D01*
X528919Y100287D01*
X529619Y103716D01*
X529796Y103458D01*
D02*
G37*
G36*
X546234Y100108D02*
X545992Y100346D01*
X545525Y100746D01*
X545300Y100908D01*
X545081Y101046D01*
X544867Y101158D01*
X544659Y101246D01*
X544457Y101308D01*
X544261Y101346D01*
X544070Y101358D01*
Y102358D01*
X544261Y102371D01*
X544457Y102408D01*
X544659Y102471D01*
X544867Y102558D01*
X545081Y102671D01*
X545300Y102808D01*
X545525Y102971D01*
X545756Y103158D01*
X546234Y103608D01*
Y100108D01*
D02*
G37*
G36*
X638124Y121947D02*
X637490Y121233D01*
X637233Y120900D01*
X637015Y120581D01*
X636836Y120279D01*
X636698Y119992D01*
X636599Y119720D01*
X636540Y119465D01*
X636520Y119224D01*
X635520D01*
X635500Y119465D01*
X635440Y119720D01*
X635341Y119992D01*
X635203Y120279D01*
X635025Y120581D01*
X634807Y120900D01*
X634549Y121233D01*
X633916Y121947D01*
X633539Y122328D01*
X638500D01*
X638124Y121947D01*
D02*
G37*
G36*
X461908Y119332D02*
X461737Y119151D01*
X461585Y118966D01*
X461450Y118779D01*
X461334Y118589D01*
X461236Y118395D01*
X461157Y118199D01*
X461095Y118000D01*
X461052Y117797D01*
X461027Y117592D01*
X461020Y117383D01*
X458545Y119858D01*
X458753Y119865D01*
X458959Y119890D01*
X459161Y119934D01*
X459361Y119995D01*
X459557Y120075D01*
X459750Y120173D01*
X459941Y120289D01*
X460128Y120423D01*
X460312Y120576D01*
X460493Y120746D01*
X461908Y119332D01*
D02*
G37*
G36*
X604527Y89401D02*
X604550Y89163D01*
X604587Y88935D01*
X604640Y88719D01*
X604707Y88513D01*
X604790Y88317D01*
X604887Y88133D01*
X605000Y87959D01*
X605127Y87796D01*
X605270Y87644D01*
X601770D01*
X601912Y87796D01*
X602040Y87959D01*
X602152Y88133D01*
X602250Y88317D01*
X602332Y88513D01*
X602400Y88719D01*
X602452Y88935D01*
X602490Y89163D01*
X602512Y89401D01*
X602520Y89650D01*
X604520D01*
X604527Y89401D01*
D02*
G37*
G36*
X476908Y119332D02*
X476737Y119151D01*
X476585Y118966D01*
X476450Y118779D01*
X476334Y118589D01*
X476236Y118395D01*
X476157Y118199D01*
X476095Y118000D01*
X476052Y117797D01*
X476027Y117592D01*
X476019Y117383D01*
X473545Y119858D01*
X473753Y119865D01*
X473959Y119890D01*
X474161Y119934D01*
X474361Y119995D01*
X474557Y120075D01*
X474750Y120173D01*
X474941Y120289D01*
X475128Y120423D01*
X475312Y120576D01*
X475493Y120746D01*
X476908Y119332D01*
D02*
G37*
G36*
X595227Y85576D02*
X595411Y85423D01*
X595599Y85289D01*
X595789Y85173D01*
X595982Y85075D01*
X596179Y84995D01*
X596378Y84934D01*
X596581Y84890D01*
X596786Y84865D01*
X596995Y84858D01*
X594520Y82383D01*
X594513Y82592D01*
X594488Y82797D01*
X594444Y83000D01*
X594383Y83199D01*
X594303Y83395D01*
X594205Y83589D01*
X594089Y83779D01*
X593955Y83966D01*
X593802Y84151D01*
X593632Y84332D01*
X595046Y85746D01*
X595227Y85576D01*
D02*
G37*
G36*
X695592Y72714D02*
X695472Y72564D01*
X695366Y72408D01*
X695274Y72246D01*
X695196Y72078D01*
X695133Y71904D01*
X695083Y71725D01*
X695048Y71539D01*
X695027Y71348D01*
X695020Y71151D01*
X694020Y70151D01*
X694013Y70334D01*
X693991Y70483D01*
X693956Y70597D01*
X693906Y70678D01*
X693843Y70724D01*
X693765Y70737D01*
X693673Y70715D01*
X693567Y70659D01*
X693447Y70568D01*
X693313Y70444D01*
X693459Y72005D01*
X694166Y72712D01*
X695727Y72858D01*
X695592Y72714D01*
D02*
G37*
G36*
X639886Y64011D02*
X639868Y63858D01*
X639868Y63708D01*
X639886Y63559D01*
X639922Y63413D01*
X639977Y63269D01*
X640049Y63126D01*
X640139Y62986D01*
X640247Y62848D01*
X640373Y62712D01*
X639666Y62005D01*
X639530Y62131D01*
X639392Y62239D01*
X639252Y62329D01*
X639109Y62401D01*
X638965Y62456D01*
X638819Y62492D01*
X638670Y62510D01*
X638520Y62510D01*
X638368Y62492D01*
X638213Y62456D01*
X639922Y64165D01*
X639886Y64011D01*
D02*
G37*
G36*
X695032Y37617D02*
X695070Y37421D01*
X695132Y37219D01*
X695220Y37011D01*
X695332Y36797D01*
X695470Y36578D01*
X695632Y36353D01*
X695820Y36122D01*
X696270Y35644D01*
X692770D01*
X693007Y35886D01*
X693407Y36353D01*
X693570Y36578D01*
X693707Y36797D01*
X693820Y37011D01*
X693907Y37219D01*
X693970Y37421D01*
X694007Y37617D01*
X694020Y37808D01*
X695020D01*
X695032Y37617D01*
D02*
G37*
G36*
X597032Y30617D02*
X597070Y30421D01*
X597132Y30219D01*
X597220Y30011D01*
X597332Y29797D01*
X597470Y29578D01*
X597632Y29353D01*
X597820Y29122D01*
X598270Y28644D01*
X594770D01*
X595007Y28886D01*
X595407Y29353D01*
X595570Y29578D01*
X595707Y29797D01*
X595820Y30011D01*
X595907Y30219D01*
X595970Y30421D01*
X596007Y30617D01*
X596020Y30808D01*
X597020D01*
X597032Y30617D01*
D02*
G37*
G36*
X585032Y74331D02*
X584632Y73864D01*
X584470Y73638D01*
X584332Y73419D01*
X584220Y73206D01*
X584132Y72998D01*
X584070Y72796D01*
X584032Y72599D01*
X584020Y72409D01*
X583020D01*
X583007Y72599D01*
X582970Y72796D01*
X582907Y72998D01*
X582820Y73206D01*
X582707Y73419D01*
X582570Y73638D01*
X582407Y73864D01*
X582220Y74094D01*
X581770Y74573D01*
X585270D01*
X585032Y74331D01*
D02*
G37*
G36*
X618105Y121930D02*
X617169Y120851D01*
X616940Y120529D01*
X616752Y120227D01*
X616607Y119945D01*
X616503Y119681D01*
X616440Y119437D01*
X616420Y119212D01*
X615620D01*
X615599Y119437D01*
X615536Y119681D01*
X615432Y119945D01*
X615287Y120227D01*
X615100Y120529D01*
X614871Y120851D01*
X614288Y121551D01*
X613935Y121930D01*
X613539Y122328D01*
X618500D01*
X618105Y121930D01*
D02*
G37*
G36*
X616108Y63381D02*
X615993Y63247D01*
X615890Y63087D01*
X615800Y62901D01*
X615722Y62690D01*
X615657Y62453D01*
X615605Y62190D01*
X615565Y61902D01*
X615522Y61248D01*
X615520Y60883D01*
X613045Y63358D01*
X613410Y63361D01*
X614063Y63403D01*
X614352Y63443D01*
X614614Y63496D01*
X614851Y63561D01*
X615063Y63639D01*
X615248Y63729D01*
X615408Y63832D01*
X615543Y63947D01*
X616108Y63381D01*
D02*
G37*
G36*
X669495Y49858D02*
X669156Y49855D01*
X668542Y49808D01*
X668268Y49763D01*
X668016Y49705D01*
X667786Y49634D01*
X667577Y49549D01*
X667389Y49450D01*
X667224Y49338D01*
X667080Y49212D01*
X666373Y49919D01*
X666499Y50063D01*
X666612Y50228D01*
X666710Y50415D01*
X666795Y50624D01*
X666867Y50855D01*
X666925Y51107D01*
X666969Y51381D01*
X666999Y51677D01*
X667020Y52333D01*
X669495Y49858D01*
D02*
G37*
G36*
X629547Y46371D02*
X630014Y45971D01*
X630239Y45808D01*
X630459Y45671D01*
X630672Y45558D01*
X630880Y45471D01*
X631082Y45408D01*
X631279Y45371D01*
X631469Y45358D01*
Y44358D01*
X631279Y44346D01*
X631082Y44308D01*
X630880Y44246D01*
X630672Y44158D01*
X630459Y44046D01*
X630239Y43908D01*
X630014Y43746D01*
X629784Y43558D01*
X629305Y43108D01*
Y46608D01*
X629547Y46371D01*
D02*
G37*
G36*
X554234Y39608D02*
X553992Y39846D01*
X553525Y40246D01*
X553300Y40408D01*
X553081Y40546D01*
X552867Y40658D01*
X552659Y40746D01*
X552457Y40808D01*
X552261Y40846D01*
X552070Y40858D01*
Y41858D01*
X552261Y41871D01*
X552457Y41908D01*
X552659Y41971D01*
X552867Y42058D01*
X553081Y42171D01*
X553300Y42308D01*
X553525Y42471D01*
X553756Y42658D01*
X554234Y43108D01*
Y39608D01*
D02*
G37*
%LPC*%
G36*
X97741Y128153D02*
X96416D01*
X95137Y127810D01*
X93990Y127148D01*
X93053Y126211D01*
X92391Y125064D01*
X92048Y123784D01*
Y122460D01*
X92391Y121180D01*
X93053Y120033D01*
X93990Y119097D01*
X95137Y118434D01*
X96416Y118091D01*
X97741D01*
X99020Y118434D01*
X100168Y119097D01*
X101104Y120033D01*
X101767Y121180D01*
X102109Y122460D01*
Y123784D01*
X101767Y125064D01*
X101104Y126211D01*
X100168Y127148D01*
X99020Y127810D01*
X97741Y128153D01*
D02*
G37*
G36*
X364000Y117490D02*
Y114500D01*
X366989D01*
X366761Y115351D01*
X366301Y116149D01*
X365649Y116801D01*
X364851Y117262D01*
X364000Y117490D01*
D02*
G37*
G36*
X363000D02*
X362149Y117262D01*
X361351Y116801D01*
X360699Y116149D01*
X360239Y115351D01*
X360011Y114500D01*
X363000D01*
Y117490D01*
D02*
G37*
G36*
Y113500D02*
X361475D01*
X363000Y111975D01*
Y113500D01*
D02*
G37*
G36*
X366989D02*
X364000D01*
Y110511D01*
X364851Y110739D01*
X365649Y111199D01*
X366301Y111851D01*
X366761Y112649D01*
X366989Y113500D01*
D02*
G37*
G36*
X360985D02*
X360011D01*
X360191Y112827D01*
X360158Y112682D01*
X360103Y112507D01*
X360043Y112359D01*
X359979Y112238D01*
X359919Y112150D01*
X341493Y93723D01*
X290340D01*
X290235Y93744D01*
X290105Y93784D01*
X289958Y93846D01*
X289795Y93931D01*
X289669Y94011D01*
X289301Y94649D01*
X288649Y95301D01*
X287851Y95762D01*
X287000Y95990D01*
Y92500D01*
Y89011D01*
X287851Y89239D01*
X288649Y89699D01*
X289301Y90351D01*
X289669Y90990D01*
X289795Y91069D01*
X289958Y91154D01*
X290105Y91216D01*
X290235Y91256D01*
X290340Y91277D01*
X342000D01*
X342468Y91370D01*
X342865Y91635D01*
X361649Y110419D01*
X361738Y110479D01*
X361859Y110543D01*
X362006Y110603D01*
X362182Y110658D01*
X362327Y110691D01*
X363000Y110511D01*
Y111486D01*
X362523Y111449D01*
X362249Y111405D01*
X361996Y111347D01*
X361766Y111276D01*
X361557Y111191D01*
X361370Y111092D01*
X361205Y110980D01*
X361061Y110854D01*
X360354Y111561D01*
X360480Y111705D01*
X360592Y111870D01*
X360691Y112057D01*
X360776Y112266D01*
X360847Y112496D01*
X360905Y112749D01*
X360949Y113023D01*
X360980Y113318D01*
X360985Y113500D01*
D02*
G37*
G36*
X246500Y110489D02*
Y107500D01*
X249489D01*
X249261Y108351D01*
X248801Y109149D01*
X248149Y109801D01*
X247351Y110261D01*
X246500Y110489D01*
D02*
G37*
G36*
X245500D02*
X244649Y110261D01*
X243851Y109801D01*
X243199Y109149D01*
X242739Y108351D01*
X242511Y107500D01*
X245500D01*
Y110489D01*
D02*
G37*
G36*
X148500Y103489D02*
Y100500D01*
X151489D01*
X151261Y101351D01*
X150801Y102149D01*
X150149Y102801D01*
X149351Y103261D01*
X148500Y103489D01*
D02*
G37*
G36*
X147500D02*
X146649Y103261D01*
X145851Y102801D01*
X145199Y102149D01*
X144738Y101351D01*
X144510Y100500D01*
X147500D01*
Y103489D01*
D02*
G37*
G36*
X286000Y95990D02*
X285149Y95762D01*
X284351Y95301D01*
X283699Y94649D01*
X283239Y93851D01*
X283011Y93000D01*
X286000D01*
Y95990D01*
D02*
G37*
G36*
X105603Y106105D02*
X104302D01*
X103026Y105851D01*
X101824Y105354D01*
X100742Y104631D01*
X99822Y103711D01*
X99099Y102629D01*
X98601Y101427D01*
X98347Y100151D01*
Y98849D01*
X98601Y97573D01*
X99099Y96371D01*
X99822Y95289D01*
X100742Y94369D01*
X101824Y93646D01*
X103026Y93148D01*
X104302Y92894D01*
X105603D01*
X106879Y93148D01*
X108082Y93646D01*
X109163Y94369D01*
X110083Y95289D01*
X110806Y96371D01*
X111304Y97573D01*
X111558Y98849D01*
Y100151D01*
X111304Y101427D01*
X110806Y102629D01*
X110083Y103711D01*
X109163Y104631D01*
X108082Y105354D01*
X106879Y105851D01*
X105603Y106105D01*
D02*
G37*
G36*
X286000Y92000D02*
X283011D01*
X283239Y91149D01*
X283699Y90351D01*
X284351Y89699D01*
X285149Y89239D01*
X286000Y89011D01*
Y92000D01*
D02*
G37*
G36*
X215421Y92200D02*
X214579D01*
X213765Y91982D01*
X213035Y91561D01*
X212776Y91301D01*
X212726Y91270D01*
X212266Y90838D01*
X212071Y90679D01*
X211881Y90542D01*
X211705Y90431D01*
X211542Y90346D01*
X211395Y90284D01*
X211265Y90244D01*
X211159Y90223D01*
X180500D01*
X180032Y90130D01*
X179635Y89865D01*
X174850Y85081D01*
X174762Y85021D01*
X174641Y84957D01*
X174494Y84897D01*
X174318Y84842D01*
X174115Y84796D01*
X173893Y84760D01*
X173333Y84717D01*
X173018Y84714D01*
X172953Y84700D01*
X172579D01*
X171765Y84482D01*
X171035Y84061D01*
X170439Y83465D01*
X170018Y82735D01*
X169800Y81921D01*
Y81079D01*
X170018Y80265D01*
X170439Y79535D01*
X171035Y78939D01*
X171765Y78518D01*
X172579Y78300D01*
X173421D01*
X174235Y78518D01*
X174965Y78939D01*
X175561Y79535D01*
X175982Y80265D01*
X176200Y81079D01*
Y81446D01*
X176213Y81503D01*
X176233Y82134D01*
X176259Y82384D01*
X176296Y82615D01*
X176342Y82818D01*
X176397Y82993D01*
X176457Y83141D01*
X176521Y83262D01*
X176581Y83350D01*
X181007Y87776D01*
X211159D01*
X211265Y87756D01*
X211395Y87716D01*
X211542Y87654D01*
X211705Y87569D01*
X211881Y87458D01*
X212064Y87326D01*
X212490Y86961D01*
X212715Y86740D01*
X212770Y86704D01*
X213035Y86439D01*
X213765Y86018D01*
X214579Y85800D01*
X215421D01*
X216235Y86018D01*
X216965Y86439D01*
X217561Y87035D01*
X217982Y87765D01*
X218200Y88579D01*
Y89421D01*
X217982Y90235D01*
X217561Y90965D01*
X216965Y91561D01*
X216235Y91982D01*
X215421Y92200D01*
D02*
G37*
G36*
X287000Y86489D02*
Y83500D01*
X289989D01*
X289761Y84351D01*
X289301Y85149D01*
X288649Y85801D01*
X287851Y86261D01*
X287000Y86489D01*
D02*
G37*
G36*
X286000D02*
X285149Y86261D01*
X284351Y85801D01*
X283699Y85149D01*
X283239Y84351D01*
X283011Y83500D01*
X286000D01*
Y86489D01*
D02*
G37*
G36*
Y82500D02*
X284475D01*
X286000Y80975D01*
Y82500D01*
D02*
G37*
G36*
X249489Y106500D02*
X242511D01*
X242739Y105649D01*
X243199Y104851D01*
X243851Y104199D01*
X244490Y103831D01*
X244569Y103705D01*
X244654Y103542D01*
X244716Y103395D01*
X244756Y103265D01*
X244777Y103159D01*
Y85500D01*
X244870Y85032D01*
X245135Y84635D01*
X249919Y79851D01*
X249927Y79839D01*
X249944Y79765D01*
X249925Y79579D01*
X249856Y79411D01*
X249738Y79266D01*
X249673Y79226D01*
X249659Y79224D01*
X214000D01*
X213532Y79130D01*
X213135Y78865D01*
X206851Y72581D01*
X206762Y72521D01*
X206641Y72457D01*
X206493Y72397D01*
X206318Y72342D01*
X206173Y72309D01*
X205500Y72490D01*
Y71514D01*
X205977Y71551D01*
X206251Y71595D01*
X206504Y71653D01*
X206734Y71724D01*
X206943Y71809D01*
X207130Y71908D01*
X207295Y72020D01*
X207439Y72146D01*
X208146Y71439D01*
X208020Y71295D01*
X207908Y71130D01*
X207809Y70943D01*
X207724Y70734D01*
X207653Y70504D01*
X207595Y70251D01*
X207551Y69977D01*
X207520Y69682D01*
X207515Y69500D01*
X208489D01*
X208309Y70173D01*
X208342Y70318D01*
X208397Y70493D01*
X208457Y70641D01*
X208521Y70762D01*
X208581Y70850D01*
X214507Y76776D01*
X249659D01*
X249765Y76756D01*
X249895Y76716D01*
X250042Y76654D01*
X250205Y76569D01*
X250331Y76490D01*
X250699Y75851D01*
X251351Y75199D01*
X252149Y74739D01*
X253000Y74511D01*
Y78000D01*
Y80025D01*
X251715Y78740D01*
Y76250D01*
X251472Y76487D01*
X251005Y76888D01*
X250780Y77050D01*
X250561Y77188D01*
X250347Y77300D01*
X250140Y77387D01*
X249938Y77450D01*
X249741Y77487D01*
X249551Y77500D01*
Y78500D01*
X249741Y78513D01*
X249938Y78550D01*
X250140Y78613D01*
X250347Y78700D01*
X250561Y78812D01*
X250780Y78950D01*
X250936Y79062D01*
X250905Y79251D01*
X250847Y79504D01*
X250776Y79734D01*
X250691Y79943D01*
X250592Y80130D01*
X250480Y80295D01*
X250354Y80439D01*
X251061Y81146D01*
X251204Y81020D01*
X251370Y80908D01*
X251557Y80809D01*
X251766Y80724D01*
X251996Y80653D01*
X252249Y80595D01*
X252523Y80551D01*
X252818Y80520D01*
X253000Y80515D01*
Y81489D01*
X252327Y81309D01*
X252182Y81342D01*
X252007Y81397D01*
X251859Y81457D01*
X251738Y81521D01*
X251649Y81581D01*
X247223Y86007D01*
Y103159D01*
X247244Y103265D01*
X247284Y103395D01*
X247346Y103542D01*
X247431Y103705D01*
X247511Y103831D01*
X248149Y104199D01*
X248801Y104851D01*
X249261Y105649D01*
X249489Y106500D01*
D02*
G37*
G36*
X289989Y82500D02*
X287000D01*
Y79510D01*
X287851Y79738D01*
X288649Y80199D01*
X289301Y80851D01*
X289761Y81649D01*
X289989Y82500D01*
D02*
G37*
G36*
X283985D02*
X283011D01*
X283191Y81827D01*
X283158Y81682D01*
X283103Y81507D01*
X283043Y81359D01*
X282979Y81238D01*
X282919Y81150D01*
X261610Y59840D01*
X261149Y60301D01*
X260510Y60669D01*
X260431Y60795D01*
X260346Y60958D01*
X260284Y61105D01*
X260244Y61235D01*
X260224Y61340D01*
Y72500D01*
X260130Y72968D01*
X259865Y73365D01*
X257081Y76149D01*
X257021Y76238D01*
X256957Y76359D01*
X256897Y76507D01*
X256842Y76682D01*
X256809Y76827D01*
X256990Y77500D01*
X256014D01*
X256051Y77023D01*
X256095Y76749D01*
X256153Y76496D01*
X256224Y76266D01*
X256309Y76057D01*
X256408Y75870D01*
X256520Y75704D01*
X256646Y75561D01*
X255939Y74854D01*
X255796Y74980D01*
X255630Y75092D01*
X255443Y75191D01*
X255234Y75276D01*
X255004Y75347D01*
X254751Y75405D01*
X254477Y75449D01*
X254182Y75480D01*
X254000Y75485D01*
Y74511D01*
X254673Y74691D01*
X254818Y74658D01*
X254993Y74603D01*
X255141Y74543D01*
X255262Y74479D01*
X255350Y74419D01*
X257776Y71993D01*
Y61340D01*
X257756Y61235D01*
X257716Y61105D01*
X257654Y60958D01*
X257569Y60795D01*
X257489Y60669D01*
X256851Y60301D01*
X256199Y59649D01*
X255738Y58851D01*
X255510Y58000D01*
X259000D01*
Y57500D01*
X259500D01*
Y54010D01*
X260351Y54238D01*
X261149Y54699D01*
X261801Y55351D01*
X262262Y56149D01*
X262500Y57039D01*
Y57313D01*
X262631Y57400D01*
X284649Y79419D01*
X284738Y79479D01*
X284859Y79543D01*
X285006Y79603D01*
X285182Y79658D01*
X285327Y79691D01*
X286000Y79510D01*
Y80486D01*
X285523Y80449D01*
X285249Y80405D01*
X284996Y80347D01*
X284766Y80276D01*
X284557Y80191D01*
X284370Y80092D01*
X284205Y79980D01*
X284061Y79854D01*
X283354Y80561D01*
X283480Y80704D01*
X283592Y80870D01*
X283691Y81057D01*
X283776Y81266D01*
X283847Y81496D01*
X283905Y81749D01*
X283949Y82023D01*
X283980Y82318D01*
X283985Y82500D01*
D02*
G37*
G36*
X254000Y81489D02*
Y78500D01*
X256990D01*
X256762Y79351D01*
X256301Y80149D01*
X255649Y80801D01*
X254851Y81261D01*
X254000Y81489D01*
D02*
G37*
G36*
X255525Y77500D02*
X254000D01*
Y75975D01*
X255525Y77500D01*
D02*
G37*
G36*
X97741Y80909D02*
X96416D01*
X95137Y80566D01*
X93990Y79903D01*
X93053Y78967D01*
X92391Y77820D01*
X92048Y76540D01*
Y75216D01*
X92391Y73936D01*
X93053Y72789D01*
X93990Y71852D01*
X95137Y71190D01*
X96416Y70847D01*
X97741D01*
X99020Y71190D01*
X100168Y71852D01*
X101104Y72789D01*
X101767Y73936D01*
X102109Y75216D01*
Y76540D01*
X101767Y77820D01*
X101104Y78967D01*
X100168Y79903D01*
X99020Y80566D01*
X97741Y80909D01*
D02*
G37*
G36*
X205500Y71025D02*
Y69500D01*
X207025D01*
X205500Y71025D01*
D02*
G37*
G36*
X151489Y99500D02*
X144510D01*
X144738Y98649D01*
X145199Y97851D01*
X145851Y97199D01*
X146490Y96831D01*
X146569Y96705D01*
X146654Y96542D01*
X146716Y96395D01*
X146756Y96265D01*
X146776Y96159D01*
Y62525D01*
X146765Y62425D01*
X146741Y62295D01*
X146707Y62172D01*
X146663Y62054D01*
X146610Y61939D01*
X146547Y61828D01*
X146473Y61719D01*
X146410Y61640D01*
X141350Y56581D01*
X141262Y56521D01*
X141141Y56457D01*
X140993Y56397D01*
X140818Y56342D01*
X140673Y56309D01*
X140000Y56489D01*
Y55514D01*
X140477Y55551D01*
X140751Y55595D01*
X141004Y55653D01*
X141234Y55724D01*
X141443Y55809D01*
X141630Y55908D01*
X141796Y56020D01*
X141939Y56146D01*
X142646Y55439D01*
X142520Y55295D01*
X142408Y55130D01*
X142309Y54943D01*
X142224Y54734D01*
X142153Y54504D01*
X142095Y54251D01*
X142051Y53977D01*
X142020Y53682D01*
X142015Y53500D01*
X142990D01*
X142809Y54173D01*
X142842Y54318D01*
X142897Y54493D01*
X142957Y54641D01*
X143021Y54762D01*
X143081Y54851D01*
X148865Y60635D01*
X148865Y60635D01*
X158507Y70276D01*
X201308D01*
X201612Y69880D01*
X201511Y69500D01*
X204500D01*
Y72490D01*
X203649Y72262D01*
X203543Y72201D01*
X203542Y72202D01*
X203482Y72249D01*
X203365Y72365D01*
X202968Y72630D01*
X202500Y72724D01*
X158000D01*
X157532Y72630D01*
X157135Y72365D01*
X149685Y64916D01*
X149223Y65107D01*
Y96159D01*
X149244Y96265D01*
X149284Y96395D01*
X149346Y96542D01*
X149431Y96705D01*
X149511Y96831D01*
X150149Y97199D01*
X150801Y97851D01*
X151261Y98649D01*
X151489Y99500D01*
D02*
G37*
G36*
X208489Y68500D02*
X205500D01*
Y65510D01*
X206351Y65738D01*
X207149Y66199D01*
X207801Y66851D01*
X208261Y67649D01*
X208489Y68500D01*
D02*
G37*
G36*
X204500D02*
X201511D01*
X201739Y67649D01*
X202199Y66851D01*
X202851Y66199D01*
X203649Y65738D01*
X204500Y65510D01*
Y68500D01*
D02*
G37*
G36*
X258500Y57000D02*
X255510D01*
X255738Y56149D01*
X256199Y55351D01*
X256851Y54699D01*
X257649Y54238D01*
X258500Y54010D01*
Y57000D01*
D02*
G37*
G36*
X140000Y55025D02*
Y53500D01*
X141525D01*
X140000Y55025D01*
D02*
G37*
G36*
X139000Y56489D02*
X138149Y56261D01*
X137351Y55801D01*
X136699Y55149D01*
X136239Y54351D01*
X136011Y53500D01*
X139000D01*
Y56489D01*
D02*
G37*
G36*
X294000Y35489D02*
X293149Y35261D01*
X292351Y34801D01*
X291699Y34149D01*
X291238Y33351D01*
X291010Y32500D01*
X294000D01*
Y35489D01*
D02*
G37*
G36*
X315500Y34990D02*
Y32000D01*
X318490D01*
X318262Y32851D01*
X317801Y33649D01*
X317149Y34301D01*
X316351Y34762D01*
X315500Y34990D01*
D02*
G37*
G36*
X294000Y31500D02*
X291010D01*
X291238Y30649D01*
X291699Y29851D01*
X292351Y29199D01*
X293149Y28738D01*
X294000Y28510D01*
Y31500D01*
D02*
G37*
G36*
X318490Y31000D02*
X315500D01*
Y28010D01*
X316351Y28238D01*
X317149Y28699D01*
X317801Y29351D01*
X318262Y30149D01*
X318490Y31000D01*
D02*
G37*
G36*
X295000Y35489D02*
Y32000D01*
Y28510D01*
X295851Y28738D01*
X296649Y29199D01*
X297301Y29851D01*
X297669Y30490D01*
X297795Y30569D01*
X297958Y30654D01*
X298105Y30716D01*
X298235Y30756D01*
X298341Y30777D01*
X311113D01*
X311215Y30756D01*
X311327Y30717D01*
X311445Y30659D01*
X311572Y30579D01*
X311637Y30527D01*
X311738Y30149D01*
X312199Y29351D01*
X312851Y28699D01*
X313649Y28238D01*
X314500Y28010D01*
Y31500D01*
Y34990D01*
X313649Y34762D01*
X312851Y34301D01*
X312199Y33649D01*
X312129Y33527D01*
X311911Y33417D01*
X311723Y33338D01*
X311553Y33279D01*
X311408Y33241D01*
X311311Y33224D01*
X298341D01*
X298235Y33244D01*
X298105Y33284D01*
X297958Y33346D01*
X297795Y33431D01*
X297669Y33511D01*
X297301Y34149D01*
X296649Y34801D01*
X295851Y35261D01*
X295000Y35489D01*
D02*
G37*
G36*
X142990Y52500D02*
X136011D01*
X136239Y51649D01*
X136699Y50851D01*
X137351Y50199D01*
X137989Y49831D01*
X138069Y49705D01*
X138154Y49542D01*
X138216Y49395D01*
X138256Y49265D01*
X138277Y49160D01*
Y27340D01*
X138274Y27327D01*
X138234Y27262D01*
X138089Y27144D01*
X137921Y27075D01*
X137735Y27056D01*
X137661Y27073D01*
X137650Y27081D01*
X136365Y28365D01*
X135968Y28630D01*
X135500Y28723D01*
X88500D01*
X88032Y28630D01*
X87635Y28365D01*
X74373Y15103D01*
X73877Y15168D01*
X73501Y15820D01*
X72570Y16751D01*
X71430Y17409D01*
X70158Y17750D01*
X70000D01*
Y12750D01*
Y7750D01*
X70158D01*
X71430Y8091D01*
X72570Y8749D01*
X73501Y9680D01*
X74159Y10820D01*
X74500Y12092D01*
Y12208D01*
X74882Y12284D01*
X75279Y12549D01*
X89007Y26276D01*
X134993D01*
X135919Y25350D01*
X135979Y25262D01*
X136043Y25141D01*
X136103Y24994D01*
X136158Y24818D01*
X136191Y24673D01*
X136011Y24000D01*
X136986D01*
X136949Y24477D01*
X136905Y24751D01*
X136847Y25004D01*
X136776Y25234D01*
X136691Y25443D01*
X136592Y25630D01*
X136480Y25796D01*
X136354Y25939D01*
X137061Y26646D01*
X137205Y26520D01*
X137370Y26408D01*
X137557Y26309D01*
X137766Y26224D01*
X137996Y26153D01*
X138249Y26095D01*
X138438Y26064D01*
X138550Y26220D01*
X138688Y26439D01*
X138800Y26653D01*
X138888Y26860D01*
X138950Y27062D01*
X138988Y27259D01*
X139000Y27450D01*
X140000D01*
X140013Y27259D01*
X140050Y27062D01*
X140112Y26860D01*
X140200Y26653D01*
X140313Y26439D01*
X140450Y26220D01*
X140612Y25995D01*
X140800Y25764D01*
X141250Y25285D01*
X138760D01*
X137475Y24000D01*
X142990D01*
X142762Y24851D01*
X142301Y25649D01*
X141649Y26301D01*
X141010Y26669D01*
X140931Y26795D01*
X140846Y26958D01*
X140784Y27105D01*
X140744Y27235D01*
X140724Y27340D01*
Y49160D01*
X140744Y49265D01*
X140784Y49395D01*
X140846Y49542D01*
X140931Y49705D01*
X141010Y49831D01*
X141649Y50199D01*
X142301Y50851D01*
X142762Y51649D01*
X142990Y52500D01*
D02*
G37*
G36*
X74200Y30950D02*
X64800D01*
Y21550D01*
X74200D01*
Y30950D01*
D02*
G37*
G36*
X141525Y23000D02*
X140000D01*
Y21475D01*
X141525Y23000D01*
D02*
G37*
G36*
X142990D02*
X142014D01*
X142051Y22523D01*
X142095Y22249D01*
X142153Y21996D01*
X142224Y21766D01*
X142309Y21557D01*
X142408Y21370D01*
X142520Y21204D01*
X142646Y21061D01*
X141939Y20354D01*
X141796Y20480D01*
X141630Y20592D01*
X141443Y20691D01*
X141234Y20776D01*
X141004Y20847D01*
X140751Y20905D01*
X140477Y20949D01*
X140182Y20980D01*
X140000Y20986D01*
Y20010D01*
X140673Y20191D01*
X140818Y20158D01*
X140993Y20103D01*
X141141Y20043D01*
X141262Y19979D01*
X141350Y19919D01*
X153135Y8135D01*
X153532Y7870D01*
X154000Y7777D01*
X190956D01*
X190996Y7773D01*
X191158Y7735D01*
X191355Y7664D01*
X191584Y7553D01*
X191840Y7402D01*
X192121Y7210D01*
X192420Y6979D01*
X192421Y6978D01*
X192865Y6210D01*
X193710Y5364D01*
X194746Y4766D01*
X195902Y4457D01*
X196000D01*
Y9000D01*
Y13543D01*
X195902D01*
X194746Y13234D01*
X193710Y12636D01*
X192865Y11790D01*
X192421Y11022D01*
X192420Y11020D01*
X192121Y10790D01*
X191840Y10598D01*
X191584Y10447D01*
X191355Y10336D01*
X191158Y10265D01*
X190996Y10227D01*
X190956Y10223D01*
X154507D01*
X143081Y21650D01*
X143021Y21738D01*
X142957Y21859D01*
X142897Y22006D01*
X142842Y22182D01*
X142809Y22327D01*
X142990Y23000D01*
D02*
G37*
G36*
X139000D02*
X136011D01*
X136239Y22149D01*
X136699Y21351D01*
X137351Y20699D01*
X138149Y20238D01*
X139000Y20010D01*
Y23000D01*
D02*
G37*
G36*
X69000Y17750D02*
X68842D01*
X67570Y17409D01*
X66430Y16751D01*
X65499Y15820D01*
X64841Y14680D01*
X64500Y13408D01*
Y13250D01*
X69000D01*
Y17750D01*
D02*
G37*
G36*
X245921Y54700D02*
X245079D01*
X244265Y54482D01*
X243535Y54061D01*
X242939Y53465D01*
X242518Y52735D01*
X242300Y51921D01*
Y51079D01*
X242518Y50265D01*
X242939Y49535D01*
X243535Y48939D01*
X244265Y48518D01*
X245079Y48300D01*
X245445D01*
X245501Y48287D01*
X245678Y48281D01*
X245821Y48263D01*
X245961Y48233D01*
X246101Y48190D01*
X246241Y48133D01*
X246383Y48061D01*
X246527Y47974D01*
X246672Y47870D01*
X246713Y47836D01*
X282274Y12274D01*
X282274Y12274D01*
X282837Y11899D01*
X283500Y11767D01*
X283500Y11767D01*
X366000D01*
X366663Y11899D01*
X367226Y12274D01*
X367787Y12836D01*
X367828Y12869D01*
X367973Y12974D01*
X368117Y13061D01*
X368259Y13133D01*
X368399Y13190D01*
X368539Y13233D01*
X368679Y13263D01*
X368822Y13281D01*
X368999Y13287D01*
X369055Y13300D01*
X369421D01*
X370235Y13518D01*
X370965Y13939D01*
X371561Y14535D01*
X371982Y15265D01*
X372200Y16079D01*
Y16921D01*
X371982Y17735D01*
X371561Y18465D01*
X370965Y19061D01*
X370235Y19482D01*
X369421Y19700D01*
X368579D01*
X367765Y19482D01*
X367035Y19061D01*
X366439Y18465D01*
X366018Y17735D01*
X365800Y16921D01*
Y16555D01*
X365787Y16499D01*
X365781Y16322D01*
X365763Y16179D01*
X365733Y16039D01*
X365690Y15899D01*
X365633Y15759D01*
X365561Y15617D01*
X365474Y15473D01*
X365370Y15328D01*
X365336Y15287D01*
X365282Y15233D01*
X284218D01*
X249164Y50287D01*
X249131Y50328D01*
X249026Y50473D01*
X248939Y50617D01*
X248867Y50759D01*
X248810Y50899D01*
X248767Y51039D01*
X248737Y51179D01*
X248719Y51322D01*
X248713Y51499D01*
X248700Y51555D01*
Y51921D01*
X248482Y52735D01*
X248061Y53465D01*
X247465Y54061D01*
X246735Y54482D01*
X245921Y54700D01*
D02*
G37*
G36*
X197098Y13543D02*
X197000D01*
Y9500D01*
X201043D01*
Y9598D01*
X200734Y10754D01*
X200135Y11790D01*
X199290Y12636D01*
X198254Y13234D01*
X197098Y13543D01*
D02*
G37*
G36*
X69000Y12250D02*
X64500D01*
Y12092D01*
X64841Y10820D01*
X65499Y9680D01*
X66430Y8749D01*
X67570Y8091D01*
X68842Y7750D01*
X69000D01*
Y12250D01*
D02*
G37*
G36*
X239421Y51200D02*
X238579D01*
X237765Y50982D01*
X237035Y50561D01*
X236439Y49965D01*
X236018Y49235D01*
X235800Y48421D01*
Y47579D01*
X236018Y46765D01*
X236439Y46035D01*
X236698Y45776D01*
X236729Y45727D01*
X236850Y45598D01*
X236938Y45485D01*
X237016Y45364D01*
X237085Y45235D01*
X237143Y45095D01*
X237193Y44944D01*
X237233Y44781D01*
X237262Y44604D01*
X237267Y44552D01*
Y28750D01*
X237399Y28087D01*
X237774Y27524D01*
X259024Y6274D01*
X259587Y5899D01*
X260250Y5767D01*
X375000D01*
X375663Y5899D01*
X376226Y6274D01*
X382787Y12836D01*
X382828Y12869D01*
X382973Y12974D01*
X383117Y13061D01*
X383259Y13133D01*
X383399Y13190D01*
X383539Y13233D01*
X383679Y13263D01*
X383822Y13281D01*
X383999Y13287D01*
X384055Y13300D01*
X384421D01*
X385235Y13518D01*
X385965Y13939D01*
X386561Y14535D01*
X386982Y15265D01*
X387200Y16079D01*
Y16921D01*
X386982Y17735D01*
X386561Y18465D01*
X385965Y19061D01*
X385235Y19482D01*
X384421Y19700D01*
X383579D01*
X382765Y19482D01*
X382035Y19061D01*
X381439Y18465D01*
X381018Y17735D01*
X380800Y16921D01*
Y16555D01*
X380787Y16499D01*
X380781Y16322D01*
X380763Y16179D01*
X380733Y16039D01*
X380690Y15899D01*
X380633Y15759D01*
X380561Y15617D01*
X380474Y15473D01*
X380369Y15328D01*
X380336Y15287D01*
X374282Y9233D01*
X260968D01*
X240733Y29468D01*
Y44552D01*
X240738Y44604D01*
X240767Y44781D01*
X240807Y44944D01*
X240856Y45095D01*
X240915Y45235D01*
X240984Y45364D01*
X241062Y45485D01*
X241150Y45598D01*
X241271Y45727D01*
X241302Y45776D01*
X241561Y46035D01*
X241982Y46765D01*
X242200Y47579D01*
Y48421D01*
X241982Y49235D01*
X241561Y49965D01*
X240965Y50561D01*
X240235Y50982D01*
X239421Y51200D01*
D02*
G37*
G36*
X240743Y13243D02*
X232257D01*
Y4757D01*
X240743D01*
Y13243D01*
D02*
G37*
G36*
X229921Y76200D02*
X229079D01*
X228265Y75982D01*
X227535Y75561D01*
X226939Y74965D01*
X226518Y74235D01*
X226300Y73421D01*
Y73046D01*
X226286Y72980D01*
X226284Y72635D01*
X226245Y72029D01*
X226211Y71787D01*
X226167Y71570D01*
X226117Y71387D01*
X226062Y71237D01*
X226006Y71122D01*
X225953Y71039D01*
X225707Y70793D01*
X225464Y70429D01*
X225378Y70000D01*
X225378Y70000D01*
Y14595D01*
X225374Y14544D01*
X225336Y14398D01*
X225262Y14209D01*
X225146Y13983D01*
X224985Y13724D01*
X224790Y13450D01*
X223891Y12414D01*
X223513Y12033D01*
X223476Y11976D01*
X223105Y11605D01*
X222546Y10638D01*
X222257Y9559D01*
Y8441D01*
X222546Y7362D01*
X223105Y6395D01*
X223895Y5604D01*
X224862Y5046D01*
X225941Y4757D01*
X227059D01*
X228138Y5046D01*
X229105Y5604D01*
X229895Y6395D01*
X230454Y7362D01*
X230743Y8441D01*
Y9559D01*
X230454Y10638D01*
X229895Y11605D01*
X229524Y11976D01*
X229487Y12033D01*
X229099Y12424D01*
X228767Y12780D01*
X228215Y13444D01*
X228015Y13724D01*
X227854Y13983D01*
X227738Y14209D01*
X227664Y14398D01*
X227626Y14544D01*
X227622Y14595D01*
Y69506D01*
X227737Y69562D01*
X227887Y69617D01*
X228070Y69668D01*
X228287Y69711D01*
X228529Y69745D01*
X229135Y69784D01*
X229480Y69786D01*
X229546Y69800D01*
X229921D01*
X230735Y70018D01*
X231465Y70439D01*
X232061Y71035D01*
X232482Y71765D01*
X232700Y72579D01*
Y73421D01*
X232482Y74235D01*
X232061Y74965D01*
X231465Y75561D01*
X230735Y75982D01*
X229921Y76200D01*
D02*
G37*
G36*
X217059Y13243D02*
X215941D01*
X214862Y12954D01*
X213895Y12395D01*
X213105Y11605D01*
X212546Y10638D01*
X212257Y9559D01*
Y8441D01*
X212546Y7362D01*
X213105Y6395D01*
X213895Y5604D01*
X214862Y5046D01*
X215941Y4757D01*
X217059D01*
X218138Y5046D01*
X219106Y5604D01*
X219896Y6395D01*
X220454Y7362D01*
X220743Y8441D01*
Y9559D01*
X220454Y10638D01*
X219896Y11605D01*
X219106Y12395D01*
X218138Y12954D01*
X217059Y13243D01*
D02*
G37*
G36*
X198921Y50200D02*
X198079D01*
X197265Y49982D01*
X196535Y49561D01*
X195939Y48965D01*
X195518Y48235D01*
X195300Y47421D01*
Y46579D01*
X195518Y45765D01*
X195939Y45035D01*
X196324Y44651D01*
X196276Y44414D01*
Y24000D01*
X196370Y23532D01*
X196635Y23135D01*
X205272Y14498D01*
X205235Y14342D01*
X205164Y14145D01*
X205053Y13916D01*
X204902Y13660D01*
X204710Y13379D01*
X204480Y13080D01*
X203875Y12399D01*
X203512Y12032D01*
X203475Y11976D01*
X203104Y11605D01*
X202546Y10638D01*
X202257Y9559D01*
Y8441D01*
X202546Y7362D01*
X203104Y6395D01*
X203895Y5604D01*
X204862Y5046D01*
X205941Y4757D01*
X207059D01*
X208138Y5046D01*
X209105Y5604D01*
X209895Y6395D01*
X210454Y7362D01*
X210743Y8441D01*
Y9559D01*
X210454Y10638D01*
X209895Y11605D01*
X209525Y11976D01*
X209488Y12032D01*
X209125Y12399D01*
X208520Y13080D01*
X208290Y13379D01*
X208098Y13660D01*
X207947Y13916D01*
X207837Y14145D01*
X207765Y14342D01*
X207727Y14504D01*
X207723Y14544D01*
Y15000D01*
X207630Y15468D01*
X207365Y15865D01*
X198723Y24507D01*
Y43800D01*
X198921D01*
X199735Y44018D01*
X200465Y44439D01*
X201061Y45035D01*
X201482Y45765D01*
X201700Y46579D01*
Y47421D01*
X201482Y48235D01*
X201061Y48965D01*
X200465Y49561D01*
X199735Y49982D01*
X198921Y50200D01*
D02*
G37*
G36*
X201043Y8500D02*
X197000D01*
Y4457D01*
X197098D01*
X198254Y4766D01*
X199290Y5364D01*
X200135Y6210D01*
X200734Y7246D01*
X201043Y8402D01*
Y8500D01*
D02*
G37*
%LPD*%
G36*
X288527Y94012D02*
X288995Y93612D01*
X289220Y93450D01*
X289439Y93313D01*
X289653Y93200D01*
X289860Y93112D01*
X290062Y93050D01*
X290259Y93012D01*
X290450Y93000D01*
Y92000D01*
X290259Y91988D01*
X290062Y91950D01*
X289860Y91887D01*
X289653Y91800D01*
X289439Y91688D01*
X289220Y91550D01*
X288995Y91387D01*
X288764Y91200D01*
X288285Y90750D01*
Y94250D01*
X288527Y94012D01*
D02*
G37*
G36*
X213215Y87250D02*
X212972Y87488D01*
X212505Y87888D01*
X212280Y88050D01*
X212061Y88187D01*
X211847Y88300D01*
X211640Y88388D01*
X211438Y88450D01*
X211241Y88487D01*
X211051Y88500D01*
Y89500D01*
X211241Y89512D01*
X211438Y89550D01*
X211640Y89613D01*
X211847Y89700D01*
X212061Y89812D01*
X212280Y89950D01*
X212505Y90113D01*
X212736Y90300D01*
X213215Y90750D01*
Y87250D01*
D02*
G37*
G36*
X176146Y83939D02*
X176020Y83795D01*
X175908Y83630D01*
X175809Y83443D01*
X175724Y83234D01*
X175653Y83004D01*
X175595Y82751D01*
X175551Y82477D01*
X175520Y82182D01*
X175500Y81525D01*
X173025Y84000D01*
X173364Y84003D01*
X173977Y84051D01*
X174251Y84095D01*
X174504Y84153D01*
X174734Y84224D01*
X174943Y84309D01*
X175130Y84408D01*
X175295Y84520D01*
X175439Y84646D01*
X176146Y83939D01*
D02*
G37*
G36*
X247513Y104973D02*
X247112Y104505D01*
X246950Y104280D01*
X246813Y104061D01*
X246700Y103847D01*
X246613Y103640D01*
X246550Y103437D01*
X246513Y103241D01*
X246500Y103050D01*
X245500D01*
X245487Y103241D01*
X245450Y103437D01*
X245388Y103640D01*
X245300Y103847D01*
X245187Y104061D01*
X245050Y104280D01*
X244887Y104505D01*
X244700Y104736D01*
X244250Y105215D01*
X247750D01*
X247513Y104973D01*
D02*
G37*
G36*
X259512Y61259D02*
X259550Y61063D01*
X259612Y60860D01*
X259700Y60653D01*
X259812Y60439D01*
X259950Y60220D01*
X260113Y59995D01*
X260300Y59764D01*
X260750Y59285D01*
X257250D01*
X257488Y59527D01*
X257888Y59995D01*
X258050Y60220D01*
X258188Y60439D01*
X258300Y60653D01*
X258387Y60860D01*
X258450Y61063D01*
X258488Y61259D01*
X258500Y61449D01*
X259500D01*
X259512Y61259D01*
D02*
G37*
G36*
X149513Y97973D02*
X149112Y97505D01*
X148950Y97280D01*
X148812Y97061D01*
X148700Y96847D01*
X148612Y96640D01*
X148550Y96438D01*
X148512Y96241D01*
X148500Y96051D01*
X147500D01*
X147487Y96241D01*
X147450Y96438D01*
X147388Y96640D01*
X147300Y96847D01*
X147187Y97061D01*
X147050Y97280D01*
X146888Y97505D01*
X146700Y97736D01*
X146250Y98215D01*
X149750D01*
X149513Y97973D01*
D02*
G37*
G36*
X202990Y71727D02*
X203128Y71619D01*
X203268Y71529D01*
X203411Y71457D01*
X203555Y71403D01*
X203701Y71367D01*
X203850Y71348D01*
X204000Y71348D01*
X204152Y71366D01*
X204307Y71402D01*
X202598Y69693D01*
X202634Y69848D01*
X202652Y70000D01*
X202652Y70151D01*
X202634Y70299D01*
X202597Y70445D01*
X202543Y70590D01*
X202471Y70732D01*
X202381Y70872D01*
X202273Y71010D01*
X202147Y71147D01*
X202853Y71854D01*
X202990Y71727D01*
D02*
G37*
G36*
X148507Y63524D02*
X148528Y63375D01*
X148564Y63261D01*
X148613Y63180D01*
X148677Y63134D01*
X148755Y63122D01*
X148846Y63144D01*
X148952Y63200D01*
X149073Y63290D01*
X149207Y63414D01*
X149061Y61853D01*
X148354Y61146D01*
X146793Y61000D01*
X146927Y61144D01*
X147047Y61295D01*
X147153Y61451D01*
X147245Y61612D01*
X147323Y61780D01*
X147387Y61954D01*
X147436Y62134D01*
X147472Y62319D01*
X147493Y62510D01*
X147500Y62707D01*
X148500Y63707D01*
X148507Y63524D01*
D02*
G37*
G36*
X296528Y33512D02*
X296995Y33112D01*
X297220Y32950D01*
X297439Y32812D01*
X297653Y32700D01*
X297860Y32612D01*
X298062Y32550D01*
X298259Y32513D01*
X298449Y32500D01*
Y31500D01*
X298259Y31488D01*
X298062Y31450D01*
X297860Y31387D01*
X297653Y31300D01*
X297439Y31187D01*
X297220Y31050D01*
X296995Y30887D01*
X296764Y30700D01*
X296285Y30250D01*
Y33750D01*
X296528Y33512D01*
D02*
G37*
G36*
X312901Y30142D02*
X312724Y30400D01*
X312544Y30631D01*
X312361Y30835D01*
X312175Y31011D01*
X311987Y31161D01*
X311795Y31283D01*
X311601Y31378D01*
X311403Y31446D01*
X311203Y31486D01*
X311000Y31500D01*
X311209Y32500D01*
X311378Y32511D01*
X311562Y32543D01*
X311762Y32596D01*
X311978Y32671D01*
X312209Y32768D01*
X312719Y33025D01*
X312997Y33186D01*
X313601Y33572D01*
X312901Y30142D01*
D02*
G37*
G36*
X141013Y50972D02*
X140612Y50505D01*
X140450Y50280D01*
X140313Y50061D01*
X140200Y49847D01*
X140112Y49640D01*
X140050Y49437D01*
X140013Y49241D01*
X140000Y49051D01*
X139000D01*
X138988Y49241D01*
X138950Y49437D01*
X138888Y49640D01*
X138800Y49847D01*
X138688Y50061D01*
X138550Y50280D01*
X138388Y50505D01*
X138200Y50736D01*
X137750Y51215D01*
X141250D01*
X141013Y50972D01*
D02*
G37*
G36*
X73160Y14391D02*
X73240Y14291D01*
X73335Y14203D01*
X73444Y14126D01*
X73569Y14061D01*
X73708Y14008D01*
X73862Y13967D01*
X74031Y13938D01*
X74215Y13920D01*
X74414Y13914D01*
Y12914D01*
X74249Y12908D01*
X74099Y12889D01*
X73966Y12856D01*
X73848Y12811D01*
X73746Y12754D01*
X73659Y12683D01*
X73589Y12599D01*
X73534Y12503D01*
X73495Y12394D01*
X73471Y12271D01*
X73096Y14503D01*
X73160Y14391D01*
D02*
G37*
G36*
X193970Y6520D02*
X193589Y6896D01*
X192875Y7530D01*
X192541Y7787D01*
X192223Y8005D01*
X191921Y8183D01*
X191634Y8322D01*
X191362Y8421D01*
X191106Y8480D01*
X190866Y8500D01*
Y9500D01*
X191106Y9520D01*
X191362Y9579D01*
X191634Y9678D01*
X191921Y9817D01*
X192223Y9995D01*
X192541Y10213D01*
X192875Y10470D01*
X193589Y11104D01*
X193970Y11480D01*
Y6520D01*
D02*
G37*
G36*
X248007Y51266D02*
X248032Y51061D01*
X248075Y50859D01*
X248137Y50659D01*
X248217Y50463D01*
X248314Y50269D01*
X248431Y50079D01*
X248565Y49892D01*
X248717Y49707D01*
X248888Y49526D01*
X247474Y48112D01*
X247292Y48283D01*
X247108Y48435D01*
X246921Y48569D01*
X246731Y48686D01*
X246537Y48783D01*
X246341Y48863D01*
X246141Y48925D01*
X245939Y48968D01*
X245733Y48993D01*
X245525Y49000D01*
X248000Y51475D01*
X248007Y51266D01*
D02*
G37*
G36*
X368975Y14000D02*
X368766Y13993D01*
X368561Y13968D01*
X368359Y13925D01*
X368159Y13863D01*
X367963Y13783D01*
X367769Y13686D01*
X367579Y13569D01*
X367392Y13435D01*
X367208Y13283D01*
X367026Y13112D01*
X365612Y14526D01*
X365783Y14707D01*
X365935Y14892D01*
X366069Y15079D01*
X366185Y15269D01*
X366283Y15463D01*
X366363Y15659D01*
X366425Y15858D01*
X366468Y16061D01*
X366493Y16266D01*
X366500Y16475D01*
X368975Y14000D01*
D02*
G37*
G36*
X240608Y46062D02*
X240480Y45899D01*
X240368Y45725D01*
X240270Y45541D01*
X240188Y45346D01*
X240120Y45140D01*
X240068Y44923D01*
X240030Y44696D01*
X240007Y44458D01*
X240000Y44209D01*
X238000D01*
X237993Y44458D01*
X237970Y44696D01*
X237932Y44923D01*
X237880Y45140D01*
X237812Y45346D01*
X237730Y45541D01*
X237632Y45725D01*
X237520Y45899D01*
X237392Y46062D01*
X237250Y46215D01*
X240750D01*
X240608Y46062D01*
D02*
G37*
G36*
X383975Y14000D02*
X383767Y13993D01*
X383561Y13968D01*
X383359Y13925D01*
X383159Y13863D01*
X382963Y13783D01*
X382769Y13686D01*
X382579Y13569D01*
X382392Y13435D01*
X382207Y13283D01*
X382026Y13112D01*
X380612Y14526D01*
X380783Y14707D01*
X380935Y14892D01*
X381069Y15079D01*
X381186Y15269D01*
X381283Y15463D01*
X381363Y15659D01*
X381425Y15858D01*
X381468Y16061D01*
X381493Y16266D01*
X381500Y16475D01*
X383975Y14000D01*
D02*
G37*
G36*
X229475Y70500D02*
X229110Y70498D01*
X228456Y70455D01*
X228168Y70415D01*
X227905Y70362D01*
X227668Y70297D01*
X227457Y70220D01*
X227272Y70130D01*
X227112Y70027D01*
X226977Y69911D01*
X226412Y70477D01*
X226527Y70612D01*
X226629Y70771D01*
X226720Y70957D01*
X226797Y71168D01*
X226862Y71405D01*
X226915Y71668D01*
X226955Y71956D01*
X226998Y72610D01*
X227000Y72975D01*
X229475Y70500D01*
D02*
G37*
G36*
X226921Y14422D02*
X226983Y14177D01*
X227087Y13914D01*
X227233Y13631D01*
X227420Y13329D01*
X227649Y13008D01*
X228231Y12308D01*
X228585Y11929D01*
X228980Y11530D01*
X224020D01*
X224415Y11929D01*
X225351Y13008D01*
X225580Y13329D01*
X225767Y13631D01*
X225913Y13914D01*
X226017Y14177D01*
X226079Y14422D01*
X226100Y14647D01*
X226900D01*
X226921Y14422D01*
D02*
G37*
G36*
X207020Y14394D02*
X207079Y14138D01*
X207178Y13866D01*
X207317Y13579D01*
X207495Y13277D01*
X207713Y12959D01*
X207970Y12625D01*
X208604Y11911D01*
X208980Y11530D01*
X204020D01*
X204396Y11911D01*
X205030Y12625D01*
X205287Y12959D01*
X205505Y13277D01*
X205683Y13579D01*
X205822Y13866D01*
X205921Y14138D01*
X205980Y14394D01*
X206000Y14634D01*
X207000D01*
X207020Y14394D01*
D02*
G37*
G54D28*
X616020Y124858D02*
Y63858D01*
X613020Y60858D01*
X616020Y258717D02*
Y197716D01*
X613020Y194717D01*
X226500Y9000D02*
Y70000D01*
X229500Y73000D01*
X226500Y142858D02*
Y203858D01*
X229500Y206858D01*
G54D29*
X556020Y41358D02*
X500520D01*
X479020Y19858D01*
X548020Y101858D02*
X528020D01*
X527520Y102358D01*
X754020Y106358D02*
X707020D01*
X772356Y120444D02*
X768106D01*
X773020Y121108D02*
X772356Y120444D01*
X768106D02*
X754020Y106358D01*
X707020D02*
X703020Y110358D01*
Y80858D01*
X637520Y64858D02*
X628520Y55858D01*
X589020D01*
X684520Y62358D02*
X640020D01*
X637520Y64858D01*
X694520Y72358D02*
Y33858D01*
X703020Y80858D02*
X694520Y72358D01*
X684520Y62358D01*
X583520Y76358D02*
X582754Y75593D01*
X580754D02*
X556020Y50858D01*
X582754Y75593D02*
X580754D01*
X589020Y55858D02*
X583520Y61358D01*
Y76358D02*
Y61358D01*
X596520Y48358D02*
X589020Y55858D01*
X596520Y48358D02*
Y26858D01*
X645020Y89444D02*
X644785Y89209D01*
X645020Y109858D02*
Y89444D01*
X636020Y124858D02*
Y118858D01*
X645020Y109858D02*
X636020Y118858D01*
X669520Y52358D02*
X662020Y44858D01*
X627520D01*
X703020Y110358D02*
X688520Y124858D01*
X646020D01*
X556020Y175216D02*
X500520D01*
X479020Y153717D01*
X548020Y235717D02*
X528020D01*
X527520Y236216D01*
X754020Y240216D02*
X707020D01*
X772356Y254302D02*
X768106D01*
X773020Y254966D02*
X772356Y254302D01*
X768106D02*
X754020Y240216D01*
X707020D02*
X703020Y244216D01*
Y214717D01*
X637520Y198716D02*
X628520Y189716D01*
X589020D01*
X684520Y196216D02*
X640020D01*
X637520Y198716D01*
X694520Y206217D02*
Y167717D01*
X703020Y214717D02*
X694520Y206217D01*
X684520Y196216D01*
X583520Y210216D02*
X582754Y209451D01*
X580754D02*
X556020Y184716D01*
X582754Y209451D02*
X580754D01*
X589020Y189716D02*
X583520Y195217D01*
Y210216D02*
Y195217D01*
X596520Y182217D02*
X589020Y189716D01*
X596520Y182217D02*
Y160716D01*
X645020Y223302D02*
X644785Y223068D01*
X645020Y243717D02*
Y223302D01*
X636020Y258717D02*
Y252716D01*
X645020Y243717D02*
X636020Y252716D01*
X669520Y186216D02*
X662020Y178717D01*
X627520D01*
X703020Y244216D02*
X688520Y258717D01*
X646020D01*
X286500Y92500D02*
X342000D01*
X363500Y114000D01*
X294500Y32000D02*
X314500D01*
X315000Y31500D01*
X88500Y27500D02*
X135500D01*
X70164Y13414D02*
X74414D01*
X69500Y12750D02*
X70164Y13414D01*
X74414D02*
X88500Y27500D01*
X135500D02*
X139500Y23500D01*
Y53000D01*
X205000Y69000D02*
X214000Y78000D01*
X253500D01*
X158000Y71500D02*
X202500D01*
X205000Y69000D01*
X148000Y61500D02*
Y100000D01*
X139500Y53000D02*
X148000Y61500D01*
X158000Y71500D01*
X259000Y57500D02*
X259765Y58265D01*
X261765D02*
X286500Y83000D01*
X259765Y58265D02*
X261765D01*
X253500Y78000D02*
X259000Y72500D01*
Y57500D02*
Y72500D01*
X246000Y85500D02*
X253500Y78000D01*
X246000Y85500D02*
Y107000D01*
X197500Y44414D02*
X197735Y44649D01*
X197500Y24000D02*
Y44414D01*
X206500Y9000D02*
Y15000D01*
X197500Y24000D02*
X206500Y15000D01*
X173000Y81500D02*
X180500Y89000D01*
X215000D01*
X139500Y23500D02*
X154000Y9000D01*
X196500D01*
X286500Y226358D02*
X342000D01*
X363500Y247858D01*
X294500Y165858D02*
X314500D01*
X315000Y165358D01*
X88500Y161358D02*
X135500D01*
X70164Y147273D02*
X74414D01*
X69500Y146608D02*
X70164Y147273D01*
X74414D02*
X88500Y161358D01*
X135500D02*
X139500Y157358D01*
Y186858D01*
X205000Y202858D02*
X214000Y211858D01*
X253500D01*
X158000Y205358D02*
X202500D01*
X205000Y202858D01*
X148000Y195358D02*
Y233858D01*
X139500Y186858D02*
X148000Y195358D01*
X158000Y205358D01*
X259000Y191358D02*
X259765Y192124D01*
X261765D02*
X286500Y216858D01*
X259765Y192124D02*
X261765D01*
X253500Y211858D02*
X259000Y206358D01*
Y191358D02*
Y206358D01*
X246000Y219358D02*
X253500Y211858D01*
X246000Y219358D02*
Y240858D01*
X197500Y178272D02*
X197735Y178507D01*
X197500Y157858D02*
Y178272D01*
X206500Y142858D02*
Y148858D01*
X197500Y157858D02*
X206500Y148858D01*
X173000Y215358D02*
X180500Y222858D01*
X215000D01*
X139500Y157358D02*
X154000Y142858D01*
X196500D01*
G54D30*
X597020Y82358D02*
X559020Y120358D01*
X603520Y105108D02*
Y85858D01*
X559020Y120358D02*
X476520D01*
X473520Y117358D01*
X603520Y105108D02*
X582270Y126358D01*
X467520D01*
X458520Y117358D01*
X597020Y216216D02*
X559020Y254217D01*
X603520Y238966D02*
Y219717D01*
X559020Y254217D02*
X476520D01*
X473520Y251217D01*
X603520Y238966D02*
X582270Y260216D01*
X467520D01*
X458520Y251217D01*
X245500Y51500D02*
X283500Y13500D01*
X239000Y28750D02*
Y48000D01*
X283500Y13500D02*
X366000D01*
X369000Y16500D01*
X239000Y28750D02*
X260250Y7500D01*
X375000D01*
X384000Y16500D01*
X245500Y185358D02*
X283500Y147358D01*
X239000Y162608D02*
Y181858D01*
X283500Y147358D02*
X366000D01*
X369000Y150358D01*
X239000Y162608D02*
X260250Y141358D01*
X375000D01*
X384000Y150358D01*
G54D35*
X606020Y124858D02*
D03*
Y258717D02*
D03*
X236500Y9000D02*
D03*
Y142858D02*
D03*
G54D36*
X646020Y124858D02*
D03*
X636020D02*
D03*
X626020D02*
D03*
X616020D02*
D03*
X646020Y258717D02*
D03*
X636020D02*
D03*
X626020D02*
D03*
X616020D02*
D03*
X196500Y9000D02*
D03*
X206500D02*
D03*
X216500D02*
D03*
X226500D02*
D03*
X196500Y142858D02*
D03*
X206500D02*
D03*
X216500D02*
D03*
X226500D02*
D03*
G54D37*
X822831Y125862D02*
D03*
Y259720D02*
D03*
X19689Y7996D02*
D03*
Y141854D02*
D03*
G54D38*
X834642Y107358D02*
D03*
Y241216D02*
D03*
X7878Y26500D02*
D03*
Y160358D02*
D03*
G54D39*
X811020Y107358D02*
D03*
Y241216D02*
D03*
X31500Y26500D02*
D03*
Y160358D02*
D03*
G54D40*
X773020Y121108D02*
D03*
Y254966D02*
D03*
X69500Y12750D02*
D03*
Y146608D02*
D03*
G54D41*
X773020Y107608D02*
D03*
Y241466D02*
D03*
X69500Y26250D02*
D03*
Y160108D02*
D03*
G54D42*
X737567Y34358D02*
D03*
X793472Y10736D02*
D03*
Y57980D02*
D03*
X737567Y168217D02*
D03*
X793472Y144595D02*
D03*
Y191839D02*
D03*
X104953Y99500D02*
D03*
X49047Y123122D02*
D03*
Y75878D02*
D03*
X104953Y233358D02*
D03*
X49047Y256980D02*
D03*
Y209736D02*
D03*
G54D43*
X745441Y10736D02*
D03*
Y144595D02*
D03*
X97079Y123122D02*
D03*
Y256980D02*
D03*
G54D44*
X745441Y57980D02*
D03*
Y191839D02*
D03*
X97079Y75878D02*
D03*
Y209736D02*
D03*
G54D45*
X825520Y34858D02*
D03*
Y54543D02*
D03*
Y168717D02*
D03*
Y188402D02*
D03*
X17000Y99000D02*
D03*
Y79315D02*
D03*
Y232858D02*
D03*
Y213173D02*
D03*
G54D46*
X825520Y15173D02*
D03*
Y149031D02*
D03*
X17000Y118685D02*
D03*
Y252543D02*
D03*
G54D47*
X519685Y11811D02*
D03*
X744095Y122047D02*
D03*
X519685Y145669D02*
D03*
X744095Y255906D02*
D03*
X322835Y122047D02*
D03*
X98425Y11811D02*
D03*
X322835Y255906D02*
D03*
X98425Y145669D02*
D03*
G54D48*
X597020Y82358D02*
D03*
X603520Y85858D02*
D03*
X458520Y117358D02*
D03*
X473520D02*
D03*
X637520Y64858D02*
D03*
X596520Y26858D02*
D03*
X644020Y86858D02*
D03*
X669520Y52358D02*
D03*
X627520Y44858D02*
D03*
X589020Y55858D02*
D03*
X556020Y50858D02*
D03*
Y41358D02*
D03*
X694520Y33858D02*
D03*
X703020Y110358D02*
D03*
Y80858D02*
D03*
X583520Y76358D02*
D03*
X613020Y60858D02*
D03*
X527520Y102358D02*
D03*
X548020Y101858D02*
D03*
X479020Y19858D02*
D03*
X597020Y216216D02*
D03*
X603520Y219717D02*
D03*
X458520Y251217D02*
D03*
X473520D02*
D03*
X637520Y198716D02*
D03*
X596520Y160716D02*
D03*
X644020Y220717D02*
D03*
X669520Y186216D02*
D03*
X627520Y178717D02*
D03*
X589020Y189716D02*
D03*
X556020Y184716D02*
D03*
Y175216D02*
D03*
X694520Y167717D02*
D03*
X703020Y244216D02*
D03*
Y214717D02*
D03*
X583520Y210216D02*
D03*
X613020Y194717D02*
D03*
X527520Y236216D02*
D03*
X548020Y235717D02*
D03*
X479020Y153717D02*
D03*
X245500Y51500D02*
D03*
X239000Y48000D02*
D03*
X384000Y16500D02*
D03*
X369000D02*
D03*
X205000Y69000D02*
D03*
X246000Y107000D02*
D03*
X198500Y47000D02*
D03*
X173000Y81500D02*
D03*
X215000Y89000D02*
D03*
X253500Y78000D02*
D03*
X286500Y83000D02*
D03*
Y92500D02*
D03*
X148000Y100000D02*
D03*
X139500Y23500D02*
D03*
Y53000D02*
D03*
X259000Y57500D02*
D03*
X229500Y73000D02*
D03*
X315000Y31500D02*
D03*
X294500Y32000D02*
D03*
X363500Y114000D02*
D03*
X245500Y185358D02*
D03*
X239000Y181858D02*
D03*
X384000Y150358D02*
D03*
X369000D02*
D03*
X205000Y202858D02*
D03*
X246000Y240858D02*
D03*
X198500Y180858D02*
D03*
X173000Y215358D02*
D03*
X215000Y222858D02*
D03*
X253500Y211858D02*
D03*
X286500Y216858D02*
D03*
Y226358D02*
D03*
X148000Y233858D02*
D03*
X139500Y157358D02*
D03*
Y186858D02*
D03*
X259000Y191358D02*
D03*
X229500Y206858D02*
D03*
X315000Y165358D02*
D03*
X294500Y165858D02*
D03*
X363500Y247858D02*
D03*
M02*
