G04*
G04 #@! TF.GenerationSoftware,Altium Limited,Altium Designer,21.6.4 (81)*
G04*
G04 Layer_Color=65535*
%FSLAX25Y25*%
%MOIN*%
G70*
G04*
G04 #@! TF.SameCoordinates,3D6B76B5-807D-490A-A4E0-8169CAFFE717*
G04*
G04*
G04 #@! TF.FilePolarity,Positive*
G04*
G01*
G75*
%ADD29C,0.01000*%
%ADD49C,0.00500*%
%ADD50C,0.00787*%
%ADD51C,0.00400*%
%ADD52R,0.02000X0.01500*%
%ADD53R,0.03937X0.03937*%
%ADD54R,0.04000X0.02000*%
%ADD55R,0.02000X0.04000*%
%ADD56R,0.03937X0.03937*%
G54D29*
X509842Y11811D02*
X509893Y10815D01*
X510044Y9830D01*
X510294Y8864D01*
X510640Y7930D01*
X511079Y7034D01*
X511607Y6188D01*
X512217Y5400D01*
X512904Y4677D01*
X513660Y4028D01*
X514479Y3458D01*
X515350Y2974D01*
X516267Y2581D01*
X517218Y2283D01*
X518195Y2082D01*
X519186Y1981D01*
X520184D01*
X521175Y2082D01*
X522152Y2283D01*
X523103Y2581D01*
X524020Y2974D01*
X524891Y3458D01*
X525710Y4028D01*
X526466Y4677D01*
X527153Y5400D01*
X527763Y6188D01*
X528291Y7034D01*
X528730Y7930D01*
X529076Y8865D01*
X529326Y9830D01*
X529477Y10815D01*
X529528Y11811D01*
X529477Y12807D01*
X529326Y13792D01*
X529076Y14758D01*
X528730Y15692D01*
X528291Y16588D01*
X527763Y17434D01*
X527153Y18222D01*
X526466Y18945D01*
X525710Y19594D01*
X524891Y20164D01*
X524020Y20648D01*
X523103Y21041D01*
X522152Y21339D01*
X521175Y21540D01*
X520184Y21641D01*
X519186Y21641D01*
X518195Y21540D01*
X517218Y21339D01*
X516267Y21041D01*
X515350Y20648D01*
X514479Y20164D01*
X513660Y19594D01*
X512904Y18945D01*
X512217Y18222D01*
X511607Y17434D01*
X511079Y16588D01*
X510640Y15692D01*
X510294Y14758D01*
X510044Y13792D01*
X509893Y12807D01*
X509842Y11811D01*
X734252Y122047D02*
X734303Y121052D01*
X734453Y120066D01*
X734703Y119101D01*
X735050Y118166D01*
X735489Y117271D01*
X736016Y116425D01*
X736626Y115636D01*
X737313Y114913D01*
X738070Y114264D01*
X738888Y113695D01*
X739760Y113211D01*
X740676Y112817D01*
X741627Y112519D01*
X742604Y112318D01*
X743596Y112217D01*
X744593D01*
X745585Y112318D01*
X746561Y112519D01*
X747513Y112817D01*
X748429Y113211D01*
X749301Y113695D01*
X750119Y114264D01*
X750876Y114913D01*
X751563Y115636D01*
X752173Y116425D01*
X752700Y117271D01*
X753139Y118166D01*
X753486Y119101D01*
X753735Y120066D01*
X753887Y121052D01*
X753937Y122047D01*
X753887Y123043D01*
X753735Y124029D01*
X753486Y124994D01*
X753139Y125929D01*
X752700Y126824D01*
X752173Y127670D01*
X751563Y128458D01*
X750876Y129181D01*
X750119Y129831D01*
X749301Y130400D01*
X748429Y130884D01*
X747513Y131277D01*
X746561Y131576D01*
X745585Y131776D01*
X744593Y131877D01*
X743596Y131877D01*
X742604Y131776D01*
X741627Y131576D01*
X740676Y131277D01*
X739760Y130884D01*
X738888Y130400D01*
X738070Y129830D01*
X737313Y129181D01*
X736626Y128458D01*
X736016Y127670D01*
X735489Y126824D01*
X735050Y125929D01*
X734703Y124994D01*
X734453Y124029D01*
X734303Y123043D01*
X734252Y122047D01*
X517518Y116357D02*
Y110359D01*
X514519D01*
X513519Y111359D01*
Y113358D01*
X514519Y114358D01*
X517518D01*
X515519D02*
X513519Y116357D01*
X511520Y110359D02*
X507521D01*
Y111359D01*
X511520Y115358D01*
Y116357D01*
X553018Y98859D02*
X549019Y104857D01*
Y98859D02*
X553018Y104857D01*
X543021D02*
X547020D01*
X543021Y100859D01*
Y99859D01*
X544021Y98859D01*
X546020D01*
X547020Y99859D01*
X562018Y61359D02*
X558020Y67357D01*
Y61359D02*
X562018Y67357D01*
X556020D02*
X554021D01*
X555021D01*
Y61359D01*
X556020Y62359D01*
X725018Y66359D02*
Y71358D01*
X724018Y72357D01*
X722019D01*
X721019Y71358D01*
Y66359D01*
X719020Y67359D02*
X718020Y66359D01*
X716021D01*
X715021Y67359D01*
Y68359D01*
X716021Y69358D01*
X717021D01*
X716021D01*
X715021Y70358D01*
Y71358D01*
X716021Y72357D01*
X718020D01*
X719020Y71358D01*
X444018Y107859D02*
Y112858D01*
X443018Y113857D01*
X441019D01*
X440019Y112858D01*
Y107859D01*
X434021Y113857D02*
X438020D01*
X434021Y109859D01*
Y108859D01*
X435021Y107859D01*
X437020D01*
X438020Y108859D01*
X603518Y33359D02*
Y38358D01*
X602519Y39357D01*
X600519D01*
X599520Y38358D01*
Y33359D01*
X597520Y39357D02*
X595521D01*
X596521D01*
Y33359D01*
X597520Y34359D01*
X728517Y11357D02*
Y5359D01*
X725518D01*
X724519Y6359D01*
Y8358D01*
X725518Y9358D01*
X728517D01*
X726518D02*
X724519Y11357D01*
X722519Y5359D02*
Y11357D01*
X718521D01*
X716521D02*
X714522D01*
X715522D01*
Y5359D01*
X716521Y6359D01*
X709017Y70357D02*
Y64359D01*
X706018D01*
X705019Y65359D01*
Y67358D01*
X706018Y68358D01*
X709017D01*
X707018D02*
X705019Y70357D01*
X703019D02*
X701020D01*
X702020D01*
Y64359D01*
X703019Y65359D01*
X698021D02*
X697021Y64359D01*
X695022D01*
X694022Y65359D01*
Y66359D01*
X695022Y67358D01*
X696022D01*
X695022D01*
X694022Y68358D01*
Y69358D01*
X695022Y70357D01*
X697021D01*
X698021Y69358D01*
X675517Y101857D02*
Y95859D01*
X672518D01*
X671519Y96859D01*
Y98858D01*
X672518Y99858D01*
X675517D01*
X673518D02*
X671519Y101857D01*
X669519D02*
X667520D01*
X668519D01*
Y95859D01*
X669519Y96859D01*
X660522Y101857D02*
X664521D01*
X660522Y97859D01*
Y96859D01*
X661522Y95859D01*
X663521D01*
X664521Y96859D01*
X675018Y81357D02*
Y75359D01*
X672018D01*
X671019Y76359D01*
Y78358D01*
X672018Y79358D01*
X675018D01*
X673018D02*
X671019Y81357D01*
X669020D02*
X667020D01*
X668020D01*
Y75359D01*
X669020Y76359D01*
X664021Y81357D02*
X662022D01*
X663022D01*
Y75359D01*
X664021Y76359D01*
X707577Y48857D02*
Y42859D01*
X704578D01*
X703579Y43859D01*
Y45858D01*
X704578Y46858D01*
X707577D01*
X705578D02*
X703579Y48857D01*
X701579D02*
X699580D01*
X700580D01*
Y42859D01*
X701579Y43859D01*
X696581D02*
X695581Y42859D01*
X693582D01*
X692582Y43859D01*
Y47858D01*
X693582Y48857D01*
X695581D01*
X696581Y47858D01*
Y43859D01*
X704018Y59857D02*
Y53859D01*
X701019D01*
X700019Y54859D01*
Y56858D01*
X701019Y57858D01*
X704018D01*
X702019D02*
X700019Y59857D01*
X698020Y58858D02*
X697020Y59857D01*
X695021D01*
X694021Y58858D01*
Y54859D01*
X695021Y53859D01*
X697020D01*
X698020Y54859D01*
Y55859D01*
X697020Y56858D01*
X694021D01*
X457518Y12357D02*
Y6359D01*
X454519D01*
X453519Y7359D01*
Y9358D01*
X454519Y10358D01*
X457518D01*
X455519D02*
X453519Y12357D01*
X451520Y7359D02*
X450520Y6359D01*
X448521D01*
X447521Y7359D01*
Y8359D01*
X448521Y9358D01*
X447521Y10358D01*
Y11358D01*
X448521Y12357D01*
X450520D01*
X451520Y11358D01*
Y10358D01*
X450520Y9358D01*
X451520Y8359D01*
Y7359D01*
X450520Y9358D02*
X448521D01*
X517518Y127857D02*
Y121859D01*
X514519D01*
X513519Y122859D01*
Y124858D01*
X514519Y125858D01*
X517518D01*
X515519D02*
X513519Y127857D01*
X507521Y121859D02*
X509521Y122859D01*
X511520Y124858D01*
Y126858D01*
X510520Y127857D01*
X508521D01*
X507521Y126858D01*
Y125858D01*
X508521Y124858D01*
X511520D01*
X512018Y28857D02*
Y22859D01*
X509019D01*
X508019Y23859D01*
Y25858D01*
X509019Y26858D01*
X512018D01*
X510019D02*
X508019Y28857D01*
X502021Y22859D02*
X506020D01*
Y25858D01*
X504021Y24859D01*
X503021D01*
X502021Y25858D01*
Y27858D01*
X503021Y28857D01*
X505020D01*
X506020Y27858D01*
X627518Y90857D02*
Y84859D01*
X624519D01*
X623519Y85859D01*
Y87858D01*
X624519Y88858D01*
X627518D01*
X625519D02*
X623519Y90857D01*
X618521D02*
Y84859D01*
X621520Y87858D01*
X617521D01*
X677018Y117357D02*
Y111359D01*
X674019D01*
X673019Y112359D01*
Y114358D01*
X674019Y115358D01*
X677018D01*
X675019D02*
X673019Y117357D01*
X671020Y112359D02*
X670020Y111359D01*
X668021D01*
X667021Y112359D01*
Y113359D01*
X668021Y114358D01*
X669021D01*
X668021D01*
X667021Y115358D01*
Y116358D01*
X668021Y117357D01*
X670020D01*
X671020Y116358D01*
X598018Y112857D02*
Y106859D01*
X595019D01*
X594019Y107859D01*
Y109858D01*
X595019Y110858D01*
X598018D01*
X596019D02*
X594019Y112857D01*
X588021D02*
X592020D01*
X588021Y108859D01*
Y107859D01*
X589021Y106859D01*
X591020D01*
X592020Y107859D01*
X643518Y104357D02*
Y98359D01*
X640519D01*
X639520Y99359D01*
Y101358D01*
X640519Y102358D01*
X643518D01*
X641519D02*
X639520Y104357D01*
X637520D02*
X635521D01*
X636521D01*
Y98359D01*
X637520Y99359D01*
X718520Y27858D02*
Y23859D01*
X719519Y22859D01*
X721519D01*
X722518Y23859D01*
Y27858D01*
X721519Y28857D01*
X719519D01*
X720519Y26858D02*
X718520Y28857D01*
X719519D02*
X718520Y27858D01*
X716520Y28857D02*
X714521D01*
X715521D01*
Y22859D01*
X716520Y23859D01*
X801018Y73357D02*
Y67359D01*
X798019D01*
X797020Y68359D01*
Y70358D01*
X798019Y71358D01*
X801018D01*
X795020Y73357D02*
X793021D01*
X794021D01*
Y67359D01*
X795020Y68359D01*
X708018Y111859D02*
Y117857D01*
X704020D01*
X702020D02*
X700021D01*
X701021D01*
Y111859D01*
X702020Y112859D01*
X674518Y105859D02*
Y111857D01*
X671519D01*
X670519Y110858D01*
Y106859D01*
X671519Y105859D01*
X674518D01*
X664521D02*
X666521Y106859D01*
X668520Y108858D01*
Y110858D01*
X667520Y111857D01*
X665521D01*
X664521Y110858D01*
Y109858D01*
X665521Y108858D01*
X668520D01*
X708518Y101359D02*
Y107357D01*
X705519D01*
X704519Y106358D01*
Y102359D01*
X705519Y101359D01*
X708518D01*
X698521D02*
X702520D01*
Y104358D01*
X700521Y103359D01*
X699521D01*
X698521Y104358D01*
Y106358D01*
X699521Y107357D01*
X701520D01*
X702520Y106358D01*
X802018Y95359D02*
Y101357D01*
X799019D01*
X798019Y100358D01*
Y96359D01*
X799019Y95359D01*
X802018D01*
X793021Y101357D02*
Y95359D01*
X796020Y98358D01*
X792021D01*
X817518Y66859D02*
Y72857D01*
X814519D01*
X813519Y71858D01*
Y67859D01*
X814519Y66859D01*
X817518D01*
X811520Y67859D02*
X810520Y66859D01*
X808521D01*
X807521Y67859D01*
Y68859D01*
X808521Y69858D01*
X809521D01*
X808521D01*
X807521Y70858D01*
Y71858D01*
X808521Y72857D01*
X810520D01*
X811520Y71858D01*
X675518Y85859D02*
Y91857D01*
X672519D01*
X671519Y90858D01*
Y86859D01*
X672519Y85859D01*
X675518D01*
X665521Y91857D02*
X669520D01*
X665521Y87859D01*
Y86859D01*
X666521Y85859D01*
X668520D01*
X669520Y86859D01*
X723018Y45859D02*
Y51857D01*
X720019D01*
X719020Y50858D01*
Y46859D01*
X720019Y45859D01*
X723018D01*
X717020Y51857D02*
X715021D01*
X716021D01*
Y45859D01*
X717020Y46859D01*
X825019Y110857D02*
X826019Y111857D01*
Y113856D01*
X825019Y114856D01*
X821020D01*
X820021Y113856D01*
Y111857D01*
X821020Y110857D01*
X820021Y108858D02*
X826019D01*
X820021Y104859D01*
X826019D01*
X825019Y102860D02*
X826019Y101860D01*
Y99861D01*
X825019Y98861D01*
X824019D01*
X823020Y99861D01*
Y100860D01*
Y99861D01*
X822020Y98861D01*
X821020D01*
X820021Y99861D01*
Y101860D01*
X821020Y102860D01*
X834518Y67859D02*
X835518Y66859D01*
X837517D01*
X838517Y67859D01*
Y71858D01*
X837517Y72857D01*
X835518D01*
X834518Y71858D01*
X832519Y72857D02*
Y66859D01*
X828520Y72857D01*
Y66859D01*
X822522Y72857D02*
X826521D01*
X822522Y68859D01*
Y67859D01*
X823522Y66859D01*
X825521D01*
X826521Y67859D01*
X594019Y122859D02*
X595018Y121859D01*
X597018D01*
X598017Y122859D01*
Y126858D01*
X597018Y127857D01*
X595018D01*
X594019Y126858D01*
X592019Y127857D02*
Y121859D01*
X588021Y127857D01*
Y121859D01*
X586021Y127857D02*
X584022D01*
X585022D01*
Y121859D01*
X586021Y122859D01*
X749519Y90359D02*
X750518Y89359D01*
X752518D01*
X753517Y90359D01*
Y94358D01*
X752518Y95357D01*
X750518D01*
X749519Y94358D01*
X743521Y95357D02*
X747519D01*
X743521Y91359D01*
Y90359D01*
X744520Y89359D01*
X746520D01*
X747519Y90359D01*
X741521Y95357D02*
X739522D01*
X740522D01*
Y89359D01*
X741521Y90359D01*
X706518Y123359D02*
X707518Y122359D01*
X709517D01*
X710517Y123359D01*
Y127358D01*
X709517Y128357D01*
X707518D01*
X706518Y127358D01*
X700520Y128357D02*
X704519D01*
X700520Y124359D01*
Y123359D01*
X701520Y122359D01*
X703519D01*
X704519Y123359D01*
X698521D02*
X697521Y122359D01*
X695522D01*
X694522Y123359D01*
Y127358D01*
X695522Y128357D01*
X697521D01*
X698521Y127358D01*
Y123359D01*
X668518Y122859D02*
X669518Y121859D01*
X671518D01*
X672517Y122859D01*
Y126858D01*
X671518Y127857D01*
X669518D01*
X668518Y126858D01*
X666519Y127857D02*
X664520D01*
X665520D01*
Y121859D01*
X666519Y122859D01*
X661521Y126858D02*
X660521Y127857D01*
X658522D01*
X657522Y126858D01*
Y122859D01*
X658522Y121859D01*
X660521D01*
X661521Y122859D01*
Y123859D01*
X660521Y124858D01*
X657522D01*
X750519Y100359D02*
X751518Y99359D01*
X753518D01*
X754517Y100359D01*
Y104358D01*
X753518Y105357D01*
X751518D01*
X750519Y104358D01*
X748519Y105357D02*
X746520D01*
X747519D01*
Y99359D01*
X748519Y100359D01*
X743521D02*
X742521Y99359D01*
X740522D01*
X739522Y100359D01*
Y101359D01*
X740522Y102358D01*
X739522Y103358D01*
Y104358D01*
X740522Y105357D01*
X742521D01*
X743521Y104358D01*
Y103358D01*
X742521Y102358D01*
X743521Y101359D01*
Y100359D01*
X742521Y102358D02*
X740522D01*
X749518Y79859D02*
X750518Y78859D01*
X752518D01*
X753517Y79859D01*
Y83858D01*
X752518Y84857D01*
X750518D01*
X749518Y83858D01*
X747519Y84857D02*
X745520D01*
X746520D01*
Y78859D01*
X747519Y79859D01*
X742521Y78859D02*
X738522D01*
Y79859D01*
X742521Y83858D01*
Y84857D01*
X705019Y91859D02*
X706018Y90859D01*
X708018D01*
X709017Y91859D01*
Y95858D01*
X708018Y96857D01*
X706018D01*
X705019Y95858D01*
X703019Y96857D02*
X701020D01*
X702020D01*
Y90859D01*
X703019Y91859D01*
X694022Y90859D02*
X696022Y91859D01*
X698021Y93858D01*
Y95858D01*
X697021Y96857D01*
X695022D01*
X694022Y95858D01*
Y94858D01*
X695022Y93858D01*
X698021D01*
X544519Y57859D02*
X545518Y56859D01*
X547518D01*
X548517Y57859D01*
Y61858D01*
X547518Y62857D01*
X545518D01*
X544519Y61858D01*
X542519Y62857D02*
X540520D01*
X541519D01*
Y56859D01*
X542519Y57859D01*
X533522Y56859D02*
X537521D01*
Y59858D01*
X535522Y58859D01*
X534522D01*
X533522Y59858D01*
Y61858D01*
X534522Y62857D01*
X536521D01*
X537521Y61858D01*
X544019Y28859D02*
X545018Y27859D01*
X547018D01*
X548017Y28859D01*
Y32858D01*
X547018Y33857D01*
X545018D01*
X544019Y32858D01*
X542019Y33857D02*
X540020D01*
X541019D01*
Y27859D01*
X542019Y28859D01*
X534022Y33857D02*
Y27859D01*
X537021Y30858D01*
X533022D01*
X454018Y18359D02*
X455018Y17359D01*
X457018D01*
X458017Y18359D01*
Y22358D01*
X457018Y23357D01*
X455018D01*
X454018Y22358D01*
X452019Y23357D02*
X450020D01*
X451019D01*
Y17359D01*
X452019Y18359D01*
X447021D02*
X446021Y17359D01*
X444022D01*
X443022Y18359D01*
Y19359D01*
X444022Y20358D01*
X445021D01*
X444022D01*
X443022Y21358D01*
Y22358D01*
X444022Y23357D01*
X446021D01*
X447021Y22358D01*
X558519Y90859D02*
X559518Y89859D01*
X561518D01*
X562517Y90859D01*
Y94858D01*
X561518Y95857D01*
X559518D01*
X558519Y94858D01*
X556519Y95857D02*
X554520D01*
X555519D01*
Y89859D01*
X556519Y90859D01*
X547522Y95857D02*
X551521D01*
X547522Y91859D01*
Y90859D01*
X548522Y89859D01*
X550521D01*
X551521Y90859D01*
X664519Y12859D02*
X665519Y11859D01*
X667518D01*
X668518Y12859D01*
Y16858D01*
X667518Y17857D01*
X665519D01*
X664519Y16858D01*
X662520Y17857D02*
X660520D01*
X661520D01*
Y11859D01*
X662520Y12859D01*
X657521Y17857D02*
X655522D01*
X656522D01*
Y11859D01*
X657521Y12859D01*
X557518Y109359D02*
X558518Y108359D01*
X560518D01*
X561517Y109359D01*
Y113358D01*
X560518Y114357D01*
X558518D01*
X557518Y113358D01*
X555519Y114357D02*
X553520D01*
X554520D01*
Y108359D01*
X555519Y109359D01*
X550521D02*
X549521Y108359D01*
X547522D01*
X546522Y109359D01*
Y113358D01*
X547522Y114357D01*
X549521D01*
X550521Y113358D01*
Y109359D01*
X594519Y94359D02*
X595519Y93359D01*
X597518D01*
X598518Y94359D01*
Y98358D01*
X597518Y99357D01*
X595519D01*
X594519Y98358D01*
X592520D02*
X591520Y99357D01*
X589521D01*
X588521Y98358D01*
Y94359D01*
X589521Y93359D01*
X591520D01*
X592520Y94359D01*
Y95359D01*
X591520Y96358D01*
X588521D01*
X585519Y44859D02*
X586519Y43859D01*
X588518D01*
X589518Y44859D01*
Y48858D01*
X588518Y49857D01*
X586519D01*
X585519Y48858D01*
X583520Y44859D02*
X582520Y43859D01*
X580521D01*
X579521Y44859D01*
Y45859D01*
X580521Y46858D01*
X579521Y47858D01*
Y48858D01*
X580521Y49857D01*
X582520D01*
X583520Y48858D01*
Y47858D01*
X582520Y46858D01*
X583520Y45859D01*
Y44859D01*
X582520Y46858D02*
X580521D01*
X558519Y78859D02*
X559519Y77859D01*
X561518D01*
X562518Y78859D01*
Y82858D01*
X561518Y83857D01*
X559519D01*
X558519Y82858D01*
X556520Y77859D02*
X552521D01*
Y78859D01*
X556520Y82858D01*
Y83857D01*
X668019Y57859D02*
X669019Y56859D01*
X671018D01*
X672018Y57859D01*
Y61858D01*
X671018Y62857D01*
X669019D01*
X668019Y61858D01*
X662021Y56859D02*
X664021Y57859D01*
X666020Y59858D01*
Y61858D01*
X665020Y62857D01*
X663021D01*
X662021Y61858D01*
Y60858D01*
X663021Y59858D01*
X666020D01*
X585519Y34359D02*
X586519Y33359D01*
X588518D01*
X589518Y34359D01*
Y38358D01*
X588518Y39357D01*
X586519D01*
X585519Y38358D01*
X579521Y33359D02*
X583520D01*
Y36358D01*
X581521Y35359D01*
X580521D01*
X579521Y36358D01*
Y38358D01*
X580521Y39357D01*
X582520D01*
X583520Y38358D01*
X585519Y23859D02*
X586519Y22859D01*
X588518D01*
X589518Y23859D01*
Y27858D01*
X588518Y28857D01*
X586519D01*
X585519Y27858D01*
X580521Y28857D02*
Y22859D01*
X583520Y25858D01*
X579521D01*
X662019Y23359D02*
X663019Y22359D01*
X665018D01*
X666018Y23359D01*
Y27358D01*
X665018Y28357D01*
X663019D01*
X662019Y27358D01*
X660020Y23359D02*
X659020Y22359D01*
X657021D01*
X656021Y23359D01*
Y24359D01*
X657021Y25358D01*
X658021D01*
X657021D01*
X656021Y26358D01*
Y27358D01*
X657021Y28357D01*
X659020D01*
X660020Y27358D01*
X624019Y100859D02*
X625019Y99859D01*
X627018D01*
X628018Y100859D01*
Y104858D01*
X627018Y105857D01*
X625019D01*
X624019Y104858D01*
X618021Y105857D02*
X622020D01*
X618021Y101859D01*
Y100859D01*
X619021Y99859D01*
X621020D01*
X622020Y100859D01*
X606520Y19859D02*
X607519Y18859D01*
X609519D01*
X610518Y19859D01*
Y23858D01*
X609519Y24857D01*
X607519D01*
X606520Y23858D01*
X604520Y24857D02*
X602521D01*
X603521D01*
Y18859D01*
X604520Y19859D01*
X509842Y145669D02*
X509893Y144674D01*
X510044Y143688D01*
X510294Y142723D01*
X510640Y141788D01*
X511079Y140893D01*
X511607Y140047D01*
X512217Y139258D01*
X512904Y138535D01*
X513660Y137886D01*
X514479Y137317D01*
X515350Y136833D01*
X516267Y136439D01*
X517218Y136141D01*
X518195Y135940D01*
X519186Y135839D01*
X520184D01*
X521175Y135940D01*
X522152Y136141D01*
X523103Y136440D01*
X524020Y136833D01*
X524891Y137317D01*
X525710Y137886D01*
X526466Y138535D01*
X527153Y139258D01*
X527763Y140047D01*
X528291Y140893D01*
X528730Y141788D01*
X529076Y142723D01*
X529326Y143688D01*
X529477Y144674D01*
X529528Y145669D01*
X529477Y146665D01*
X529326Y147651D01*
X529076Y148616D01*
X528730Y149551D01*
X528291Y150446D01*
X527763Y151292D01*
X527153Y152081D01*
X526466Y152803D01*
X525710Y153453D01*
X524891Y154022D01*
X524020Y154506D01*
X523103Y154899D01*
X522152Y155198D01*
X521175Y155398D01*
X520184Y155499D01*
X519186Y155499D01*
X518195Y155398D01*
X517218Y155198D01*
X516267Y154899D01*
X515350Y154506D01*
X514479Y154022D01*
X513660Y153453D01*
X512904Y152803D01*
X512217Y152080D01*
X511607Y151292D01*
X511079Y150446D01*
X510640Y149551D01*
X510294Y148616D01*
X510044Y147651D01*
X509893Y146665D01*
X509842Y145669D01*
X734252Y255906D02*
X734303Y254910D01*
X734453Y253924D01*
X734703Y252959D01*
X735050Y252024D01*
X735489Y251129D01*
X736016Y250283D01*
X736626Y249494D01*
X737313Y248772D01*
X738070Y248122D01*
X738888Y247553D01*
X739760Y247069D01*
X740676Y246676D01*
X741627Y246377D01*
X742604Y246177D01*
X743596Y246076D01*
X744593D01*
X745585Y246177D01*
X746561Y246377D01*
X747513Y246676D01*
X748429Y247069D01*
X749301Y247553D01*
X750119Y248122D01*
X750876Y248772D01*
X751563Y249494D01*
X752173Y250283D01*
X752700Y251129D01*
X753139Y252024D01*
X753486Y252959D01*
X753735Y253924D01*
X753887Y254910D01*
X753937Y255906D01*
X753887Y256901D01*
X753735Y257887D01*
X753486Y258852D01*
X753139Y259787D01*
X752700Y260682D01*
X752173Y261528D01*
X751563Y262317D01*
X750876Y263039D01*
X750119Y263689D01*
X749301Y264258D01*
X748429Y264742D01*
X747513Y265135D01*
X746561Y265434D01*
X745585Y265634D01*
X744593Y265735D01*
X743596Y265735D01*
X742604Y265634D01*
X741627Y265434D01*
X740676Y265135D01*
X739760Y264742D01*
X738888Y264258D01*
X738070Y263689D01*
X737313Y263039D01*
X736626Y262317D01*
X736016Y261528D01*
X735489Y260682D01*
X735050Y259787D01*
X734703Y258852D01*
X734453Y257887D01*
X734303Y256901D01*
X734252Y255906D01*
X517518Y250216D02*
Y244217D01*
X514519D01*
X513519Y245217D01*
Y247217D01*
X514519Y248216D01*
X517518D01*
X515519D02*
X513519Y250216D01*
X511520Y244217D02*
X507521D01*
Y245217D01*
X511520Y249216D01*
Y250216D01*
X553018Y232717D02*
X549019Y238716D01*
Y232717D02*
X553018Y238716D01*
X543021D02*
X547020D01*
X543021Y234717D01*
Y233717D01*
X544021Y232717D01*
X546020D01*
X547020Y233717D01*
X562018Y195218D02*
X558020Y201216D01*
Y195218D02*
X562018Y201216D01*
X556020D02*
X554021D01*
X555021D01*
Y195218D01*
X556020Y196217D01*
X725018Y200218D02*
Y205216D01*
X724018Y206216D01*
X722019D01*
X721019Y205216D01*
Y200218D01*
X719020Y201217D02*
X718020Y200218D01*
X716021D01*
X715021Y201217D01*
Y202217D01*
X716021Y203217D01*
X717021D01*
X716021D01*
X715021Y204216D01*
Y205216D01*
X716021Y206216D01*
X718020D01*
X719020Y205216D01*
X444018Y241718D02*
Y246716D01*
X443018Y247716D01*
X441019D01*
X440019Y246716D01*
Y241718D01*
X434021Y247716D02*
X438020D01*
X434021Y243717D01*
Y242717D01*
X435021Y241718D01*
X437020D01*
X438020Y242717D01*
X603518Y167218D02*
Y172216D01*
X602519Y173216D01*
X600519D01*
X599520Y172216D01*
Y167218D01*
X597520Y173216D02*
X595521D01*
X596521D01*
Y167218D01*
X597520Y168217D01*
X728517Y145216D02*
Y139217D01*
X725518D01*
X724519Y140217D01*
Y142217D01*
X725518Y143216D01*
X728517D01*
X726518D02*
X724519Y145216D01*
X722519Y139217D02*
Y145216D01*
X718521D01*
X716521D02*
X714522D01*
X715522D01*
Y139217D01*
X716521Y140217D01*
X709017Y204216D02*
Y198217D01*
X706018D01*
X705019Y199217D01*
Y201217D01*
X706018Y202216D01*
X709017D01*
X707018D02*
X705019Y204216D01*
X703019D02*
X701020D01*
X702020D01*
Y198217D01*
X703019Y199217D01*
X698021D02*
X697021Y198217D01*
X695022D01*
X694022Y199217D01*
Y200217D01*
X695022Y201217D01*
X696022D01*
X695022D01*
X694022Y202216D01*
Y203216D01*
X695022Y204216D01*
X697021D01*
X698021Y203216D01*
X675517Y235716D02*
Y229717D01*
X672518D01*
X671519Y230717D01*
Y232716D01*
X672518Y233716D01*
X675517D01*
X673518D02*
X671519Y235716D01*
X669519D02*
X667520D01*
X668519D01*
Y229717D01*
X669519Y230717D01*
X660522Y235716D02*
X664521D01*
X660522Y231717D01*
Y230717D01*
X661522Y229717D01*
X663521D01*
X664521Y230717D01*
X675018Y215216D02*
Y209218D01*
X672018D01*
X671019Y210217D01*
Y212216D01*
X672018Y213216D01*
X675018D01*
X673018D02*
X671019Y215216D01*
X669020D02*
X667020D01*
X668020D01*
Y209218D01*
X669020Y210217D01*
X664021Y215216D02*
X662022D01*
X663022D01*
Y209218D01*
X664021Y210217D01*
X707577Y182716D02*
Y176717D01*
X704578D01*
X703579Y177717D01*
Y179717D01*
X704578Y180716D01*
X707577D01*
X705578D02*
X703579Y182716D01*
X701579D02*
X699580D01*
X700580D01*
Y176717D01*
X701579Y177717D01*
X696581D02*
X695581Y176717D01*
X693582D01*
X692582Y177717D01*
Y181716D01*
X693582Y182716D01*
X695581D01*
X696581Y181716D01*
Y177717D01*
X704018Y193716D02*
Y187717D01*
X701019D01*
X700019Y188717D01*
Y190717D01*
X701019Y191716D01*
X704018D01*
X702019D02*
X700019Y193716D01*
X698020Y192716D02*
X697020Y193716D01*
X695021D01*
X694021Y192716D01*
Y188717D01*
X695021Y187717D01*
X697020D01*
X698020Y188717D01*
Y189717D01*
X697020Y190717D01*
X694021D01*
X457518Y146216D02*
Y140217D01*
X454519D01*
X453519Y141217D01*
Y143217D01*
X454519Y144216D01*
X457518D01*
X455519D02*
X453519Y146216D01*
X451520Y141217D02*
X450520Y140217D01*
X448521D01*
X447521Y141217D01*
Y142217D01*
X448521Y143217D01*
X447521Y144216D01*
Y145216D01*
X448521Y146216D01*
X450520D01*
X451520Y145216D01*
Y144216D01*
X450520Y143217D01*
X451520Y142217D01*
Y141217D01*
X450520Y143217D02*
X448521D01*
X517518Y261716D02*
Y255717D01*
X514519D01*
X513519Y256717D01*
Y258717D01*
X514519Y259716D01*
X517518D01*
X515519D02*
X513519Y261716D01*
X507521Y255717D02*
X509521Y256717D01*
X511520Y258717D01*
Y260716D01*
X510520Y261716D01*
X508521D01*
X507521Y260716D01*
Y259716D01*
X508521Y258717D01*
X511520D01*
X512018Y162716D02*
Y156718D01*
X509019D01*
X508019Y157717D01*
Y159716D01*
X509019Y160716D01*
X512018D01*
X510019D02*
X508019Y162716D01*
X502021Y156718D02*
X506020D01*
Y159716D01*
X504021Y158717D01*
X503021D01*
X502021Y159716D01*
Y161716D01*
X503021Y162716D01*
X505020D01*
X506020Y161716D01*
X627518Y224716D02*
Y218718D01*
X624519D01*
X623519Y219717D01*
Y221716D01*
X624519Y222716D01*
X627518D01*
X625519D02*
X623519Y224716D01*
X618521D02*
Y218718D01*
X621520Y221716D01*
X617521D01*
X677018Y251216D02*
Y245217D01*
X674019D01*
X673019Y246217D01*
Y248217D01*
X674019Y249216D01*
X677018D01*
X675019D02*
X673019Y251216D01*
X671020Y246217D02*
X670020Y245217D01*
X668021D01*
X667021Y246217D01*
Y247217D01*
X668021Y248217D01*
X669021D01*
X668021D01*
X667021Y249216D01*
Y250216D01*
X668021Y251216D01*
X670020D01*
X671020Y250216D01*
X598018Y246716D02*
Y240718D01*
X595019D01*
X594019Y241717D01*
Y243717D01*
X595019Y244716D01*
X598018D01*
X596019D02*
X594019Y246716D01*
X588021D02*
X592020D01*
X588021Y242717D01*
Y241717D01*
X589021Y240718D01*
X591020D01*
X592020Y241717D01*
X643518Y238216D02*
Y232218D01*
X640519D01*
X639520Y233217D01*
Y235216D01*
X640519Y236216D01*
X643518D01*
X641519D02*
X639520Y238216D01*
X637520D02*
X635521D01*
X636521D01*
Y232218D01*
X637520Y233217D01*
X718520Y161716D02*
Y157717D01*
X719519Y156718D01*
X721519D01*
X722518Y157717D01*
Y161716D01*
X721519Y162716D01*
X719519D01*
X720519Y160716D02*
X718520Y162716D01*
X719519D02*
X718520Y161716D01*
X716520Y162716D02*
X714521D01*
X715521D01*
Y156718D01*
X716520Y157717D01*
X801018Y207216D02*
Y201218D01*
X798019D01*
X797020Y202217D01*
Y204217D01*
X798019Y205216D01*
X801018D01*
X795020Y207216D02*
X793021D01*
X794021D01*
Y201218D01*
X795020Y202217D01*
X708018Y245718D02*
Y251716D01*
X704020D01*
X702020D02*
X700021D01*
X701021D01*
Y245718D01*
X702020Y246717D01*
X674518Y239718D02*
Y245716D01*
X671519D01*
X670519Y244716D01*
Y240717D01*
X671519Y239718D01*
X674518D01*
X664521D02*
X666521Y240717D01*
X668520Y242717D01*
Y244716D01*
X667520Y245716D01*
X665521D01*
X664521Y244716D01*
Y243716D01*
X665521Y242717D01*
X668520D01*
X708518Y235217D02*
Y241216D01*
X705519D01*
X704519Y240216D01*
Y236217D01*
X705519Y235217D01*
X708518D01*
X698521D02*
X702520D01*
Y238216D01*
X700521Y237217D01*
X699521D01*
X698521Y238216D01*
Y240216D01*
X699521Y241216D01*
X701520D01*
X702520Y240216D01*
X802018Y229218D02*
Y235216D01*
X799019D01*
X798019Y234216D01*
Y230217D01*
X799019Y229218D01*
X802018D01*
X793021Y235216D02*
Y229218D01*
X796020Y232217D01*
X792021D01*
X817518Y200717D02*
Y206716D01*
X814519D01*
X813519Y205716D01*
Y201717D01*
X814519Y200717D01*
X817518D01*
X811520Y201717D02*
X810520Y200717D01*
X808521D01*
X807521Y201717D01*
Y202717D01*
X808521Y203716D01*
X809521D01*
X808521D01*
X807521Y204716D01*
Y205716D01*
X808521Y206716D01*
X810520D01*
X811520Y205716D01*
X675518Y219718D02*
Y225716D01*
X672519D01*
X671519Y224716D01*
Y220717D01*
X672519Y219718D01*
X675518D01*
X665521Y225716D02*
X669520D01*
X665521Y221717D01*
Y220717D01*
X666521Y219718D01*
X668520D01*
X669520Y220717D01*
X723018Y179718D02*
Y185716D01*
X720019D01*
X719020Y184716D01*
Y180717D01*
X720019Y179718D01*
X723018D01*
X717020Y185716D02*
X715021D01*
X716021D01*
Y179718D01*
X717020Y180717D01*
X825019Y244715D02*
X826019Y245715D01*
Y247714D01*
X825019Y248714D01*
X821020D01*
X820021Y247714D01*
Y245715D01*
X821020Y244715D01*
X820021Y242716D02*
X826019D01*
X820021Y238717D01*
X826019D01*
X825019Y236718D02*
X826019Y235718D01*
Y233719D01*
X825019Y232719D01*
X824019D01*
X823020Y233719D01*
Y234718D01*
Y233719D01*
X822020Y232719D01*
X821020D01*
X820021Y233719D01*
Y235718D01*
X821020Y236718D01*
X834518Y201717D02*
X835518Y200717D01*
X837517D01*
X838517Y201717D01*
Y205716D01*
X837517Y206716D01*
X835518D01*
X834518Y205716D01*
X832519Y206716D02*
Y200717D01*
X828520Y206716D01*
Y200717D01*
X822522Y206716D02*
X826521D01*
X822522Y202717D01*
Y201717D01*
X823522Y200717D01*
X825521D01*
X826521Y201717D01*
X594019Y256717D02*
X595018Y255717D01*
X597018D01*
X598017Y256717D01*
Y260716D01*
X597018Y261716D01*
X595018D01*
X594019Y260716D01*
X592019Y261716D02*
Y255717D01*
X588021Y261716D01*
Y255717D01*
X586021Y261716D02*
X584022D01*
X585022D01*
Y255717D01*
X586021Y256717D01*
X749519Y224217D02*
X750518Y223218D01*
X752518D01*
X753517Y224217D01*
Y228216D01*
X752518Y229216D01*
X750518D01*
X749519Y228216D01*
X743521Y229216D02*
X747519D01*
X743521Y225217D01*
Y224217D01*
X744520Y223218D01*
X746520D01*
X747519Y224217D01*
X741521Y229216D02*
X739522D01*
X740522D01*
Y223218D01*
X741521Y224217D01*
X706518Y257217D02*
X707518Y256218D01*
X709517D01*
X710517Y257217D01*
Y261216D01*
X709517Y262216D01*
X707518D01*
X706518Y261216D01*
X700520Y262216D02*
X704519D01*
X700520Y258217D01*
Y257217D01*
X701520Y256218D01*
X703519D01*
X704519Y257217D01*
X698521D02*
X697521Y256218D01*
X695522D01*
X694522Y257217D01*
Y261216D01*
X695522Y262216D01*
X697521D01*
X698521Y261216D01*
Y257217D01*
X668518Y256717D02*
X669518Y255717D01*
X671518D01*
X672517Y256717D01*
Y260716D01*
X671518Y261716D01*
X669518D01*
X668518Y260716D01*
X666519Y261716D02*
X664520D01*
X665520D01*
Y255717D01*
X666519Y256717D01*
X661521Y260716D02*
X660521Y261716D01*
X658522D01*
X657522Y260716D01*
Y256717D01*
X658522Y255717D01*
X660521D01*
X661521Y256717D01*
Y257717D01*
X660521Y258717D01*
X657522D01*
X750519Y234217D02*
X751518Y233218D01*
X753518D01*
X754517Y234217D01*
Y238216D01*
X753518Y239216D01*
X751518D01*
X750519Y238216D01*
X748519Y239216D02*
X746520D01*
X747519D01*
Y233218D01*
X748519Y234217D01*
X743521D02*
X742521Y233218D01*
X740522D01*
X739522Y234217D01*
Y235217D01*
X740522Y236216D01*
X739522Y237216D01*
Y238216D01*
X740522Y239216D01*
X742521D01*
X743521Y238216D01*
Y237216D01*
X742521Y236216D01*
X743521Y235217D01*
Y234217D01*
X742521Y236216D02*
X740522D01*
X749518Y213717D02*
X750518Y212718D01*
X752518D01*
X753517Y213717D01*
Y217716D01*
X752518Y218716D01*
X750518D01*
X749518Y217716D01*
X747519Y218716D02*
X745520D01*
X746520D01*
Y212718D01*
X747519Y213717D01*
X742521Y212718D02*
X738522D01*
Y213717D01*
X742521Y217716D01*
Y218716D01*
X705019Y225717D02*
X706018Y224717D01*
X708018D01*
X709017Y225717D01*
Y229716D01*
X708018Y230716D01*
X706018D01*
X705019Y229716D01*
X703019Y230716D02*
X701020D01*
X702020D01*
Y224717D01*
X703019Y225717D01*
X694022Y224717D02*
X696022Y225717D01*
X698021Y227716D01*
Y229716D01*
X697021Y230716D01*
X695022D01*
X694022Y229716D01*
Y228716D01*
X695022Y227716D01*
X698021D01*
X544519Y191717D02*
X545518Y190717D01*
X547518D01*
X548517Y191717D01*
Y195716D01*
X547518Y196716D01*
X545518D01*
X544519Y195716D01*
X542519Y196716D02*
X540520D01*
X541519D01*
Y190717D01*
X542519Y191717D01*
X533522Y190717D02*
X537521D01*
Y193717D01*
X535522Y192717D01*
X534522D01*
X533522Y193717D01*
Y195716D01*
X534522Y196716D01*
X536521D01*
X537521Y195716D01*
X544019Y162717D02*
X545018Y161717D01*
X547018D01*
X548017Y162717D01*
Y166716D01*
X547018Y167716D01*
X545018D01*
X544019Y166716D01*
X542019Y167716D02*
X540020D01*
X541019D01*
Y161717D01*
X542019Y162717D01*
X534022Y167716D02*
Y161717D01*
X537021Y164716D01*
X533022D01*
X454018Y152217D02*
X455018Y151217D01*
X457018D01*
X458017Y152217D01*
Y156216D01*
X457018Y157216D01*
X455018D01*
X454018Y156216D01*
X452019Y157216D02*
X450020D01*
X451019D01*
Y151217D01*
X452019Y152217D01*
X447021D02*
X446021Y151217D01*
X444022D01*
X443022Y152217D01*
Y153217D01*
X444022Y154217D01*
X445021D01*
X444022D01*
X443022Y155216D01*
Y156216D01*
X444022Y157216D01*
X446021D01*
X447021Y156216D01*
X558519Y224717D02*
X559518Y223717D01*
X561518D01*
X562517Y224717D01*
Y228716D01*
X561518Y229716D01*
X559518D01*
X558519Y228716D01*
X556519Y229716D02*
X554520D01*
X555519D01*
Y223717D01*
X556519Y224717D01*
X547522Y229716D02*
X551521D01*
X547522Y225717D01*
Y224717D01*
X548522Y223717D01*
X550521D01*
X551521Y224717D01*
X664519Y146717D02*
X665519Y145718D01*
X667518D01*
X668518Y146717D01*
Y150716D01*
X667518Y151716D01*
X665519D01*
X664519Y150716D01*
X662520Y151716D02*
X660520D01*
X661520D01*
Y145718D01*
X662520Y146717D01*
X657521Y151716D02*
X655522D01*
X656522D01*
Y145718D01*
X657521Y146717D01*
X557518Y243217D02*
X558518Y242217D01*
X560518D01*
X561517Y243217D01*
Y247216D01*
X560518Y248216D01*
X558518D01*
X557518Y247216D01*
X555519Y248216D02*
X553520D01*
X554520D01*
Y242217D01*
X555519Y243217D01*
X550521D02*
X549521Y242217D01*
X547522D01*
X546522Y243217D01*
Y247216D01*
X547522Y248216D01*
X549521D01*
X550521Y247216D01*
Y243217D01*
X594519Y228217D02*
X595519Y227218D01*
X597518D01*
X598518Y228217D01*
Y232216D01*
X597518Y233216D01*
X595519D01*
X594519Y232216D01*
X592520D02*
X591520Y233216D01*
X589521D01*
X588521Y232216D01*
Y228217D01*
X589521Y227218D01*
X591520D01*
X592520Y228217D01*
Y229217D01*
X591520Y230217D01*
X588521D01*
X585519Y178717D02*
X586519Y177717D01*
X588518D01*
X589518Y178717D01*
Y182716D01*
X588518Y183716D01*
X586519D01*
X585519Y182716D01*
X583520Y178717D02*
X582520Y177717D01*
X580521D01*
X579521Y178717D01*
Y179717D01*
X580521Y180717D01*
X579521Y181716D01*
Y182716D01*
X580521Y183716D01*
X582520D01*
X583520Y182716D01*
Y181716D01*
X582520Y180717D01*
X583520Y179717D01*
Y178717D01*
X582520Y180717D02*
X580521D01*
X558519Y212717D02*
X559519Y211718D01*
X561518D01*
X562518Y212717D01*
Y216716D01*
X561518Y217716D01*
X559519D01*
X558519Y216716D01*
X556520Y211718D02*
X552521D01*
Y212717D01*
X556520Y216716D01*
Y217716D01*
X668019Y191717D02*
X669019Y190717D01*
X671018D01*
X672018Y191717D01*
Y195716D01*
X671018Y196716D01*
X669019D01*
X668019Y195716D01*
X662021Y190717D02*
X664021Y191717D01*
X666020Y193717D01*
Y195716D01*
X665020Y196716D01*
X663021D01*
X662021Y195716D01*
Y194716D01*
X663021Y193717D01*
X666020D01*
X585519Y168217D02*
X586519Y167218D01*
X588518D01*
X589518Y168217D01*
Y172216D01*
X588518Y173216D01*
X586519D01*
X585519Y172216D01*
X579521Y167218D02*
X583520D01*
Y170217D01*
X581521Y169217D01*
X580521D01*
X579521Y170217D01*
Y172216D01*
X580521Y173216D01*
X582520D01*
X583520Y172216D01*
X585519Y157717D02*
X586519Y156718D01*
X588518D01*
X589518Y157717D01*
Y161716D01*
X588518Y162716D01*
X586519D01*
X585519Y161716D01*
X580521Y162716D02*
Y156718D01*
X583520Y159716D01*
X579521D01*
X662019Y157217D02*
X663019Y156218D01*
X665018D01*
X666018Y157217D01*
Y161216D01*
X665018Y162216D01*
X663019D01*
X662019Y161216D01*
X660020Y157217D02*
X659020Y156218D01*
X657021D01*
X656021Y157217D01*
Y158217D01*
X657021Y159216D01*
X658021D01*
X657021D01*
X656021Y160216D01*
Y161216D01*
X657021Y162216D01*
X659020D01*
X660020Y161216D01*
X624019Y234717D02*
X625019Y233717D01*
X627018D01*
X628018Y234717D01*
Y238716D01*
X627018Y239716D01*
X625019D01*
X624019Y238716D01*
X618021Y239716D02*
X622020D01*
X618021Y235717D01*
Y234717D01*
X619021Y233717D01*
X621020D01*
X622020Y234717D01*
X606520Y153717D02*
X607519Y152717D01*
X609519D01*
X610518Y153717D01*
Y157716D01*
X609519Y158716D01*
X607519D01*
X606520Y157716D01*
X604520Y158716D02*
X602521D01*
X603521D01*
Y152717D01*
X604520Y153717D01*
X332677Y122047D02*
X332627Y123043D01*
X332476Y124029D01*
X332226Y124994D01*
X331879Y125929D01*
X331440Y126824D01*
X330913Y127670D01*
X330303Y128458D01*
X329616Y129181D01*
X328859Y129831D01*
X328041Y130400D01*
X327169Y130884D01*
X326253Y131277D01*
X325302Y131576D01*
X324325Y131776D01*
X323333Y131877D01*
X322336D01*
X321344Y131776D01*
X320368Y131576D01*
X319416Y131277D01*
X318500Y130884D01*
X317628Y130400D01*
X316810Y129831D01*
X316054Y129181D01*
X315367Y128458D01*
X314756Y127670D01*
X314229Y126824D01*
X313790Y125929D01*
X313443Y124994D01*
X313194Y124029D01*
X313043Y123043D01*
X312992Y122047D01*
X313043Y121052D01*
X313194Y120066D01*
X313443Y119101D01*
X313790Y118166D01*
X314229Y117271D01*
X314756Y116425D01*
X315367Y115636D01*
X316054Y114913D01*
X316810Y114264D01*
X317628Y113694D01*
X318500Y113211D01*
X319416Y112817D01*
X320368Y112519D01*
X321344Y112318D01*
X322336Y112217D01*
X323333D01*
X324325Y112318D01*
X325302Y112519D01*
X326253Y112817D01*
X327169Y113211D01*
X328041Y113695D01*
X328859Y114264D01*
X329616Y114913D01*
X330303Y115636D01*
X330913Y116425D01*
X331440Y117271D01*
X331879Y118166D01*
X332226Y119101D01*
X332476Y120066D01*
X332627Y121052D01*
X332677Y122047D01*
X108268Y11811D02*
X108217Y12807D01*
X108066Y13792D01*
X107816Y14758D01*
X107470Y15692D01*
X107031Y16588D01*
X106504Y17434D01*
X105893Y18222D01*
X105206Y18945D01*
X104450Y19594D01*
X103631Y20164D01*
X102760Y20648D01*
X101844Y21041D01*
X100892Y21339D01*
X99916Y21540D01*
X98924Y21641D01*
X97927D01*
X96935Y21540D01*
X95958Y21339D01*
X95007Y21041D01*
X94091Y20648D01*
X93219Y20164D01*
X92400Y19594D01*
X91644Y18945D01*
X90957Y18222D01*
X90347Y17434D01*
X89819Y16588D01*
X89380Y15692D01*
X89034Y14758D01*
X88784Y13792D01*
X88633Y12807D01*
X88583Y11811D01*
X88633Y10815D01*
X88784Y9830D01*
X89034Y8864D01*
X89380Y7930D01*
X89819Y7034D01*
X90347Y6188D01*
X90957Y5400D01*
X91644Y4677D01*
X92400Y4028D01*
X93219Y3458D01*
X94091Y2974D01*
X95007Y2581D01*
X95958Y2283D01*
X96935Y2082D01*
X97927Y1981D01*
X98924D01*
X99916Y2082D01*
X100892Y2283D01*
X101844Y2581D01*
X102760Y2974D01*
X103632Y3458D01*
X104450Y4028D01*
X105206Y4677D01*
X105893Y5400D01*
X106504Y6188D01*
X107031Y7034D01*
X107470Y7930D01*
X107816Y8865D01*
X108066Y9830D01*
X108217Y10815D01*
X108268Y11811D01*
X325002Y17501D02*
Y23499D01*
X328001D01*
X329000Y22499D01*
Y20500D01*
X328001Y19500D01*
X325002D01*
X327001D02*
X329000Y17501D01*
X331000Y23499D02*
X334998D01*
Y22499D01*
X331000Y18501D01*
Y17501D01*
X289502Y34999D02*
X293500Y29001D01*
Y34999D02*
X289502Y29001D01*
X299498D02*
X295500D01*
X299498Y33000D01*
Y33999D01*
X298499Y34999D01*
X296499D01*
X295500Y33999D01*
X280501Y72499D02*
X284500Y66501D01*
Y72499D02*
X280501Y66501D01*
X286499D02*
X288499D01*
X287499D01*
Y72499D01*
X286499Y71499D01*
X117502Y67499D02*
Y62501D01*
X118501Y61501D01*
X120501D01*
X121500Y62501D01*
Y67499D01*
X123500Y66499D02*
X124499Y67499D01*
X126499D01*
X127498Y66499D01*
Y65500D01*
X126499Y64500D01*
X125499D01*
X126499D01*
X127498Y63500D01*
Y62501D01*
X126499Y61501D01*
X124499D01*
X123500Y62501D01*
X398502Y25999D02*
Y21001D01*
X399501Y20001D01*
X401501D01*
X402500Y21001D01*
Y25999D01*
X408498Y20001D02*
X404500D01*
X408498Y24000D01*
Y24999D01*
X407499Y25999D01*
X405499D01*
X404500Y24999D01*
X239001Y100499D02*
Y95501D01*
X240001Y94501D01*
X242000D01*
X243000Y95501D01*
Y100499D01*
X244999Y94501D02*
X246999D01*
X245999D01*
Y100499D01*
X244999Y99499D01*
X114002Y122501D02*
Y128499D01*
X117001D01*
X118001Y127499D01*
Y125500D01*
X117001Y124500D01*
X114002D01*
X116002D02*
X118001Y122501D01*
X120000Y128499D02*
Y122501D01*
X123999D01*
X125998D02*
X127998D01*
X126998D01*
Y128499D01*
X125998Y127499D01*
X133502Y63501D02*
Y69499D01*
X136502D01*
X137501Y68499D01*
Y66500D01*
X136502Y65500D01*
X133502D01*
X135502D02*
X137501Y63501D01*
X139500D02*
X141500D01*
X140500D01*
Y69499D01*
X139500Y68499D01*
X144499D02*
X145499Y69499D01*
X147498D01*
X148498Y68499D01*
Y67500D01*
X147498Y66500D01*
X146498D01*
X147498D01*
X148498Y65500D01*
Y64501D01*
X147498Y63501D01*
X145499D01*
X144499Y64501D01*
X167002Y32001D02*
Y37999D01*
X170001D01*
X171001Y36999D01*
Y35000D01*
X170001Y34000D01*
X167002D01*
X169002D02*
X171001Y32001D01*
X173001D02*
X175000D01*
X174000D01*
Y37999D01*
X173001Y36999D01*
X181998Y32001D02*
X177999D01*
X181998Y36000D01*
Y36999D01*
X180998Y37999D01*
X178999D01*
X177999Y36999D01*
X167502Y52501D02*
Y58499D01*
X170501D01*
X171501Y57499D01*
Y55500D01*
X170501Y54500D01*
X167502D01*
X169501D02*
X171501Y52501D01*
X173500D02*
X175499D01*
X174500D01*
Y58499D01*
X173500Y57499D01*
X178499Y52501D02*
X180498D01*
X179498D01*
Y58499D01*
X178499Y57499D01*
X134942Y85001D02*
Y90999D01*
X137941D01*
X138941Y89999D01*
Y88000D01*
X137941Y87000D01*
X134942D01*
X136942D02*
X138941Y85001D01*
X140940D02*
X142940D01*
X141940D01*
Y90999D01*
X140940Y89999D01*
X145939D02*
X146939Y90999D01*
X148938D01*
X149937Y89999D01*
Y86001D01*
X148938Y85001D01*
X146939D01*
X145939Y86001D01*
Y89999D01*
X138502Y74001D02*
Y79999D01*
X141501D01*
X142500Y78999D01*
Y77000D01*
X141501Y76000D01*
X138502D01*
X140501D02*
X142500Y74001D01*
X144500Y75001D02*
X145499Y74001D01*
X147499D01*
X148498Y75001D01*
Y78999D01*
X147499Y79999D01*
X145499D01*
X144500Y78999D01*
Y78000D01*
X145499Y77000D01*
X148498D01*
X385002Y121501D02*
Y127499D01*
X388001D01*
X389000Y126499D01*
Y124500D01*
X388001Y123500D01*
X385002D01*
X387001D02*
X389000Y121501D01*
X391000Y126499D02*
X391999Y127499D01*
X393999D01*
X394998Y126499D01*
Y125500D01*
X393999Y124500D01*
X394998Y123500D01*
Y122501D01*
X393999Y121501D01*
X391999D01*
X391000Y122501D01*
Y123500D01*
X391999Y124500D01*
X391000Y125500D01*
Y126499D01*
X391999Y124500D02*
X393999D01*
X325002Y6001D02*
Y11999D01*
X328001D01*
X329000Y10999D01*
Y9000D01*
X328001Y8000D01*
X325002D01*
X327001D02*
X329000Y6001D01*
X334998Y11999D02*
X332999Y10999D01*
X331000Y9000D01*
Y7001D01*
X331999Y6001D01*
X333999D01*
X334998Y7001D01*
Y8000D01*
X333999Y9000D01*
X331000D01*
X330502Y105001D02*
Y110999D01*
X333501D01*
X334500Y109999D01*
Y108000D01*
X333501Y107000D01*
X330502D01*
X332501D02*
X334500Y105001D01*
X340498Y110999D02*
X336500D01*
Y108000D01*
X338499Y109000D01*
X339499D01*
X340498Y108000D01*
Y106001D01*
X339499Y105001D01*
X337499D01*
X336500Y106001D01*
X215002Y43001D02*
Y48999D01*
X218001D01*
X219000Y47999D01*
Y46000D01*
X218001Y45000D01*
X215002D01*
X217001D02*
X219000Y43001D01*
X223999D02*
Y48999D01*
X221000Y46000D01*
X224998D01*
X165502Y16501D02*
Y22499D01*
X168501D01*
X169500Y21499D01*
Y19500D01*
X168501Y18500D01*
X165502D01*
X167501D02*
X169500Y16501D01*
X171500Y21499D02*
X172499Y22499D01*
X174499D01*
X175498Y21499D01*
Y20500D01*
X174499Y19500D01*
X173499D01*
X174499D01*
X175498Y18500D01*
Y17501D01*
X174499Y16501D01*
X172499D01*
X171500Y17501D01*
X244502Y21001D02*
Y26999D01*
X247501D01*
X248500Y25999D01*
Y24000D01*
X247501Y23000D01*
X244502D01*
X246501D02*
X248500Y21001D01*
X254498D02*
X250500D01*
X254498Y25000D01*
Y25999D01*
X253499Y26999D01*
X251499D01*
X250500Y25999D01*
X199001Y29501D02*
Y35499D01*
X202000D01*
X203000Y34499D01*
Y32500D01*
X202000Y31500D01*
X199001D01*
X201001D02*
X203000Y29501D01*
X204999D02*
X206999D01*
X205999D01*
Y35499D01*
X204999Y34499D01*
X124000Y106001D02*
Y109999D01*
X123000Y110999D01*
X121001D01*
X120001Y109999D01*
Y106001D01*
X121001Y105001D01*
X123000D01*
X122001Y107000D02*
X124000Y105001D01*
X123000D02*
X124000Y106001D01*
X125999Y105001D02*
X127999D01*
X126999D01*
Y110999D01*
X125999Y109999D01*
X41501Y60501D02*
Y66499D01*
X44500D01*
X45500Y65499D01*
Y63500D01*
X44500Y62500D01*
X41501D01*
X47499Y60501D02*
X49499D01*
X48499D01*
Y66499D01*
X47499Y65499D01*
X134501Y21999D02*
Y16001D01*
X138500D01*
X140499D02*
X142499D01*
X141499D01*
Y21999D01*
X140499Y20999D01*
X168002Y27999D02*
Y22001D01*
X171001D01*
X172000Y23001D01*
Y26999D01*
X171001Y27999D01*
X168002D01*
X177998D02*
X175999Y26999D01*
X174000Y25000D01*
Y23001D01*
X174999Y22001D01*
X176999D01*
X177998Y23001D01*
Y24000D01*
X176999Y25000D01*
X174000D01*
X134002Y32499D02*
Y26501D01*
X137001D01*
X138000Y27501D01*
Y31499D01*
X137001Y32499D01*
X134002D01*
X143998D02*
X140000D01*
Y29500D01*
X141999Y30500D01*
X142999D01*
X143998Y29500D01*
Y27501D01*
X142999Y26501D01*
X140999D01*
X140000Y27501D01*
X40502Y38499D02*
Y32501D01*
X43501D01*
X44500Y33501D01*
Y37499D01*
X43501Y38499D01*
X40502D01*
X49499Y32501D02*
Y38499D01*
X46500Y35500D01*
X50498D01*
X25002Y66999D02*
Y61001D01*
X28001D01*
X29000Y62001D01*
Y65999D01*
X28001Y66999D01*
X25002D01*
X31000Y65999D02*
X31999Y66999D01*
X33999D01*
X34998Y65999D01*
Y65000D01*
X33999Y64000D01*
X32999D01*
X33999D01*
X34998Y63000D01*
Y62001D01*
X33999Y61001D01*
X31999D01*
X31000Y62001D01*
X167002Y47999D02*
Y42001D01*
X170001D01*
X171000Y43001D01*
Y46999D01*
X170001Y47999D01*
X167002D01*
X176998Y42001D02*
X173000D01*
X176998Y46000D01*
Y46999D01*
X175999Y47999D01*
X173999D01*
X173000Y46999D01*
X119501Y87999D02*
Y82001D01*
X122500D01*
X123500Y83001D01*
Y86999D01*
X122500Y87999D01*
X119501D01*
X125499Y82001D02*
X127499D01*
X126499D01*
Y87999D01*
X125499Y86999D01*
X17501Y23001D02*
X16501Y22002D01*
Y20002D01*
X17501Y19003D01*
X21499D01*
X22499Y20002D01*
Y22002D01*
X21499Y23001D01*
X22499Y25001D02*
X16501D01*
X22499Y28999D01*
X16501D01*
X17501Y30999D02*
X16501Y31998D01*
Y33998D01*
X17501Y34997D01*
X18500D01*
X19500Y33998D01*
Y32998D01*
Y33998D01*
X20500Y34997D01*
X21499D01*
X22499Y33998D01*
Y31998D01*
X21499Y30999D01*
X8001Y65999D02*
X7002Y66999D01*
X5002D01*
X4003Y65999D01*
Y62001D01*
X5002Y61001D01*
X7002D01*
X8001Y62001D01*
X10001Y61001D02*
Y66999D01*
X13999Y61001D01*
Y66999D01*
X19997Y61001D02*
X15999D01*
X19997Y65000D01*
Y65999D01*
X18998Y66999D01*
X16998D01*
X15999Y65999D01*
X248501Y10999D02*
X247501Y11999D01*
X245502D01*
X244502Y10999D01*
Y7001D01*
X245502Y6001D01*
X247501D01*
X248501Y7001D01*
X250500Y6001D02*
Y11999D01*
X254499Y6001D01*
Y11999D01*
X256498Y6001D02*
X258498D01*
X257498D01*
Y11999D01*
X256498Y10999D01*
X93001Y43499D02*
X92001Y44499D01*
X90002D01*
X89002Y43499D01*
Y39501D01*
X90002Y38501D01*
X92001D01*
X93001Y39501D01*
X98999Y38501D02*
X95000D01*
X98999Y42500D01*
Y43499D01*
X97999Y44499D01*
X96000D01*
X95000Y43499D01*
X100998Y38501D02*
X102998D01*
X101998D01*
Y44499D01*
X100998Y43499D01*
X136001Y10499D02*
X135002Y11499D01*
X133002D01*
X132003Y10499D01*
Y6501D01*
X133002Y5501D01*
X135002D01*
X136001Y6501D01*
X141999Y5501D02*
X138001D01*
X141999Y9500D01*
Y10499D01*
X141000Y11499D01*
X139000D01*
X138001Y10499D01*
X143999D02*
X144998Y11499D01*
X146998D01*
X147997Y10499D01*
Y6501D01*
X146998Y5501D01*
X144998D01*
X143999Y6501D01*
Y10499D01*
X174001Y10999D02*
X173002Y11999D01*
X171002D01*
X170002Y10999D01*
Y7001D01*
X171002Y6001D01*
X173002D01*
X174001Y7001D01*
X176000Y6001D02*
X178000D01*
X177000D01*
Y11999D01*
X176000Y10999D01*
X180999Y7001D02*
X181999Y6001D01*
X183998D01*
X184998Y7001D01*
Y10999D01*
X183998Y11999D01*
X181999D01*
X180999Y10999D01*
Y10000D01*
X181999Y9000D01*
X184998D01*
X92001Y33499D02*
X91001Y34499D01*
X89002D01*
X88002Y33499D01*
Y29501D01*
X89002Y28501D01*
X91001D01*
X92001Y29501D01*
X94001Y28501D02*
X96000D01*
X95000D01*
Y34499D01*
X94001Y33499D01*
X98999D02*
X99999Y34499D01*
X101998D01*
X102998Y33499D01*
Y32500D01*
X101998Y31500D01*
X102998Y30500D01*
Y29501D01*
X101998Y28501D01*
X99999D01*
X98999Y29501D01*
Y30500D01*
X99999Y31500D01*
X98999Y32500D01*
Y33499D01*
X99999Y31500D02*
X101998D01*
X93001Y53999D02*
X92001Y54999D01*
X90002D01*
X89002Y53999D01*
Y50001D01*
X90002Y49001D01*
X92001D01*
X93001Y50001D01*
X95000Y49001D02*
X97000D01*
X96000D01*
Y54999D01*
X95000Y53999D01*
X99999Y54999D02*
X103998D01*
Y53999D01*
X99999Y50001D01*
Y49001D01*
X137501Y41999D02*
X136502Y42999D01*
X134502D01*
X133502Y41999D01*
Y38001D01*
X134502Y37001D01*
X136502D01*
X137501Y38001D01*
X139500Y37001D02*
X141500D01*
X140500D01*
Y42999D01*
X139500Y41999D01*
X148498Y42999D02*
X146498Y41999D01*
X144499Y40000D01*
Y38001D01*
X145499Y37001D01*
X147498D01*
X148498Y38001D01*
Y39000D01*
X147498Y40000D01*
X144499D01*
X298001Y75999D02*
X297002Y76999D01*
X295002D01*
X294002Y75999D01*
Y72001D01*
X295002Y71001D01*
X297002D01*
X298001Y72001D01*
X300001Y71001D02*
X302000D01*
X301000D01*
Y76999D01*
X300001Y75999D01*
X308998Y76999D02*
X304999D01*
Y74000D01*
X306998Y75000D01*
X307998D01*
X308998Y74000D01*
Y72001D01*
X307998Y71001D01*
X305998D01*
X304999Y72001D01*
X298501Y104999D02*
X297501Y105999D01*
X295502D01*
X294502Y104999D01*
Y101001D01*
X295502Y100001D01*
X297501D01*
X298501Y101001D01*
X300500Y100001D02*
X302500D01*
X301500D01*
Y105999D01*
X300500Y104999D01*
X308498Y100001D02*
Y105999D01*
X305499Y103000D01*
X309498D01*
X388501Y115499D02*
X387502Y116499D01*
X385502D01*
X384502Y115499D01*
Y111501D01*
X385502Y110501D01*
X387502D01*
X388501Y111501D01*
X390500Y110501D02*
X392500D01*
X391500D01*
Y116499D01*
X390500Y115499D01*
X395499D02*
X396498Y116499D01*
X398498D01*
X399498Y115499D01*
Y114500D01*
X398498Y113500D01*
X397498D01*
X398498D01*
X399498Y112500D01*
Y111501D01*
X398498Y110501D01*
X396498D01*
X395499Y111501D01*
X284001Y42999D02*
X283001Y43999D01*
X281002D01*
X280002Y42999D01*
Y39001D01*
X281002Y38001D01*
X283001D01*
X284001Y39001D01*
X286000Y38001D02*
X288000D01*
X287000D01*
Y43999D01*
X286000Y42999D01*
X294998Y38001D02*
X290999D01*
X294998Y42000D01*
Y42999D01*
X293998Y43999D01*
X291999D01*
X290999Y42999D01*
X178001Y120999D02*
X177001Y121999D01*
X175002D01*
X174002Y120999D01*
Y117001D01*
X175002Y116001D01*
X177001D01*
X178001Y117001D01*
X180000Y116001D02*
X182000D01*
X181000D01*
Y121999D01*
X180000Y120999D01*
X184999Y116001D02*
X186998D01*
X185998D01*
Y121999D01*
X184999Y120999D01*
X285001Y24499D02*
X284001Y25499D01*
X282002D01*
X281002Y24499D01*
Y20501D01*
X282002Y19501D01*
X284001D01*
X285001Y20501D01*
X287000Y19501D02*
X289000D01*
X288000D01*
Y25499D01*
X287000Y24499D01*
X291999D02*
X292999Y25499D01*
X294998D01*
X295998Y24499D01*
Y20501D01*
X294998Y19501D01*
X292999D01*
X291999Y20501D01*
Y24499D01*
X248000Y39499D02*
X247001Y40499D01*
X245001D01*
X244002Y39499D01*
Y35501D01*
X245001Y34501D01*
X247001D01*
X248000Y35501D01*
X250000D02*
X250999Y34501D01*
X252999D01*
X253998Y35501D01*
Y39499D01*
X252999Y40499D01*
X250999D01*
X250000Y39499D01*
Y38500D01*
X250999Y37500D01*
X253998D01*
X257000Y88999D02*
X256001Y89999D01*
X254001D01*
X253002Y88999D01*
Y85001D01*
X254001Y84001D01*
X256001D01*
X257000Y85001D01*
X259000Y88999D02*
X259999Y89999D01*
X261999D01*
X262998Y88999D01*
Y88000D01*
X261999Y87000D01*
X262998Y86000D01*
Y85001D01*
X261999Y84001D01*
X259999D01*
X259000Y85001D01*
Y86000D01*
X259999Y87000D01*
X259000Y88000D01*
Y88999D01*
X259999Y87000D02*
X261999D01*
X284000Y54999D02*
X283001Y55999D01*
X281001D01*
X280002Y54999D01*
Y51001D01*
X281001Y50001D01*
X283001D01*
X284000Y51001D01*
X286000Y55999D02*
X289998D01*
Y54999D01*
X286000Y51001D01*
Y50001D01*
X174500Y75999D02*
X173501Y76999D01*
X171501D01*
X170502Y75999D01*
Y72001D01*
X171501Y71001D01*
X173501D01*
X174500Y72001D01*
X180498Y76999D02*
X178499Y75999D01*
X176500Y74000D01*
Y72001D01*
X177499Y71001D01*
X179499D01*
X180498Y72001D01*
Y73000D01*
X179499Y74000D01*
X176500D01*
X257000Y99499D02*
X256001Y100499D01*
X254001D01*
X253002Y99499D01*
Y95501D01*
X254001Y94501D01*
X256001D01*
X257000Y95501D01*
X262998Y100499D02*
X259000D01*
Y97500D01*
X260999Y98500D01*
X261999D01*
X262998Y97500D01*
Y95501D01*
X261999Y94501D01*
X259999D01*
X259000Y95501D01*
X257000Y109999D02*
X256001Y110999D01*
X254001D01*
X253002Y109999D01*
Y106001D01*
X254001Y105001D01*
X256001D01*
X257000Y106001D01*
X261999Y105001D02*
Y110999D01*
X259000Y108000D01*
X262998D01*
X180500Y110499D02*
X179501Y111499D01*
X177501D01*
X176502Y110499D01*
Y106501D01*
X177501Y105501D01*
X179501D01*
X180500Y106501D01*
X182500Y110499D02*
X183499Y111499D01*
X185499D01*
X186498Y110499D01*
Y109500D01*
X185499Y108500D01*
X184499D01*
X185499D01*
X186498Y107500D01*
Y106501D01*
X185499Y105501D01*
X183499D01*
X182500Y106501D01*
X218500Y32999D02*
X217501Y33999D01*
X215501D01*
X214502Y32999D01*
Y29001D01*
X215501Y28001D01*
X217501D01*
X218500Y29001D01*
X224498Y28001D02*
X220500D01*
X224498Y32000D01*
Y32999D01*
X223499Y33999D01*
X221499D01*
X220500Y32999D01*
X236000Y113999D02*
X235000Y114999D01*
X233001D01*
X232001Y113999D01*
Y110001D01*
X233001Y109001D01*
X235000D01*
X236000Y110001D01*
X237999Y109001D02*
X239999D01*
X238999D01*
Y114999D01*
X237999Y113999D01*
X332677Y255906D02*
X332627Y256901D01*
X332476Y257887D01*
X332226Y258852D01*
X331879Y259787D01*
X331440Y260682D01*
X330913Y261528D01*
X330303Y262317D01*
X329616Y263039D01*
X328859Y263689D01*
X328041Y264258D01*
X327169Y264742D01*
X326253Y265135D01*
X325302Y265434D01*
X324325Y265634D01*
X323333Y265735D01*
X322336D01*
X321344Y265634D01*
X320368Y265434D01*
X319416Y265135D01*
X318500Y264742D01*
X317628Y264258D01*
X316810Y263689D01*
X316054Y263039D01*
X315367Y262317D01*
X314756Y261528D01*
X314229Y260682D01*
X313790Y259787D01*
X313443Y258852D01*
X313194Y257887D01*
X313043Y256901D01*
X312992Y255906D01*
X313043Y254910D01*
X313194Y253924D01*
X313443Y252959D01*
X313790Y252024D01*
X314229Y251129D01*
X314756Y250283D01*
X315367Y249494D01*
X316054Y248772D01*
X316810Y248122D01*
X317628Y247553D01*
X318500Y247069D01*
X319416Y246676D01*
X320368Y246377D01*
X321344Y246177D01*
X322336Y246076D01*
X323333D01*
X324325Y246177D01*
X325302Y246377D01*
X326253Y246676D01*
X327169Y247069D01*
X328041Y247553D01*
X328859Y248122D01*
X329616Y248772D01*
X330303Y249494D01*
X330913Y250283D01*
X331440Y251129D01*
X331879Y252024D01*
X332226Y252959D01*
X332476Y253924D01*
X332627Y254910D01*
X332677Y255906D01*
X108268Y145669D02*
X108217Y146665D01*
X108066Y147651D01*
X107816Y148616D01*
X107470Y149551D01*
X107031Y150446D01*
X106504Y151292D01*
X105893Y152080D01*
X105206Y152803D01*
X104450Y153453D01*
X103631Y154022D01*
X102760Y154506D01*
X101844Y154899D01*
X100892Y155198D01*
X99916Y155398D01*
X98924Y155499D01*
X97927D01*
X96935Y155398D01*
X95958Y155198D01*
X95007Y154899D01*
X94091Y154506D01*
X93219Y154022D01*
X92400Y153453D01*
X91644Y152803D01*
X90957Y152080D01*
X90347Y151292D01*
X89819Y150446D01*
X89380Y149551D01*
X89034Y148616D01*
X88784Y147651D01*
X88633Y146665D01*
X88583Y145669D01*
X88633Y144674D01*
X88784Y143688D01*
X89034Y142723D01*
X89380Y141788D01*
X89819Y140893D01*
X90347Y140047D01*
X90957Y139258D01*
X91644Y138535D01*
X92400Y137886D01*
X93219Y137317D01*
X94091Y136833D01*
X95007Y136439D01*
X95958Y136141D01*
X96935Y135940D01*
X97927Y135839D01*
X98924D01*
X99916Y135940D01*
X100892Y136141D01*
X101844Y136440D01*
X102760Y136833D01*
X103632Y137317D01*
X104450Y137886D01*
X105206Y138535D01*
X105893Y139258D01*
X106504Y140047D01*
X107031Y140893D01*
X107470Y141788D01*
X107816Y142723D01*
X108066Y143688D01*
X108217Y144674D01*
X108268Y145669D01*
X325002Y151359D02*
Y157357D01*
X328001D01*
X329000Y156358D01*
Y154358D01*
X328001Y153359D01*
X325002D01*
X327001D02*
X329000Y151359D01*
X331000Y157357D02*
X334998D01*
Y156358D01*
X331000Y152359D01*
Y151359D01*
X289502Y168857D02*
X293500Y162859D01*
Y168857D02*
X289502Y162859D01*
X299498D02*
X295500D01*
X299498Y166858D01*
Y167858D01*
X298499Y168857D01*
X296499D01*
X295500Y167858D01*
X280501Y206357D02*
X284500Y200359D01*
Y206357D02*
X280501Y200359D01*
X286499D02*
X288499D01*
X287499D01*
Y206357D01*
X286499Y205358D01*
X117502Y201357D02*
Y196359D01*
X118501Y195359D01*
X120501D01*
X121500Y196359D01*
Y201357D01*
X123500Y200358D02*
X124499Y201357D01*
X126499D01*
X127498Y200358D01*
Y199358D01*
X126499Y198358D01*
X125499D01*
X126499D01*
X127498Y197359D01*
Y196359D01*
X126499Y195359D01*
X124499D01*
X123500Y196359D01*
X398502Y159857D02*
Y154859D01*
X399501Y153859D01*
X401501D01*
X402500Y154859D01*
Y159857D01*
X408498Y153859D02*
X404500D01*
X408498Y157858D01*
Y158858D01*
X407499Y159857D01*
X405499D01*
X404500Y158858D01*
X239001Y234357D02*
Y229359D01*
X240001Y228359D01*
X242000D01*
X243000Y229359D01*
Y234357D01*
X244999Y228359D02*
X246999D01*
X245999D01*
Y234357D01*
X244999Y233358D01*
X114002Y256359D02*
Y262357D01*
X117001D01*
X118001Y261358D01*
Y259358D01*
X117001Y258359D01*
X114002D01*
X116002D02*
X118001Y256359D01*
X120000Y262357D02*
Y256359D01*
X123999D01*
X125998D02*
X127998D01*
X126998D01*
Y262357D01*
X125998Y261358D01*
X133502Y197359D02*
Y203357D01*
X136502D01*
X137501Y202358D01*
Y200358D01*
X136502Y199359D01*
X133502D01*
X135502D02*
X137501Y197359D01*
X139500D02*
X141500D01*
X140500D01*
Y203357D01*
X139500Y202358D01*
X144499D02*
X145499Y203357D01*
X147498D01*
X148498Y202358D01*
Y201358D01*
X147498Y200358D01*
X146498D01*
X147498D01*
X148498Y199359D01*
Y198359D01*
X147498Y197359D01*
X145499D01*
X144499Y198359D01*
X167002Y165859D02*
Y171857D01*
X170001D01*
X171001Y170858D01*
Y168858D01*
X170001Y167859D01*
X167002D01*
X169002D02*
X171001Y165859D01*
X173001D02*
X175000D01*
X174000D01*
Y171857D01*
X173001Y170858D01*
X181998Y165859D02*
X177999D01*
X181998Y169858D01*
Y170858D01*
X180998Y171857D01*
X178999D01*
X177999Y170858D01*
X167502Y186359D02*
Y192357D01*
X170501D01*
X171501Y191358D01*
Y189358D01*
X170501Y188359D01*
X167502D01*
X169501D02*
X171501Y186359D01*
X173500D02*
X175499D01*
X174500D01*
Y192357D01*
X173500Y191358D01*
X178499Y186359D02*
X180498D01*
X179498D01*
Y192357D01*
X178499Y191358D01*
X134942Y218859D02*
Y224857D01*
X137941D01*
X138941Y223858D01*
Y221858D01*
X137941Y220859D01*
X134942D01*
X136942D02*
X138941Y218859D01*
X140940D02*
X142940D01*
X141940D01*
Y224857D01*
X140940Y223858D01*
X145939D02*
X146939Y224857D01*
X148938D01*
X149937Y223858D01*
Y219859D01*
X148938Y218859D01*
X146939D01*
X145939Y219859D01*
Y223858D01*
X138502Y207859D02*
Y213857D01*
X141501D01*
X142500Y212858D01*
Y210858D01*
X141501Y209859D01*
X138502D01*
X140501D02*
X142500Y207859D01*
X144500Y208859D02*
X145499Y207859D01*
X147499D01*
X148498Y208859D01*
Y212858D01*
X147499Y213857D01*
X145499D01*
X144500Y212858D01*
Y211858D01*
X145499Y210858D01*
X148498D01*
X385002Y255359D02*
Y261357D01*
X388001D01*
X389000Y260358D01*
Y258358D01*
X388001Y257359D01*
X385002D01*
X387001D02*
X389000Y255359D01*
X391000Y260358D02*
X391999Y261357D01*
X393999D01*
X394998Y260358D01*
Y259358D01*
X393999Y258358D01*
X394998Y257359D01*
Y256359D01*
X393999Y255359D01*
X391999D01*
X391000Y256359D01*
Y257359D01*
X391999Y258358D01*
X391000Y259358D01*
Y260358D01*
X391999Y258358D02*
X393999D01*
X325002Y139859D02*
Y145857D01*
X328001D01*
X329000Y144858D01*
Y142858D01*
X328001Y141859D01*
X325002D01*
X327001D02*
X329000Y139859D01*
X334998Y145857D02*
X332999Y144858D01*
X331000Y142858D01*
Y140859D01*
X331999Y139859D01*
X333999D01*
X334998Y140859D01*
Y141859D01*
X333999Y142858D01*
X331000D01*
X330502Y238859D02*
Y244857D01*
X333501D01*
X334500Y243858D01*
Y241858D01*
X333501Y240859D01*
X330502D01*
X332501D02*
X334500Y238859D01*
X340498Y244857D02*
X336500D01*
Y241858D01*
X338499Y242858D01*
X339499D01*
X340498Y241858D01*
Y239859D01*
X339499Y238859D01*
X337499D01*
X336500Y239859D01*
X215002Y176859D02*
Y182857D01*
X218001D01*
X219000Y181858D01*
Y179858D01*
X218001Y178859D01*
X215002D01*
X217001D02*
X219000Y176859D01*
X223999D02*
Y182857D01*
X221000Y179858D01*
X224998D01*
X165502Y150359D02*
Y156357D01*
X168501D01*
X169500Y155358D01*
Y153358D01*
X168501Y152359D01*
X165502D01*
X167501D02*
X169500Y150359D01*
X171500Y155358D02*
X172499Y156357D01*
X174499D01*
X175498Y155358D01*
Y154358D01*
X174499Y153358D01*
X173499D01*
X174499D01*
X175498Y152359D01*
Y151359D01*
X174499Y150359D01*
X172499D01*
X171500Y151359D01*
X244502Y154859D02*
Y160857D01*
X247501D01*
X248500Y159858D01*
Y157858D01*
X247501Y156859D01*
X244502D01*
X246501D02*
X248500Y154859D01*
X254498D02*
X250500D01*
X254498Y158858D01*
Y159858D01*
X253499Y160857D01*
X251499D01*
X250500Y159858D01*
X199001Y163359D02*
Y169357D01*
X202000D01*
X203000Y168358D01*
Y166358D01*
X202000Y165359D01*
X199001D01*
X201001D02*
X203000Y163359D01*
X204999D02*
X206999D01*
X205999D01*
Y169357D01*
X204999Y168358D01*
X124000Y239859D02*
Y243858D01*
X123000Y244857D01*
X121001D01*
X120001Y243858D01*
Y239859D01*
X121001Y238859D01*
X123000D01*
X122001Y240859D02*
X124000Y238859D01*
X123000D02*
X124000Y239859D01*
X125999Y238859D02*
X127999D01*
X126999D01*
Y244857D01*
X125999Y243858D01*
X41501Y194359D02*
Y200357D01*
X44500D01*
X45500Y199358D01*
Y197358D01*
X44500Y196359D01*
X41501D01*
X47499Y194359D02*
X49499D01*
X48499D01*
Y200357D01*
X47499Y199358D01*
X134501Y155857D02*
Y149859D01*
X138500D01*
X140499D02*
X142499D01*
X141499D01*
Y155857D01*
X140499Y154858D01*
X168002Y161857D02*
Y155859D01*
X171001D01*
X172000Y156859D01*
Y160858D01*
X171001Y161857D01*
X168002D01*
X177998D02*
X175999Y160858D01*
X174000Y158858D01*
Y156859D01*
X174999Y155859D01*
X176999D01*
X177998Y156859D01*
Y157859D01*
X176999Y158858D01*
X174000D01*
X134002Y166357D02*
Y160359D01*
X137001D01*
X138000Y161359D01*
Y165358D01*
X137001Y166357D01*
X134002D01*
X143998D02*
X140000D01*
Y163358D01*
X141999Y164358D01*
X142999D01*
X143998Y163358D01*
Y161359D01*
X142999Y160359D01*
X140999D01*
X140000Y161359D01*
X40502Y172357D02*
Y166359D01*
X43501D01*
X44500Y167359D01*
Y171358D01*
X43501Y172357D01*
X40502D01*
X49499Y166359D02*
Y172357D01*
X46500Y169358D01*
X50498D01*
X25002Y200857D02*
Y194859D01*
X28001D01*
X29000Y195859D01*
Y199858D01*
X28001Y200857D01*
X25002D01*
X31000Y199858D02*
X31999Y200857D01*
X33999D01*
X34998Y199858D01*
Y198858D01*
X33999Y197858D01*
X32999D01*
X33999D01*
X34998Y196859D01*
Y195859D01*
X33999Y194859D01*
X31999D01*
X31000Y195859D01*
X167002Y181857D02*
Y175859D01*
X170001D01*
X171000Y176859D01*
Y180858D01*
X170001Y181857D01*
X167002D01*
X176998Y175859D02*
X173000D01*
X176998Y179858D01*
Y180858D01*
X175999Y181857D01*
X173999D01*
X173000Y180858D01*
X119501Y221857D02*
Y215859D01*
X122500D01*
X123500Y216859D01*
Y220858D01*
X122500Y221857D01*
X119501D01*
X125499Y215859D02*
X127499D01*
X126499D01*
Y221857D01*
X125499Y220858D01*
X17501Y156860D02*
X16501Y155860D01*
Y153860D01*
X17501Y152861D01*
X21499D01*
X22499Y153860D01*
Y155860D01*
X21499Y156860D01*
X22499Y158859D02*
X16501D01*
X22499Y162858D01*
X16501D01*
X17501Y164857D02*
X16501Y165857D01*
Y167856D01*
X17501Y168856D01*
X18500D01*
X19500Y167856D01*
Y166856D01*
Y167856D01*
X20500Y168856D01*
X21499D01*
X22499Y167856D01*
Y165857D01*
X21499Y164857D01*
X8001Y199858D02*
X7002Y200857D01*
X5002D01*
X4003Y199858D01*
Y195859D01*
X5002Y194859D01*
X7002D01*
X8001Y195859D01*
X10001Y194859D02*
Y200857D01*
X13999Y194859D01*
Y200857D01*
X19997Y194859D02*
X15999D01*
X19997Y198858D01*
Y199858D01*
X18998Y200857D01*
X16998D01*
X15999Y199858D01*
X248501Y144858D02*
X247501Y145857D01*
X245502D01*
X244502Y144858D01*
Y140859D01*
X245502Y139859D01*
X247501D01*
X248501Y140859D01*
X250500Y139859D02*
Y145857D01*
X254499Y139859D01*
Y145857D01*
X256498Y139859D02*
X258498D01*
X257498D01*
Y145857D01*
X256498Y144858D01*
X93001Y177358D02*
X92001Y178357D01*
X90002D01*
X89002Y177358D01*
Y173359D01*
X90002Y172359D01*
X92001D01*
X93001Y173359D01*
X98999Y172359D02*
X95000D01*
X98999Y176358D01*
Y177358D01*
X97999Y178357D01*
X96000D01*
X95000Y177358D01*
X100998Y172359D02*
X102998D01*
X101998D01*
Y178357D01*
X100998Y177358D01*
X136001Y144358D02*
X135002Y145357D01*
X133002D01*
X132003Y144358D01*
Y140359D01*
X133002Y139359D01*
X135002D01*
X136001Y140359D01*
X141999Y139359D02*
X138001D01*
X141999Y143358D01*
Y144358D01*
X141000Y145357D01*
X139000D01*
X138001Y144358D01*
X143999D02*
X144998Y145357D01*
X146998D01*
X147997Y144358D01*
Y140359D01*
X146998Y139359D01*
X144998D01*
X143999Y140359D01*
Y144358D01*
X174001Y144858D02*
X173002Y145857D01*
X171002D01*
X170002Y144858D01*
Y140859D01*
X171002Y139859D01*
X173002D01*
X174001Y140859D01*
X176000Y139859D02*
X178000D01*
X177000D01*
Y145857D01*
X176000Y144858D01*
X180999Y140859D02*
X181999Y139859D01*
X183998D01*
X184998Y140859D01*
Y144858D01*
X183998Y145857D01*
X181999D01*
X180999Y144858D01*
Y143858D01*
X181999Y142858D01*
X184998D01*
X92001Y167358D02*
X91001Y168357D01*
X89002D01*
X88002Y167358D01*
Y163359D01*
X89002Y162359D01*
X91001D01*
X92001Y163359D01*
X94001Y162359D02*
X96000D01*
X95000D01*
Y168357D01*
X94001Y167358D01*
X98999D02*
X99999Y168357D01*
X101998D01*
X102998Y167358D01*
Y166358D01*
X101998Y165358D01*
X102998Y164359D01*
Y163359D01*
X101998Y162359D01*
X99999D01*
X98999Y163359D01*
Y164359D01*
X99999Y165358D01*
X98999Y166358D01*
Y167358D01*
X99999Y165358D02*
X101998D01*
X93001Y187858D02*
X92001Y188857D01*
X90002D01*
X89002Y187858D01*
Y183859D01*
X90002Y182859D01*
X92001D01*
X93001Y183859D01*
X95000Y182859D02*
X97000D01*
X96000D01*
Y188857D01*
X95000Y187858D01*
X99999Y188857D02*
X103998D01*
Y187858D01*
X99999Y183859D01*
Y182859D01*
X137501Y175858D02*
X136502Y176857D01*
X134502D01*
X133502Y175858D01*
Y171859D01*
X134502Y170859D01*
X136502D01*
X137501Y171859D01*
X139500Y170859D02*
X141500D01*
X140500D01*
Y176857D01*
X139500Y175858D01*
X148498Y176857D02*
X146498Y175858D01*
X144499Y173858D01*
Y171859D01*
X145499Y170859D01*
X147498D01*
X148498Y171859D01*
Y172859D01*
X147498Y173858D01*
X144499D01*
X298001Y209858D02*
X297002Y210857D01*
X295002D01*
X294002Y209858D01*
Y205859D01*
X295002Y204859D01*
X297002D01*
X298001Y205859D01*
X300001Y204859D02*
X302000D01*
X301000D01*
Y210857D01*
X300001Y209858D01*
X308998Y210857D02*
X304999D01*
Y207858D01*
X306998Y208858D01*
X307998D01*
X308998Y207858D01*
Y205859D01*
X307998Y204859D01*
X305998D01*
X304999Y205859D01*
X298501Y238858D02*
X297501Y239857D01*
X295502D01*
X294502Y238858D01*
Y234859D01*
X295502Y233859D01*
X297501D01*
X298501Y234859D01*
X300500Y233859D02*
X302500D01*
X301500D01*
Y239857D01*
X300500Y238858D01*
X308498Y233859D02*
Y239857D01*
X305499Y236858D01*
X309498D01*
X388501Y249358D02*
X387502Y250357D01*
X385502D01*
X384502Y249358D01*
Y245359D01*
X385502Y244359D01*
X387502D01*
X388501Y245359D01*
X390500Y244359D02*
X392500D01*
X391500D01*
Y250357D01*
X390500Y249358D01*
X395499D02*
X396498Y250357D01*
X398498D01*
X399498Y249358D01*
Y248358D01*
X398498Y247358D01*
X397498D01*
X398498D01*
X399498Y246359D01*
Y245359D01*
X398498Y244359D01*
X396498D01*
X395499Y245359D01*
X284001Y176858D02*
X283001Y177857D01*
X281002D01*
X280002Y176858D01*
Y172859D01*
X281002Y171859D01*
X283001D01*
X284001Y172859D01*
X286000Y171859D02*
X288000D01*
X287000D01*
Y177857D01*
X286000Y176858D01*
X294998Y171859D02*
X290999D01*
X294998Y175858D01*
Y176858D01*
X293998Y177857D01*
X291999D01*
X290999Y176858D01*
X178001Y254858D02*
X177001Y255857D01*
X175002D01*
X174002Y254858D01*
Y250859D01*
X175002Y249859D01*
X177001D01*
X178001Y250859D01*
X180000Y249859D02*
X182000D01*
X181000D01*
Y255857D01*
X180000Y254858D01*
X184999Y249859D02*
X186998D01*
X185998D01*
Y255857D01*
X184999Y254858D01*
X285001Y158358D02*
X284001Y159357D01*
X282002D01*
X281002Y158358D01*
Y154359D01*
X282002Y153359D01*
X284001D01*
X285001Y154359D01*
X287000Y153359D02*
X289000D01*
X288000D01*
Y159357D01*
X287000Y158358D01*
X291999D02*
X292999Y159357D01*
X294998D01*
X295998Y158358D01*
Y154359D01*
X294998Y153359D01*
X292999D01*
X291999Y154359D01*
Y158358D01*
X248000Y173358D02*
X247001Y174357D01*
X245001D01*
X244002Y173358D01*
Y169359D01*
X245001Y168359D01*
X247001D01*
X248000Y169359D01*
X250000D02*
X250999Y168359D01*
X252999D01*
X253998Y169359D01*
Y173358D01*
X252999Y174357D01*
X250999D01*
X250000Y173358D01*
Y172358D01*
X250999Y171358D01*
X253998D01*
X257000Y222858D02*
X256001Y223857D01*
X254001D01*
X253002Y222858D01*
Y218859D01*
X254001Y217859D01*
X256001D01*
X257000Y218859D01*
X259000Y222858D02*
X259999Y223857D01*
X261999D01*
X262998Y222858D01*
Y221858D01*
X261999Y220858D01*
X262998Y219859D01*
Y218859D01*
X261999Y217859D01*
X259999D01*
X259000Y218859D01*
Y219859D01*
X259999Y220858D01*
X259000Y221858D01*
Y222858D01*
X259999Y220858D02*
X261999D01*
X284000Y188858D02*
X283001Y189857D01*
X281001D01*
X280002Y188858D01*
Y184859D01*
X281001Y183859D01*
X283001D01*
X284000Y184859D01*
X286000Y189857D02*
X289998D01*
Y188858D01*
X286000Y184859D01*
Y183859D01*
X174500Y209858D02*
X173501Y210857D01*
X171501D01*
X170502Y209858D01*
Y205859D01*
X171501Y204859D01*
X173501D01*
X174500Y205859D01*
X180498Y210857D02*
X178499Y209858D01*
X176500Y207858D01*
Y205859D01*
X177499Y204859D01*
X179499D01*
X180498Y205859D01*
Y206859D01*
X179499Y207858D01*
X176500D01*
X257000Y233358D02*
X256001Y234357D01*
X254001D01*
X253002Y233358D01*
Y229359D01*
X254001Y228359D01*
X256001D01*
X257000Y229359D01*
X262998Y234357D02*
X259000D01*
Y231358D01*
X260999Y232358D01*
X261999D01*
X262998Y231358D01*
Y229359D01*
X261999Y228359D01*
X259999D01*
X259000Y229359D01*
X257000Y243858D02*
X256001Y244857D01*
X254001D01*
X253002Y243858D01*
Y239859D01*
X254001Y238859D01*
X256001D01*
X257000Y239859D01*
X261999Y238859D02*
Y244857D01*
X259000Y241858D01*
X262998D01*
X180500Y244358D02*
X179501Y245357D01*
X177501D01*
X176502Y244358D01*
Y240359D01*
X177501Y239359D01*
X179501D01*
X180500Y240359D01*
X182500Y244358D02*
X183499Y245357D01*
X185499D01*
X186498Y244358D01*
Y243358D01*
X185499Y242358D01*
X184499D01*
X185499D01*
X186498Y241359D01*
Y240359D01*
X185499Y239359D01*
X183499D01*
X182500Y240359D01*
X218500Y166858D02*
X217501Y167857D01*
X215501D01*
X214502Y166858D01*
Y162859D01*
X215501Y161859D01*
X217501D01*
X218500Y162859D01*
X224498Y161859D02*
X220500D01*
X224498Y165858D01*
Y166858D01*
X223499Y167857D01*
X221499D01*
X220500Y166858D01*
X236000Y247858D02*
X235000Y248857D01*
X233001D01*
X232001Y247858D01*
Y243859D01*
X233001Y242859D01*
X235000D01*
X236000Y243859D01*
X237999Y242859D02*
X239999D01*
X238999D01*
Y248857D01*
X237999Y247858D01*
G54D49*
X608772Y72622D02*
X609264Y71770D01*
X610248D01*
X610740Y72622D01*
X610248Y73474D01*
X609264D01*
X608772Y72622D01*
X719535Y86567D02*
X720081Y85880D01*
X720958D01*
X721504Y86567D01*
X757272Y114358D02*
X757303Y113359D01*
X757398Y112365D01*
X757556Y111378D01*
X757776Y110403D01*
X758058Y109444D01*
X758400Y108505D01*
X758800Y107590D01*
X759258Y106702D01*
X759772Y105844D01*
X760338Y105021D01*
X760956Y104236D01*
X761622Y103491D01*
X762334Y102790D01*
X763090Y102136D01*
X763885Y101530D01*
X764717Y100977D01*
X765582Y100477D01*
X766478Y100033D01*
X767399Y99647D01*
X768344Y99320D01*
X769307Y99054D01*
X770285Y98849D01*
X771274Y98707D01*
X772270Y98628D01*
X773270Y98612D01*
X774268Y98660D01*
X775261Y98770D01*
X776245Y98944D01*
X777216Y99180D01*
X778170Y99476D01*
X779104Y99833D01*
X780013Y100248D01*
X780894Y100720D01*
X781743Y101247D01*
X782557Y101827D01*
X783332Y102457D01*
X784066Y103135D01*
X784756Y103858D01*
X785398Y104623D01*
X785991Y105428D01*
X786531Y106269D01*
X787017Y107142D01*
X787447Y108044D01*
X787818Y108972D01*
X788130Y109922D01*
X788381Y110889D01*
X788570Y111870D01*
X788696Y112861D01*
X788760Y113858D01*
Y114858D01*
X788696Y115855D01*
X788570Y116846D01*
X788381Y117828D01*
X788130Y118795D01*
X787818Y119744D01*
X787447Y120672D01*
X787017Y121574D01*
X786531Y122448D01*
X785991Y123288D01*
X785398Y124093D01*
X784756Y124858D01*
X784067Y125582D01*
X783332Y126260D01*
X782557Y126890D01*
X781743Y127470D01*
X780894Y127996D01*
X780013Y128468D01*
X779104Y128884D01*
X778170Y129240D01*
X777216Y129537D01*
X776245Y129772D01*
X775261Y129946D01*
X774268Y130057D01*
X773270Y130104D01*
X772270Y130088D01*
X771274Y130009D01*
X770285Y129867D01*
X769307Y129662D01*
X768344Y129396D01*
X767400Y129069D01*
X766478Y128683D01*
X765583Y128240D01*
X764717Y127740D01*
X763885Y127186D01*
X763090Y126581D01*
X762335Y125927D01*
X761622Y125226D01*
X760956Y124481D01*
X760338Y123696D01*
X759772Y122872D01*
X759258Y122015D01*
X758801Y121127D01*
X758400Y120211D01*
X758058Y119272D01*
X757776Y118314D01*
X757556Y117339D01*
X757398Y116352D01*
X757303Y115357D01*
X757272Y114358D01*
X809772Y34858D02*
X810035Y33874D01*
X810756Y33154D01*
X811740Y32890D01*
X812724Y33154D01*
X813445Y33874D01*
X813709Y34858D01*
X813445Y35842D01*
X812724Y36563D01*
X811740Y36827D01*
X810756Y36563D01*
X810035Y35842D01*
X809772Y34858D01*
Y15173D02*
X810035Y14189D01*
X810756Y13468D01*
X811740Y13205D01*
X812724Y13468D01*
X813445Y14189D01*
X813709Y15173D01*
X813445Y16158D01*
X812724Y16878D01*
X811740Y17142D01*
X810756Y16878D01*
X810035Y16158D01*
X809772Y15173D01*
Y54543D02*
X810035Y53559D01*
X810756Y52838D01*
X811740Y52575D01*
X812724Y52838D01*
X813445Y53559D01*
X813709Y54543D01*
X813445Y55528D01*
X812724Y56248D01*
X811740Y56512D01*
X810756Y56248D01*
X810035Y55528D01*
X809772Y54543D01*
X519984Y39362D02*
X518016D01*
X519984Y47236D02*
Y39362D01*
Y102354D02*
Y94480D01*
Y102354D02*
X518016D01*
X425496D02*
Y39362D01*
X455024D02*
X425496D01*
X449905Y102354D02*
Y39362D01*
X455024Y102354D02*
X425496D01*
X627020Y100108D02*
X619020D01*
X627020Y92608D02*
X619020D01*
X624520Y18108D02*
X616520D01*
X624520Y25608D02*
X616520D01*
X651020Y18608D02*
X643020D01*
X651020Y11108D02*
X643020D01*
X671020Y72608D02*
X663020D01*
X671020Y65108D02*
X663020D01*
X651020Y29608D02*
X643020D01*
X651020Y22108D02*
X643020D01*
X610520Y100108D02*
X602520D01*
X610520Y92608D02*
X602520D01*
X601882Y74591D02*
X601882D01*
X602866Y75575D02*
X601882Y74591D01*
X602866Y75575D02*
X600898D01*
X601882Y74591D02*
X600898Y75575D01*
X601882Y74591D02*
Y74590D01*
X608772Y76559D02*
X605819Y73606D01*
Y39158D01*
X643221D02*
X605819D01*
X643221Y76559D02*
Y39158D01*
Y76559D02*
X608772D01*
X726020Y61858D02*
X725925D01*
X726394Y62232D02*
X726020Y61858D01*
X726394Y62232D02*
X725551D01*
X725925Y61858D02*
X725551Y62232D01*
X724020Y54108D02*
X716020D01*
X724020Y61608D02*
X716020D01*
X688520Y74608D02*
X680520D01*
X688520Y82108D02*
X680520D01*
X651020Y129858D02*
Y119858D01*
Y129858D02*
X601020D01*
X651020Y119858D02*
X601020D01*
Y129858D02*
Y119858D01*
X597270Y124858D02*
X594770Y122358D01*
Y127358D02*
Y122358D01*
X597270Y124858D02*
X594770Y127358D01*
X575520Y43108D02*
X567520D01*
X575520Y50608D02*
X567520D01*
X575520Y32608D02*
X567520D01*
X575520Y40108D02*
X567520D01*
X575520Y22108D02*
X567520D01*
X575520Y29608D02*
X567520D01*
X578120Y99004D02*
X566920D01*
X578120Y104713D02*
X566920D01*
X657020Y108108D02*
X649020D01*
X657020Y115608D02*
X649020D01*
X626520Y113608D02*
X618520D01*
X626520Y106108D02*
X618520D01*
X610520D02*
X602520D01*
X610520Y113608D02*
X602520D01*
X657020Y105108D02*
X649020D01*
X657020Y97608D02*
X649020D01*
X575520Y107608D02*
X567520D01*
X575520Y115108D02*
X567520D01*
X575520Y84608D02*
X567520D01*
X575520Y77108D02*
X567520D01*
X575520Y89108D02*
X567520D01*
X575520Y96608D02*
X567520D01*
X688020Y50108D02*
X680020D01*
X688020Y42608D02*
X680020D01*
X727894Y111984D02*
X712146D01*
X727894Y127732D02*
X712146D01*
X727894D02*
Y126748D01*
X712146Y127732D02*
Y126748D01*
X727894Y112969D02*
Y111984D01*
X712146Y112969D02*
Y111984D01*
X725630Y108205D02*
X714409D01*
X725630Y101512D02*
X714409D01*
X722020Y107858D02*
Y101858D01*
X727520Y107858D02*
X727020Y108358D01*
X728020D02*
X727020D01*
X728020D02*
X727520Y107858D01*
X808264Y125075D02*
Y121138D01*
Y93579D02*
Y89642D01*
X811020Y125075D02*
X808264D01*
X839366Y125075D02*
X836610Y125075D01*
X839366Y89642D02*
X808264D01*
X717961Y86567D02*
Y75150D01*
X723079Y86567D02*
Y75150D01*
X717961D01*
X719535Y86567D02*
X717961D01*
X723079D02*
X721504D01*
X690520Y92858D02*
X690425D01*
X690894Y93232D02*
X690520Y92858D01*
X690894Y93232D02*
X690051D01*
X690425Y92858D02*
X690051Y93232D01*
X688520Y85108D02*
X680520D01*
X688520Y92608D02*
X680520D01*
X724520Y97608D02*
X716520D01*
X724520Y90108D02*
X716520D01*
X678614Y105358D02*
X678520D01*
X678146Y104984D01*
X678988D02*
X678146D01*
X678988D02*
X678614Y105358D01*
X688520Y113108D02*
X680520D01*
X688520Y105608D02*
X680520D01*
X688520Y95108D02*
X680520D01*
X688520Y102608D02*
X680520D01*
X688520Y72608D02*
X680520D01*
X688520Y65108D02*
X680520D01*
X682270Y126358D02*
Y118358D01*
X674770Y126358D02*
Y118358D01*
X693270Y126358D02*
Y118358D01*
X685770Y126358D02*
Y118358D01*
X779020Y87858D02*
X767020D01*
X779020Y96858D02*
X767020D01*
X777520Y78108D02*
X769520D01*
X777520Y85608D02*
X769520D01*
X801457Y91051D02*
Y77665D01*
X793583Y91051D02*
Y77665D01*
X814520Y75858D02*
X813520Y77358D01*
X812520Y75858D01*
X814520D02*
X812520D01*
X815965Y77358D02*
Y76110D01*
Y87606D02*
Y86358D01*
X834075Y87606D02*
Y86358D01*
Y77358D02*
Y76110D01*
Y87606D02*
X815965D01*
X834075Y76110D02*
X815965D01*
X803520Y106358D02*
X802020Y105358D01*
X803520Y104358D02*
X802020Y105358D01*
X803520Y106358D02*
Y104358D01*
X803268Y107803D02*
X802020D01*
X793020D02*
X791772D01*
X793020Y125913D02*
X791772D01*
X803268D02*
X802020D01*
X791772D02*
Y107803D01*
X803268Y125913D02*
Y107803D01*
X688520Y53608D02*
X680520D01*
X688520Y61108D02*
X680520D01*
X717520Y43858D02*
Y31858D01*
X720520D02*
X717520D01*
X720520Y43858D02*
Y31858D01*
Y43858D02*
X717520D01*
X545020Y54608D02*
X537020D01*
X545020Y47108D02*
X537020D01*
X545020Y44608D02*
X537020D01*
X545020Y37108D02*
X537020D01*
X531020Y109608D02*
X523020D01*
X531020Y117108D02*
X523020D01*
X471020Y23608D02*
X463020D01*
X471020Y16108D02*
X463020D01*
X807252Y65067D02*
X732055D01*
X807252D02*
Y3650D01*
X732055D01*
Y27272D02*
Y3650D01*
Y65067D02*
Y41445D01*
X813709Y64386D02*
Y5331D01*
X832409Y5358D02*
X809378Y5331D01*
Y64386D02*
Y5331D01*
X832409Y64358D02*
X809378Y64386D01*
X531020Y128608D02*
X523020D01*
X531020Y121108D02*
X523020D01*
X471020Y5108D02*
X463020D01*
X471020Y12608D02*
X463020D01*
X495520Y29608D02*
X487520D01*
X495520Y22108D02*
X487520D01*
X608772Y206480D02*
X609264Y205628D01*
X610248D01*
X610740Y206480D01*
X610248Y207333D01*
X609264D01*
X608772Y206480D01*
X719535Y220425D02*
X720081Y219738D01*
X720958D01*
X721504Y220425D01*
X757272Y248217D02*
X757303Y247218D01*
X757398Y246223D01*
X757556Y245236D01*
X757776Y244262D01*
X758058Y243303D01*
X758400Y242364D01*
X758800Y241448D01*
X759258Y240560D01*
X759772Y239703D01*
X760338Y238879D01*
X760956Y238094D01*
X761622Y237349D01*
X762334Y236648D01*
X763090Y235994D01*
X763885Y235389D01*
X764717Y234835D01*
X765582Y234335D01*
X766478Y233892D01*
X767399Y233506D01*
X768344Y233179D01*
X769307Y232912D01*
X770285Y232708D01*
X771274Y232565D01*
X772270Y232486D01*
X773270Y232470D01*
X774268Y232518D01*
X775261Y232629D01*
X776245Y232802D01*
X777216Y233038D01*
X778170Y233335D01*
X779104Y233691D01*
X780013Y234106D01*
X780894Y234578D01*
X781743Y235105D01*
X782557Y235685D01*
X783332Y236315D01*
X784066Y236993D01*
X784756Y237716D01*
X785398Y238482D01*
X785991Y239286D01*
X786531Y240127D01*
X787017Y241000D01*
X787447Y241903D01*
X787818Y242830D01*
X788130Y243780D01*
X788381Y244747D01*
X788570Y245728D01*
X788696Y246720D01*
X788760Y247717D01*
Y248716D01*
X788696Y249713D01*
X788570Y250705D01*
X788381Y251686D01*
X788130Y252653D01*
X787818Y253603D01*
X787447Y254530D01*
X787017Y255433D01*
X786531Y256306D01*
X785991Y257147D01*
X785398Y257951D01*
X784756Y258717D01*
X784067Y259440D01*
X783332Y260118D01*
X782557Y260748D01*
X781743Y261328D01*
X780894Y261855D01*
X780013Y262327D01*
X779104Y262742D01*
X778170Y263098D01*
X777216Y263395D01*
X776245Y263631D01*
X775261Y263804D01*
X774268Y263915D01*
X773270Y263963D01*
X772270Y263947D01*
X771274Y263867D01*
X770285Y263725D01*
X769307Y263521D01*
X768344Y263254D01*
X767400Y262928D01*
X766478Y262542D01*
X765583Y262098D01*
X764717Y261598D01*
X763885Y261045D01*
X763090Y260439D01*
X762335Y259785D01*
X761622Y259084D01*
X760956Y258339D01*
X760338Y257554D01*
X759772Y256731D01*
X759258Y255873D01*
X758801Y254985D01*
X758400Y254070D01*
X758058Y253131D01*
X757776Y252172D01*
X757556Y251197D01*
X757398Y250210D01*
X757303Y249216D01*
X757272Y248217D01*
X809772Y168717D02*
X810035Y167732D01*
X810756Y167012D01*
X811740Y166748D01*
X812724Y167012D01*
X813445Y167732D01*
X813709Y168717D01*
X813445Y169701D01*
X812724Y170421D01*
X811740Y170685D01*
X810756Y170421D01*
X810035Y169701D01*
X809772Y168717D01*
Y149031D02*
X810035Y148047D01*
X810756Y147327D01*
X811740Y147063D01*
X812724Y147327D01*
X813445Y148047D01*
X813709Y149031D01*
X813445Y150016D01*
X812724Y150736D01*
X811740Y151000D01*
X810756Y150736D01*
X810035Y150016D01*
X809772Y149031D01*
Y188402D02*
X810035Y187417D01*
X810756Y186697D01*
X811740Y186433D01*
X812724Y186697D01*
X813445Y187417D01*
X813709Y188402D01*
X813445Y189386D01*
X812724Y190106D01*
X811740Y190370D01*
X810756Y190106D01*
X810035Y189386D01*
X809772Y188402D01*
X519984Y173221D02*
X518016D01*
X519984Y181095D02*
Y173221D01*
Y236213D02*
Y228339D01*
Y236213D02*
X518016D01*
X425496D02*
Y173221D01*
X455024D02*
X425496D01*
X449905Y236213D02*
Y173221D01*
X455024Y236213D02*
X425496D01*
X627020Y233966D02*
X619020D01*
X627020Y226466D02*
X619020D01*
X624520Y151967D02*
X616520D01*
X624520Y159467D02*
X616520D01*
X651020Y152466D02*
X643020D01*
X651020Y144966D02*
X643020D01*
X671020Y206467D02*
X663020D01*
X671020Y198967D02*
X663020D01*
X651020Y163467D02*
X643020D01*
X651020Y155966D02*
X643020D01*
X610520Y233966D02*
X602520D01*
X610520Y226466D02*
X602520D01*
X601882Y208449D02*
X601882D01*
X602866Y209433D02*
X601882Y208449D01*
X602866Y209433D02*
X600898D01*
X601882Y208449D02*
X600898Y209433D01*
X601882Y208449D02*
Y208449D01*
X608772Y210417D02*
X605819Y207465D01*
Y173016D01*
X643221D02*
X605819D01*
X643221Y210417D02*
Y173016D01*
Y210417D02*
X608772D01*
X726020Y195717D02*
X725925D01*
X726394Y196091D02*
X726020Y195717D01*
X726394Y196091D02*
X725551D01*
X725925Y195717D02*
X725551Y196091D01*
X724020Y187967D02*
X716020D01*
X724020Y195466D02*
X716020D01*
X688520Y208467D02*
X680520D01*
X688520Y215967D02*
X680520D01*
X651020Y263717D02*
Y253716D01*
Y263717D02*
X601020D01*
X651020Y253716D02*
X601020D01*
Y263717D02*
Y253716D01*
X597270Y258717D02*
X594770Y256217D01*
Y261216D02*
Y256217D01*
X597270Y258717D02*
X594770Y261216D01*
X575520Y176967D02*
X567520D01*
X575520Y184467D02*
X567520D01*
X575520Y166466D02*
X567520D01*
X575520Y173967D02*
X567520D01*
X575520Y155966D02*
X567520D01*
X575520Y163467D02*
X567520D01*
X578120Y232862D02*
X566920D01*
X578120Y238571D02*
X566920D01*
X657020Y241967D02*
X649020D01*
X657020Y249466D02*
X649020D01*
X626520Y247466D02*
X618520D01*
X626520Y239967D02*
X618520D01*
X610520D02*
X602520D01*
X610520Y247466D02*
X602520D01*
X657020Y238966D02*
X649020D01*
X657020Y231467D02*
X649020D01*
X575520Y241466D02*
X567520D01*
X575520Y248967D02*
X567520D01*
X575520Y218466D02*
X567520D01*
X575520Y210966D02*
X567520D01*
X575520Y222967D02*
X567520D01*
X575520Y230467D02*
X567520D01*
X688020Y183967D02*
X680020D01*
X688020Y176467D02*
X680020D01*
X727894Y245843D02*
X712146D01*
X727894Y261591D02*
X712146D01*
X727894D02*
Y260606D01*
X712146Y261591D02*
Y260606D01*
X727894Y246827D02*
Y245843D01*
X712146Y246827D02*
Y245843D01*
X725630Y242063D02*
X714409D01*
X725630Y235370D02*
X714409D01*
X722020Y241717D02*
Y235717D01*
X727520Y241717D02*
X727020Y242216D01*
X728020D02*
X727020D01*
X728020D02*
X727520Y241717D01*
X808264Y258933D02*
Y254996D01*
Y227437D02*
Y223500D01*
X811020Y258933D02*
X808264D01*
X839366Y258933D02*
X836610Y258933D01*
X839366Y223500D02*
X808264D01*
X717961Y220425D02*
Y209008D01*
X723079Y220425D02*
Y209008D01*
X717961D01*
X719535Y220425D02*
X717961D01*
X723079D02*
X721504D01*
X690520Y226716D02*
X690425D01*
X690894Y227091D02*
X690520Y226716D01*
X690894Y227091D02*
X690051D01*
X690425Y226716D02*
X690051Y227091D01*
X688520Y218967D02*
X680520D01*
X688520Y226466D02*
X680520D01*
X724520Y231467D02*
X716520D01*
X724520Y223967D02*
X716520D01*
X678614Y239216D02*
X678520D01*
X678146Y238843D01*
X678988D02*
X678146D01*
X678988D02*
X678614Y239216D01*
X688520Y246967D02*
X680520D01*
X688520Y239467D02*
X680520D01*
X688520Y228966D02*
X680520D01*
X688520Y236467D02*
X680520D01*
X688520Y206467D02*
X680520D01*
X688520Y198967D02*
X680520D01*
X682270Y260216D02*
Y252217D01*
X674770Y260216D02*
Y252217D01*
X693270Y260216D02*
Y252217D01*
X685770Y260216D02*
Y252217D01*
X779020Y221716D02*
X767020D01*
X779020Y230716D02*
X767020D01*
X777520Y211966D02*
X769520D01*
X777520Y219466D02*
X769520D01*
X801457Y224909D02*
Y211524D01*
X793583Y224909D02*
Y211524D01*
X814520Y209717D02*
X813520Y211216D01*
X812520Y209717D01*
X814520D02*
X812520D01*
X815965Y211216D02*
Y209968D01*
Y221465D02*
Y220216D01*
X834075Y221465D02*
Y220216D01*
Y211216D02*
Y209968D01*
Y221465D02*
X815965D01*
X834075Y209968D02*
X815965D01*
X803520Y240216D02*
X802020Y239216D01*
X803520Y238216D02*
X802020Y239216D01*
X803520Y240216D02*
Y238216D01*
X803268Y241661D02*
X802020D01*
X793020D02*
X791772D01*
X793020Y259772D02*
X791772D01*
X803268D02*
X802020D01*
X791772D02*
Y241661D01*
X803268Y259772D02*
Y241661D01*
X688520Y187467D02*
X680520D01*
X688520Y194966D02*
X680520D01*
X717520Y177717D02*
Y165717D01*
X720520D02*
X717520D01*
X720520Y177717D02*
Y165717D01*
Y177717D02*
X717520D01*
X545020Y188467D02*
X537020D01*
X545020Y180966D02*
X537020D01*
X545020Y178466D02*
X537020D01*
X545020Y170966D02*
X537020D01*
X531020Y243466D02*
X523020D01*
X531020Y250967D02*
X523020D01*
X471020Y157466D02*
X463020D01*
X471020Y149967D02*
X463020D01*
X807252Y198925D02*
X732055D01*
X807252D02*
Y137508D01*
X732055D01*
Y161130D02*
Y137508D01*
Y198925D02*
Y175303D01*
X813709Y198244D02*
Y139189D01*
X832409Y139216D02*
X809378Y139189D01*
Y198244D02*
Y139189D01*
X832409Y198216D02*
X809378Y198244D01*
X531020Y262467D02*
X523020D01*
X531020Y254966D02*
X523020D01*
X471020Y138967D02*
X463020D01*
X471020Y146467D02*
X463020D01*
X495520Y163467D02*
X487520D01*
X495520Y155966D02*
X487520D01*
X233748Y61236D02*
X233256Y62089D01*
X232272D01*
X231780Y61236D01*
X232272Y60384D01*
X233256D01*
X233748Y61236D01*
X122984Y47291D02*
X122439Y47978D01*
X121561D01*
X121016Y47291D01*
X85248Y19500D02*
X85216Y20499D01*
X85121Y21494D01*
X84963Y22480D01*
X84743Y23455D01*
X84462Y24414D01*
X84120Y25353D01*
X83719Y26268D01*
X83261Y27157D01*
X82748Y28014D01*
X82181Y28837D01*
X81564Y29623D01*
X80897Y30367D01*
X80185Y31068D01*
X79430Y31723D01*
X78635Y32328D01*
X77803Y32882D01*
X76937Y33381D01*
X76042Y33825D01*
X75120Y34211D01*
X74176Y34538D01*
X73213Y34804D01*
X72235Y35009D01*
X71245Y35151D01*
X70249Y35230D01*
X69250Y35246D01*
X68252Y35199D01*
X67259Y35088D01*
X66275Y34914D01*
X65304Y34679D01*
X64349Y34382D01*
X63416Y34025D01*
X62507Y33610D01*
X61626Y33138D01*
X60777Y32611D01*
X59963Y32032D01*
X59187Y31402D01*
X58453Y30724D01*
X57764Y30000D01*
X57121Y29235D01*
X56529Y28430D01*
X55989Y27589D01*
X55503Y26716D01*
X55073Y25814D01*
X54702Y24886D01*
X54390Y23937D01*
X54139Y22970D01*
X53950Y21988D01*
X53823Y20997D01*
X53760Y20000D01*
Y19000D01*
X53823Y18003D01*
X53950Y17012D01*
X54139Y16030D01*
X54390Y15063D01*
X54702Y14114D01*
X55073Y13186D01*
X55503Y12284D01*
X55989Y11411D01*
X56529Y10570D01*
X57121Y9765D01*
X57764Y9000D01*
X58453Y8276D01*
X59187Y7598D01*
X59963Y6968D01*
X60777Y6389D01*
X61626Y5862D01*
X62507Y5390D01*
X63416Y4975D01*
X64349Y4618D01*
X65304Y4321D01*
X66275Y4086D01*
X67259Y3912D01*
X68252Y3802D01*
X69250Y3754D01*
X70249Y3770D01*
X71245Y3849D01*
X72235Y3991D01*
X73213Y4196D01*
X74176Y4462D01*
X75120Y4789D01*
X76042Y5175D01*
X76937Y5619D01*
X77803Y6118D01*
X78635Y6672D01*
X79430Y7277D01*
X80185Y7932D01*
X80897Y8633D01*
X81564Y9377D01*
X82181Y10163D01*
X82748Y10986D01*
X83261Y11843D01*
X83719Y12731D01*
X84120Y13647D01*
X84462Y14586D01*
X84743Y15545D01*
X84963Y16520D01*
X85121Y17506D01*
X85216Y18501D01*
X85248Y19500D01*
X32748Y99000D02*
X32484Y99984D01*
X31764Y100705D01*
X30779Y100969D01*
X29795Y100705D01*
X29075Y99984D01*
X28811Y99000D01*
X29075Y98016D01*
X29795Y97295D01*
X30779Y97031D01*
X31764Y97295D01*
X32484Y98016D01*
X32748Y99000D01*
Y118685D02*
X32484Y119669D01*
X31764Y120390D01*
X30779Y120653D01*
X29795Y120390D01*
X29075Y119669D01*
X28811Y118685D01*
X29075Y117701D01*
X29795Y116980D01*
X30779Y116717D01*
X31764Y116980D01*
X32484Y117701D01*
X32748Y118685D01*
Y79315D02*
X32484Y80299D01*
X31764Y81020D01*
X30779Y81283D01*
X29795Y81020D01*
X29075Y80299D01*
X28811Y79315D01*
X29075Y78331D01*
X29795Y77610D01*
X30779Y77346D01*
X31764Y77610D01*
X32484Y78331D01*
X32748Y79315D01*
X322535Y94496D02*
X324504D01*
X322535Y86622D02*
Y94496D01*
Y31504D02*
Y39378D01*
Y31504D02*
X324504D01*
X417024D02*
Y94496D01*
X387496D02*
X417024D01*
X392614Y31504D02*
Y94496D01*
X387496Y31504D02*
X417024D01*
X215500Y33750D02*
X223500D01*
X215500Y41250D02*
X223500D01*
X218000Y115750D02*
X226000D01*
X218000Y108250D02*
X226000D01*
X191500Y115250D02*
X199500D01*
X191500Y122750D02*
X199500D01*
X171500Y61250D02*
X179500D01*
X171500Y68750D02*
X179500D01*
X191500Y104250D02*
X199500D01*
X191500Y111750D02*
X199500D01*
X232000Y33750D02*
X240000D01*
X232000Y41250D02*
X240000D01*
X240638Y59268D02*
X240638D01*
X239653Y58284D02*
X240638Y59268D01*
X239653Y58284D02*
X241622D01*
X240638Y59268D02*
X241622Y58284D01*
X240638Y59268D02*
Y59268D01*
X233748Y57299D02*
X236701Y60252D01*
Y94701D01*
X199299D02*
X236701D01*
X199299Y57299D02*
Y94701D01*
Y57299D02*
X233748D01*
X116500Y72000D02*
X116595D01*
X116126Y71626D02*
X116500Y72000D01*
X116126Y71626D02*
X116969D01*
X116595Y72000D02*
X116969Y71626D01*
X118500Y79750D02*
X126500D01*
X118500Y72250D02*
X126500D01*
X154000Y59250D02*
X162000D01*
X154000Y51750D02*
X162000D01*
X191500Y4000D02*
Y14000D01*
Y4000D02*
X241500D01*
X191500Y14000D02*
X241500D01*
Y4000D02*
Y14000D01*
X245250Y9000D02*
X247750Y11500D01*
Y6500D02*
Y11500D01*
X245250Y9000D02*
X247750Y6500D01*
X267000Y90750D02*
X275000D01*
X267000Y83250D02*
X275000D01*
X267000Y101250D02*
X275000D01*
X267000Y93750D02*
X275000D01*
X267000Y111750D02*
X275000D01*
X267000Y104250D02*
X275000D01*
X264400Y34854D02*
X275600D01*
X264400Y29146D02*
X275600D01*
X185500Y25750D02*
X193500D01*
X185500Y18250D02*
X193500D01*
X216000Y20250D02*
X224000D01*
X216000Y27750D02*
X224000D01*
X232000D02*
X240000D01*
X232000Y20250D02*
X240000D01*
X185500Y28750D02*
X193500D01*
X185500Y36250D02*
X193500D01*
X267000Y26250D02*
X275000D01*
X267000Y18750D02*
X275000D01*
X267000Y49250D02*
X275000D01*
X267000Y56750D02*
X275000D01*
X267000Y44750D02*
X275000D01*
X267000Y37250D02*
X275000D01*
X154500Y83750D02*
X162500D01*
X154500Y91250D02*
X162500D01*
X114626Y21874D02*
X130374D01*
X114626Y6126D02*
X130374D01*
X114626D02*
Y7110D01*
X130374Y6126D02*
Y7110D01*
X114626Y20890D02*
Y21874D01*
X130374Y20890D02*
Y21874D01*
X116890Y25653D02*
X128110D01*
X116890Y32346D02*
X128110D01*
X120500Y26000D02*
Y32000D01*
X115000Y26000D02*
X115500Y25500D01*
X114500D02*
X115500D01*
X114500D02*
X115000Y26000D01*
X34256Y8783D02*
Y12720D01*
Y40279D02*
Y44216D01*
X31500Y8783D02*
X34256D01*
X3153Y8783D02*
X5909Y8783D01*
X3153Y44216D02*
X34256D01*
X124559Y47291D02*
Y58709D01*
X119441Y47291D02*
Y58709D01*
X124559D01*
X122984Y47291D02*
X124559D01*
X119441D02*
X121016D01*
X152000Y41000D02*
X152094D01*
X151626Y40626D02*
X152000Y41000D01*
X151626Y40626D02*
X152469D01*
X152094Y41000D02*
X152469Y40626D01*
X154000Y48750D02*
X162000D01*
X154000Y41250D02*
X162000D01*
X118000Y36250D02*
X126000D01*
X118000Y43750D02*
X126000D01*
X163906Y28500D02*
X164000D01*
X164374Y28874D01*
X163531D02*
X164374D01*
X163531D02*
X163906Y28500D01*
X154000Y20750D02*
X162000D01*
X154000Y28250D02*
X162000D01*
X154000Y38750D02*
X162000D01*
X154000Y31250D02*
X162000D01*
X154000Y61250D02*
X162000D01*
X154000Y68750D02*
X162000D01*
X160250Y7500D02*
Y15500D01*
X167750Y7500D02*
Y15500D01*
X149250Y7500D02*
Y15500D01*
X156750Y7500D02*
Y15500D01*
X63500Y46000D02*
X75500D01*
X63500Y37000D02*
X75500D01*
X65000Y55750D02*
X73000D01*
X65000Y48250D02*
X73000D01*
X41063Y42807D02*
Y56193D01*
X48937Y42807D02*
Y56193D01*
X28000Y58000D02*
X29000Y56500D01*
X30000Y58000D01*
X28000D02*
X30000D01*
X26555Y56500D02*
Y57748D01*
Y46252D02*
Y47500D01*
X8445Y46252D02*
Y47500D01*
Y56500D02*
Y57748D01*
Y46252D02*
X26555D01*
X8445Y57748D02*
X26555D01*
X39000Y27500D02*
X40500Y28500D01*
X39000Y29500D02*
X40500Y28500D01*
X39000Y27500D02*
Y29500D01*
X39252Y26055D02*
X40500D01*
X49500D02*
X50748D01*
X49500Y7945D02*
X50748D01*
X39252D02*
X40500D01*
X50748D02*
Y26055D01*
X39252Y7945D02*
Y26055D01*
X154000Y80250D02*
X162000D01*
X154000Y72750D02*
X162000D01*
X125000Y90000D02*
Y102000D01*
X122000D02*
X125000D01*
X122000Y90000D02*
Y102000D01*
Y90000D02*
X125000D01*
X297500Y79250D02*
X305500D01*
X297500Y86750D02*
X305500D01*
X297500Y89250D02*
X305500D01*
X297500Y96750D02*
X305500D01*
X311500Y24250D02*
X319500D01*
X311500Y16750D02*
X319500D01*
X371500Y110250D02*
X379500D01*
X371500Y117750D02*
X379500D01*
X35268Y68791D02*
X110465D01*
X35268D02*
Y130209D01*
X110465D01*
Y106587D02*
Y130209D01*
Y68791D02*
Y92413D01*
X28811Y69472D02*
Y128528D01*
X10110Y128500D02*
X33142Y128528D01*
Y69472D02*
Y128528D01*
X10110Y69500D02*
X33142Y69472D01*
X311500Y5250D02*
X319500D01*
X311500Y12750D02*
X319500D01*
X371500Y128750D02*
X379500D01*
X371500Y121250D02*
X379500D01*
X347000Y104250D02*
X355000D01*
X347000Y111750D02*
X355000D01*
X233748Y195095D02*
X233256Y195947D01*
X232272D01*
X231780Y195095D01*
X232272Y194242D01*
X233256D01*
X233748Y195095D01*
X122984Y181150D02*
X122439Y181837D01*
X121561D01*
X121016Y181150D01*
X85248Y153358D02*
X85216Y154357D01*
X85121Y155352D01*
X84963Y156339D01*
X84743Y157313D01*
X84462Y158272D01*
X84120Y159211D01*
X83719Y160127D01*
X83261Y161015D01*
X82748Y161872D01*
X82181Y162695D01*
X81564Y163481D01*
X80897Y164226D01*
X80185Y164927D01*
X79430Y165581D01*
X78635Y166186D01*
X77803Y166740D01*
X76937Y167239D01*
X76042Y167683D01*
X75120Y168069D01*
X74176Y168396D01*
X73213Y168662D01*
X72235Y168867D01*
X71245Y169009D01*
X70249Y169088D01*
X69250Y169104D01*
X68252Y169057D01*
X67259Y168946D01*
X66275Y168772D01*
X65304Y168537D01*
X64349Y168240D01*
X63416Y167884D01*
X62507Y167468D01*
X61626Y166997D01*
X60777Y166470D01*
X59963Y165890D01*
X59187Y165260D01*
X58453Y164582D01*
X57764Y163859D01*
X57121Y163093D01*
X56529Y162288D01*
X55989Y161448D01*
X55503Y160574D01*
X55073Y159672D01*
X54702Y158744D01*
X54390Y157795D01*
X54139Y156828D01*
X53950Y155847D01*
X53823Y154855D01*
X53760Y153858D01*
Y152859D01*
X53823Y151861D01*
X53950Y150870D01*
X54139Y149889D01*
X54390Y148922D01*
X54702Y147972D01*
X55073Y147044D01*
X55503Y146142D01*
X55989Y145269D01*
X56529Y144428D01*
X57121Y143623D01*
X57764Y142858D01*
X58453Y142135D01*
X59187Y141457D01*
X59963Y140827D01*
X60777Y140247D01*
X61626Y139720D01*
X62507Y139248D01*
X63416Y138833D01*
X64349Y138476D01*
X65304Y138180D01*
X66275Y137944D01*
X67259Y137770D01*
X68252Y137660D01*
X69250Y137612D01*
X70249Y137628D01*
X71245Y137707D01*
X72235Y137849D01*
X73213Y138054D01*
X74176Y138320D01*
X75120Y138647D01*
X76042Y139033D01*
X76937Y139477D01*
X77803Y139977D01*
X78635Y140530D01*
X79430Y141136D01*
X80185Y141790D01*
X80897Y142491D01*
X81564Y143236D01*
X82181Y144021D01*
X82748Y144844D01*
X83261Y145702D01*
X83719Y146590D01*
X84120Y147505D01*
X84462Y148444D01*
X84743Y149403D01*
X84963Y150378D01*
X85121Y151365D01*
X85216Y152359D01*
X85248Y153358D01*
X32748Y232858D02*
X32484Y233842D01*
X31764Y234563D01*
X30779Y234827D01*
X29795Y234563D01*
X29075Y233842D01*
X28811Y232858D01*
X29075Y231874D01*
X29795Y231153D01*
X30779Y230890D01*
X31764Y231153D01*
X32484Y231874D01*
X32748Y232858D01*
Y252543D02*
X32484Y253528D01*
X31764Y254248D01*
X30779Y254512D01*
X29795Y254248D01*
X29075Y253528D01*
X28811Y252543D01*
X29075Y251559D01*
X29795Y250838D01*
X30779Y250575D01*
X31764Y250838D01*
X32484Y251559D01*
X32748Y252543D01*
Y213173D02*
X32484Y214158D01*
X31764Y214878D01*
X30779Y215142D01*
X29795Y214878D01*
X29075Y214158D01*
X28811Y213173D01*
X29075Y212189D01*
X29795Y211469D01*
X30779Y211205D01*
X31764Y211469D01*
X32484Y212189D01*
X32748Y213173D01*
X322535Y228354D02*
X324504D01*
X322535Y220480D02*
Y228354D01*
Y165362D02*
Y173236D01*
Y165362D02*
X324504D01*
X417024D02*
Y228354D01*
X387496D02*
X417024D01*
X392614Y165362D02*
Y228354D01*
X387496Y165362D02*
X417024D01*
X215500Y167608D02*
X223500D01*
X215500Y175108D02*
X223500D01*
X218000Y249608D02*
X226000D01*
X218000Y242108D02*
X226000D01*
X191500Y249108D02*
X199500D01*
X191500Y256608D02*
X199500D01*
X171500Y195108D02*
X179500D01*
X171500Y202608D02*
X179500D01*
X191500Y238108D02*
X199500D01*
X191500Y245608D02*
X199500D01*
X232000Y167608D02*
X240000D01*
X232000Y175108D02*
X240000D01*
X240638Y193126D02*
X240638D01*
X239653Y192142D02*
X240638Y193126D01*
X239653Y192142D02*
X241622D01*
X240638Y193126D02*
X241622Y192142D01*
X240638Y193126D02*
Y193126D01*
X233748Y191157D02*
X236701Y194110D01*
Y228559D01*
X199299D02*
X236701D01*
X199299Y191157D02*
Y228559D01*
Y191157D02*
X233748D01*
X116500Y205858D02*
X116595D01*
X116126Y205484D02*
X116500Y205858D01*
X116126Y205484D02*
X116969D01*
X116595Y205858D02*
X116969Y205484D01*
X118500Y213608D02*
X126500D01*
X118500Y206108D02*
X126500D01*
X154000Y193108D02*
X162000D01*
X154000Y185608D02*
X162000D01*
X191500Y137858D02*
Y147858D01*
Y137858D02*
X241500D01*
X191500Y147858D02*
X241500D01*
Y137858D02*
Y147858D01*
X245250Y142858D02*
X247750Y145358D01*
Y140358D02*
Y145358D01*
X245250Y142858D02*
X247750Y140358D01*
X267000Y224608D02*
X275000D01*
X267000Y217108D02*
X275000D01*
X267000Y235108D02*
X275000D01*
X267000Y227608D02*
X275000D01*
X267000Y245608D02*
X275000D01*
X267000Y238108D02*
X275000D01*
X264400Y168713D02*
X275600D01*
X264400Y163004D02*
X275600D01*
X185500Y159608D02*
X193500D01*
X185500Y152108D02*
X193500D01*
X216000Y154108D02*
X224000D01*
X216000Y161608D02*
X224000D01*
X232000D02*
X240000D01*
X232000Y154108D02*
X240000D01*
X185500Y162608D02*
X193500D01*
X185500Y170108D02*
X193500D01*
X267000Y160108D02*
X275000D01*
X267000Y152608D02*
X275000D01*
X267000Y183108D02*
X275000D01*
X267000Y190608D02*
X275000D01*
X267000Y178608D02*
X275000D01*
X267000Y171108D02*
X275000D01*
X154500Y217608D02*
X162500D01*
X154500Y225108D02*
X162500D01*
X114626Y155732D02*
X130374D01*
X114626Y139984D02*
X130374D01*
X114626D02*
Y140969D01*
X130374Y139984D02*
Y140969D01*
X114626Y154748D02*
Y155732D01*
X130374Y154748D02*
Y155732D01*
X116890Y159512D02*
X128110D01*
X116890Y166205D02*
X128110D01*
X120500Y159858D02*
Y165858D01*
X115000Y159858D02*
X115500Y159358D01*
X114500D02*
X115500D01*
X114500D02*
X115000Y159858D01*
X34256Y142642D02*
Y146579D01*
Y174138D02*
Y178075D01*
X31500Y142642D02*
X34256D01*
X3153Y142642D02*
X5909Y142642D01*
X3153Y178075D02*
X34256D01*
X124559Y181150D02*
Y192567D01*
X119441Y181150D02*
Y192567D01*
X124559D01*
X122984Y181150D02*
X124559D01*
X119441D02*
X121016D01*
X152000Y174858D02*
X152094D01*
X151626Y174484D02*
X152000Y174858D01*
X151626Y174484D02*
X152469D01*
X152094Y174858D02*
X152469Y174484D01*
X154000Y182608D02*
X162000D01*
X154000Y175108D02*
X162000D01*
X118000Y170108D02*
X126000D01*
X118000Y177608D02*
X126000D01*
X163906Y162358D02*
X164000D01*
X164374Y162732D01*
X163531D02*
X164374D01*
X163531D02*
X163906Y162358D01*
X154000Y154608D02*
X162000D01*
X154000Y162108D02*
X162000D01*
X154000Y172608D02*
X162000D01*
X154000Y165108D02*
X162000D01*
X154000Y195108D02*
X162000D01*
X154000Y202608D02*
X162000D01*
X160250Y141358D02*
Y149358D01*
X167750Y141358D02*
Y149358D01*
X149250Y141358D02*
Y149358D01*
X156750Y141358D02*
Y149358D01*
X63500Y179858D02*
X75500D01*
X63500Y170858D02*
X75500D01*
X65000Y189608D02*
X73000D01*
X65000Y182108D02*
X73000D01*
X41063Y176665D02*
Y190051D01*
X48937Y176665D02*
Y190051D01*
X28000Y191858D02*
X29000Y190358D01*
X30000Y191858D01*
X28000D02*
X30000D01*
X26555Y190358D02*
Y191606D01*
Y180110D02*
Y181358D01*
X8445Y180110D02*
Y181358D01*
Y190358D02*
Y191606D01*
Y180110D02*
X26555D01*
X8445Y191606D02*
X26555D01*
X39000Y161358D02*
X40500Y162358D01*
X39000Y163358D02*
X40500Y162358D01*
X39000Y161358D02*
Y163358D01*
X39252Y159913D02*
X40500D01*
X49500D02*
X50748D01*
X49500Y141803D02*
X50748D01*
X39252D02*
X40500D01*
X50748D02*
Y159913D01*
X39252Y141803D02*
Y159913D01*
X154000Y214108D02*
X162000D01*
X154000Y206608D02*
X162000D01*
X125000Y223858D02*
Y235858D01*
X122000D02*
X125000D01*
X122000Y223858D02*
Y235858D01*
Y223858D02*
X125000D01*
X297500Y213108D02*
X305500D01*
X297500Y220608D02*
X305500D01*
X297500Y223108D02*
X305500D01*
X297500Y230608D02*
X305500D01*
X311500Y158108D02*
X319500D01*
X311500Y150608D02*
X319500D01*
X371500Y244108D02*
X379500D01*
X371500Y251608D02*
X379500D01*
X35268Y202650D02*
X110465D01*
X35268D02*
Y264067D01*
X110465D01*
Y240445D02*
Y264067D01*
Y202650D02*
Y226272D01*
X28811Y203331D02*
Y262386D01*
X10110Y262358D02*
X33142Y262386D01*
Y203331D02*
Y262386D01*
X10110Y203358D02*
X33142Y203331D01*
X311500Y139108D02*
X319500D01*
X311500Y146608D02*
X319500D01*
X371500Y262608D02*
X379500D01*
X371500Y255108D02*
X379500D01*
X347000Y238108D02*
X355000D01*
X347000Y245608D02*
X355000D01*
G54D50*
X710284Y84795D02*
X711071D01*
X710284D01*
Y218653D02*
X711071D01*
X710284D01*
X132236Y49063D02*
X131449D01*
X132236D01*
Y182921D02*
X131449D01*
X132236D01*
G54D51*
X572701Y73701D02*
X570339D01*
X572701Y54016D02*
X570339D01*
X565614Y67402D02*
Y60315D01*
X577425Y67402D02*
Y60315D01*
X773020Y135028D02*
Y132075D01*
X572701Y207559D02*
X570339D01*
X572701Y187874D02*
X570339D01*
X565614Y201260D02*
Y194173D01*
X577425Y201260D02*
Y194173D01*
X773020Y268886D02*
Y265933D01*
X269819Y60158D02*
X272181D01*
X269819Y79843D02*
X272181D01*
X276905Y66457D02*
Y73543D01*
X265094Y66457D02*
Y73543D01*
X69500Y-1169D02*
Y1784D01*
X269819Y194016D02*
X272181D01*
X269819Y213701D02*
X272181D01*
X276905Y200315D02*
Y207402D01*
X265094Y200315D02*
Y207402D01*
X69500Y132689D02*
Y135642D01*
G54D52*
X723520Y53608D02*
D03*
Y62108D02*
D03*
X688020Y84608D02*
D03*
Y93108D02*
D03*
X681020Y113608D02*
D03*
Y105108D02*
D03*
X723520Y187467D02*
D03*
Y195966D02*
D03*
X688020Y218466D02*
D03*
Y226967D02*
D03*
X681020Y247466D02*
D03*
Y238966D02*
D03*
X119000Y80250D02*
D03*
Y71750D02*
D03*
X154500Y49250D02*
D03*
Y40750D02*
D03*
X161500Y20250D02*
D03*
Y28750D02*
D03*
X119000Y214108D02*
D03*
Y205608D02*
D03*
X154500Y183108D02*
D03*
Y174608D02*
D03*
X161500Y154108D02*
D03*
Y162608D02*
D03*
G54D53*
X773020Y128138D02*
D03*
X69500Y139579D02*
D03*
G54D54*
X819020Y86858D02*
D03*
Y76858D02*
D03*
Y220717D02*
D03*
Y210717D02*
D03*
X23500Y47000D02*
D03*
Y57000D02*
D03*
Y180858D02*
D03*
Y190858D02*
D03*
G54D55*
X792520Y110858D02*
D03*
X802520D02*
D03*
X792520Y244717D02*
D03*
X802520D02*
D03*
X50000Y23000D02*
D03*
X40000D02*
D03*
X50000Y156858D02*
D03*
X40000D02*
D03*
G54D56*
X773020Y261996D02*
D03*
X69500Y5720D02*
D03*
M02*
